{"glyphs":{"0":{"ha":833,"x_min":78,"x_max":756,"o":"m 417 -17 q 264 17 328 -17 q 158 115 200 51 q 97 272 117 179 q 78 485 78 365 q 97 697 78 603 q 158 854 117 790 q 264 952 200 918 q 417 986 328 986 q 569 952 506 986 q 675 854 633 918 q 736 697 717 790 q 756 485 756 603 q 736 272 756 365 q 675 115 717 179 q 569 17 633 51 q 417 -17 506 -17 m 417 85 q 517 108 475 85 q 584 172 558 131 q 622 273 610 214 q 635 406 635 332 l 635 564 q 622 696 635 636 q 584 797 610 756 q 517 862 558 839 q 417 885 475 885 q 317 862 358 885 q 249 797 275 839 q 211 696 224 756 q 199 564 199 636 l 199 406 q 211 273 199 332 q 249 172 224 214 q 317 108 275 131 q 417 85 358 85 m 417 403 q 349 422 368 403 q 331 469 331 442 l 331 500 q 349 547 331 528 q 417 567 368 567 q 484 547 465 567 q 503 500 503 528 l 503 469 q 484 422 503 442 q 417 403 465 403 z "},"1":{"ha":833,"x_min":74,"x_max":768,"o":"m 118 0 l 118 101 l 396 101 l 396 883 l 386 883 l 142 656 l 74 729 l 331 969 l 513 969 l 513 101 l 768 101 l 768 0 l 118 0 z "},"2":{"ha":833,"x_min":90,"x_max":746,"o":"m 746 0 l 99 0 l 99 119 l 422 411 q 539 542 493 475 q 585 685 585 610 l 585 701 q 539 837 585 789 q 403 885 493 885 q 266 840 314 885 q 194 719 218 794 l 90 758 q 128 842 104 801 q 190 915 153 883 q 281 967 228 947 q 406 986 335 986 q 534 965 478 986 q 628 907 590 944 q 687 818 667 869 q 707 706 707 767 q 691 601 707 650 q 647 508 675 553 q 578 422 618 464 q 490 338 539 379 l 219 101 l 746 101 l 746 0 z "},"3":{"ha":833,"x_min":67,"x_max":719,"o":"m 375 558 q 527 603 476 558 q 578 719 578 649 l 578 729 q 528 846 578 807 q 400 885 479 885 q 274 851 322 885 q 196 761 226 817 l 108 828 q 153 885 126 857 q 215 936 179 914 q 297 972 250 958 q 403 986 343 986 q 519 970 465 986 q 614 923 574 954 q 677 846 654 892 q 700 742 700 800 q 685 657 700 694 q 645 592 671 619 q 585 544 619 564 q 511 515 550 525 l 511 510 q 589 483 551 501 q 656 434 626 464 q 702 362 685 404 q 719 265 719 319 q 695 151 719 203 q 627 62 671 99 q 522 4 583 25 q 385 -17 460 -17 q 272 -3 321 -17 q 184 35 222 11 q 117 88 146 58 q 67 149 89 117 l 154 215 q 194 163 174 186 q 242 122 215 139 q 304 94 269 104 q 385 85 339 85 q 542 132 488 85 q 597 267 597 179 l 597 278 q 544 411 597 364 q 383 458 490 458 l 268 458 l 268 558 l 375 558 z "},"4":{"ha":833,"x_min":47,"x_max":781,"o":"m 525 0 l 525 190 l 47 190 l 47 293 l 467 969 l 636 969 l 636 286 l 781 286 l 781 190 l 636 190 l 636 0 l 525 0 m 151 286 l 525 286 l 525 879 l 519 879 l 151 286 z "},"5":{"ha":833,"x_min":101,"x_max":740,"o":"m 696 868 l 263 868 l 235 497 l 244 497 q 325 574 281 546 q 447 603 369 603 q 565 583 511 603 q 657 524 618 563 q 718 430 696 485 q 740 304 740 375 q 718 174 740 233 q 653 73 696 115 q 549 7 610 31 q 410 -17 488 -17 q 301 -3 349 -17 q 216 35 253 11 q 151 88 179 58 q 101 149 124 117 l 189 215 q 228 163 208 186 q 275 122 249 139 q 335 94 301 104 q 413 85 368 85 q 566 139 513 85 q 619 289 619 193 l 619 300 q 565 450 619 396 q 410 504 511 504 q 302 481 340 504 q 232 422 264 457 l 133 436 l 168 969 l 696 969 l 696 868 z "},"6":{"ha":833,"x_min":89,"x_max":744,"o":"m 418 -17 q 281 9 342 -17 q 177 83 219 35 q 112 200 135 131 q 89 356 89 269 q 122 559 89 464 q 205 733 154 654 q 318 872 256 811 q 440 969 381 932 l 590 969 q 449 858 511 913 q 340 745 388 804 q 261 619 293 686 q 208 467 229 551 l 215 464 q 307 563 250 524 q 454 603 364 603 q 571 582 518 603 q 663 522 624 561 q 723 428 701 483 q 744 304 744 372 q 721 174 744 233 q 655 73 697 115 q 552 7 613 31 q 418 -17 492 -17 m 417 82 q 572 136 517 82 q 626 289 626 190 l 626 300 q 572 453 626 399 q 417 507 517 507 q 262 453 317 507 q 207 300 207 399 l 207 289 q 262 136 207 190 q 417 82 317 82 z "},"7":{"ha":833,"x_min":90,"x_max":738,"o":"m 240 0 l 619 869 l 194 869 l 194 689 l 90 689 l 90 969 l 738 969 l 738 867 l 365 0 l 240 0 z "},"8":{"ha":833,"x_min":76,"x_max":757,"o":"m 417 -17 q 268 5 332 -17 q 162 64 204 26 q 98 153 119 101 q 76 264 76 204 q 131 422 76 364 q 274 504 185 481 l 274 515 q 151 601 196 542 q 106 743 106 660 q 188 920 106 854 q 417 986 269 986 q 646 920 564 986 q 728 743 728 854 q 683 601 728 660 q 560 515 638 542 l 560 504 q 703 422 649 481 q 757 264 757 364 q 735 153 757 204 q 671 64 714 101 q 565 5 628 26 q 417 -17 501 -17 m 417 82 q 578 128 519 82 q 636 257 636 174 l 636 288 q 578 417 636 371 q 417 463 521 463 q 255 417 313 463 q 197 288 197 371 l 197 257 q 256 128 197 174 q 417 82 314 82 m 417 557 q 560 597 511 557 q 610 713 610 638 l 610 732 q 559 847 610 807 q 417 888 508 888 q 274 847 325 888 q 224 732 224 807 l 224 713 q 273 597 224 638 q 417 557 322 557 z "},"9":{"ha":833,"x_min":89,"x_max":744,"o":"m 744 614 q 712 410 744 506 q 628 237 679 315 q 515 98 576 158 q 393 0 453 38 l 243 0 q 384 111 322 57 q 493 224 446 165 q 572 351 540 283 q 625 503 604 418 l 618 506 q 526 406 582 446 q 379 367 469 367 q 262 388 315 367 q 170 447 208 408 q 110 541 132 486 q 89 665 89 596 q 112 795 89 736 q 178 897 135 854 q 281 963 221 939 q 415 986 342 986 q 553 960 492 986 q 656 887 614 935 q 722 769 699 839 q 744 614 744 700 m 417 463 q 572 517 517 463 q 626 669 626 571 l 626 681 q 572 833 626 779 q 417 888 517 888 q 262 833 317 888 q 207 681 207 779 l 207 669 q 262 517 207 571 q 417 463 317 463 z "},"\u0000":{"ha":0,"x_min":0,"x_max":0,"o":""},"\r":{"ha":833,"x_min":0,"x_max":0,"o":""}," ":{"ha":833,"x_min":0,"x_max":0,"o":""},"a":{"ha":833,"x_min":92,"x_max":764,"o":"m 688 0 q 594 33 622 0 q 560 117 567 67 l 553 117 q 477 19 529 54 q 338 -17 425 -17 q 158 42 225 -17 q 92 201 92 100 q 165 356 92 301 q 400 410 238 410 l 553 410 l 553 481 q 508 599 553 560 q 382 639 464 639 q 264 610 310 639 q 190 533 218 582 l 115 589 q 153 643 129 617 q 211 690 176 669 q 290 722 246 710 q 389 733 335 733 q 590 669 515 733 q 664 492 664 606 l 664 97 l 764 97 l 764 0 l 688 0 m 357 76 q 435 87 400 76 q 497 115 471 97 q 538 156 524 132 q 553 208 553 181 l 553 326 l 400 326 q 254 299 300 326 q 208 218 208 271 l 208 189 q 248 105 208 133 q 357 76 288 76 z "},"b":{"ha":833,"x_min":132,"x_max":750,"o":"m 132 1028 l 243 1028 l 243 600 l 249 600 q 469 733 318 733 q 676 635 601 733 q 750 358 750 536 q 676 82 750 181 q 469 -17 601 -17 q 249 117 318 -17 l 243 117 l 243 0 l 132 0 l 132 1028 m 426 82 q 577 141 524 82 q 631 297 631 200 l 631 419 q 577 576 631 517 q 426 635 524 635 q 356 625 389 635 q 297 597 322 615 q 258 551 272 578 q 243 488 243 524 l 243 229 q 258 166 243 193 q 297 120 272 139 q 356 92 322 101 q 426 82 389 82 z "},"c":{"ha":833,"x_min":117,"x_max":717,"o":"m 442 -17 q 303 10 364 -17 q 201 86 243 38 q 138 204 160 135 q 117 358 117 274 q 139 513 117 443 q 203 631 161 582 q 304 707 244 681 q 440 733 364 733 q 610 688 544 733 q 706 568 675 642 l 617 521 q 552 607 597 576 q 440 638 507 638 q 353 622 392 638 q 289 576 315 606 q 249 507 263 547 q 236 419 236 467 l 236 297 q 249 210 236 250 q 289 140 263 169 q 354 95 315 111 q 443 79 393 79 q 563 113 515 79 q 638 204 610 146 l 717 150 q 617 31 685 78 q 442 -17 550 -17 z "},"d":{"ha":833,"x_min":83,"x_max":701,"o":"m 590 117 l 585 117 q 364 -17 515 -17 q 158 82 232 -17 q 83 358 83 181 q 158 635 83 536 q 364 733 232 733 q 585 600 515 733 l 590 600 l 590 1028 l 701 1028 l 701 0 l 590 0 l 590 117 m 407 82 q 478 92 444 82 q 536 120 511 101 q 576 166 561 139 q 590 229 590 193 l 590 488 q 576 551 590 524 q 536 597 561 578 q 478 625 511 615 q 407 635 444 635 q 256 576 310 635 q 203 419 203 517 l 203 297 q 256 141 203 200 q 407 82 310 82 z "},"e":{"ha":833,"x_min":93,"x_max":740,"o":"m 429 -17 q 290 10 351 -17 q 184 85 228 36 q 117 203 140 135 q 93 357 93 272 q 117 513 93 443 q 185 631 142 582 q 288 707 228 681 q 422 733 349 733 q 553 707 494 733 q 654 634 613 681 q 718 524 696 588 q 740 383 740 460 l 740 331 l 210 331 l 210 297 q 225 210 210 250 q 269 140 240 169 q 338 95 297 111 q 429 79 379 79 q 554 113 501 79 q 635 204 607 146 l 717 149 q 610 30 685 76 q 429 -17 536 -17 m 422 642 q 338 625 376 642 q 270 579 299 608 q 226 510 242 550 q 210 424 210 471 l 210 414 l 621 414 l 621 429 q 606 515 621 476 q 566 583 592 554 q 503 626 540 611 q 422 642 467 642 z "},"f":{"ha":833,"x_min":101,"x_max":756,"o":"m 115 94 l 357 94 l 357 622 l 101 622 l 101 717 l 357 717 l 357 864 q 395 982 357 936 q 515 1028 433 1028 l 756 1028 l 756 933 l 468 933 l 468 717 l 756 717 l 756 622 l 468 622 l 468 94 l 724 94 l 724 0 l 115 0 l 115 94 z "},"g":{"ha":833,"x_min":93,"x_max":779,"o":"m 779 -82 q 689 -242 779 -190 q 418 -294 599 -294 q 169 -249 244 -294 q 93 -117 93 -203 q 124 -26 93 -58 q 210 21 154 6 l 210 38 q 163 76 179 53 q 146 136 146 100 q 183 219 146 192 q 275 261 219 247 l 275 267 q 172 353 208 296 q 135 486 135 410 q 154 586 135 540 q 210 665 174 632 q 299 715 247 697 q 413 733 350 733 q 554 704 493 733 l 554 717 q 574 786 554 758 q 640 814 593 814 l 772 814 l 772 717 l 611 717 l 611 668 q 671 589 650 635 q 692 486 692 543 q 672 386 692 432 q 615 308 651 340 q 527 257 579 275 q 413 239 475 239 q 378 240 394 239 q 344 244 361 242 q 310 235 328 242 q 276 219 292 229 q 251 194 261 208 q 242 163 242 181 q 274 120 242 131 q 357 110 306 110 l 515 110 q 717 58 654 110 q 779 -82 779 6 m 675 -87 q 640 -19 675 -44 q 519 7 606 7 l 271 7 q 199 -90 199 -22 q 236 -172 199 -137 q 361 -206 274 -206 l 469 -206 q 621 -176 567 -206 q 675 -87 675 -146 m 413 325 q 535 364 496 325 q 575 467 575 403 l 575 507 q 535 609 575 571 q 413 647 496 647 q 290 609 329 647 q 251 507 251 571 l 251 467 q 290 364 251 403 q 413 325 329 325 z "},"h":{"ha":833,"x_min":136,"x_max":706,"o":"m 136 1028 l 247 1028 l 247 600 l 253 600 q 281 651 264 626 q 322 693 297 675 q 379 722 346 711 q 457 733 413 733 q 638 662 569 733 q 706 460 706 590 l 706 0 l 594 0 l 594 440 q 551 587 594 539 q 425 635 508 635 q 360 626 392 635 q 303 601 328 618 q 263 558 278 585 q 247 497 247 532 l 247 0 l 136 0 l 136 1028 z "},"i":{"ha":833,"x_min":147,"x_max":758,"o":"m 461 875 q 393 895 413 875 q 374 946 374 915 l 374 968 q 393 1019 374 999 q 461 1039 413 1039 q 529 1019 510 1039 q 549 968 549 999 l 549 946 q 529 895 549 915 q 461 875 510 875 m 147 94 l 406 94 l 406 622 l 147 622 l 147 717 l 517 717 l 517 94 l 758 94 l 758 0 l 147 0 l 147 94 z "},"j":{"ha":833,"x_min":129,"x_max":632,"o":"m 142 -183 l 489 -183 l 489 622 l 129 622 l 129 717 l 600 717 l 600 -114 q 562 -232 600 -186 q 442 -278 524 -278 l 142 -278 l 142 -183 m 544 875 q 476 895 496 875 q 457 946 457 915 l 457 968 q 476 1019 457 999 q 544 1039 496 1039 q 613 1019 593 1039 q 632 968 632 999 l 632 946 q 613 895 632 915 q 544 875 593 875 z "},"k":{"ha":833,"x_min":146,"x_max":797,"o":"m 146 1028 l 257 1028 l 257 379 l 263 379 l 388 497 l 626 717 l 763 717 l 465 436 l 797 0 l 660 0 l 381 372 l 257 260 l 257 0 l 146 0 l 146 1028 z "},"l":{"ha":833,"x_min":111,"x_max":722,"o":"m 111 94 l 361 94 l 361 933 l 111 933 l 111 1028 l 472 1028 l 472 94 l 722 94 l 722 0 l 111 0 l 111 94 z "},"m":{"ha":833,"x_min":75,"x_max":758,"o":"m 75 0 l 75 717 l 178 717 l 178 633 l 183 633 q 231 704 200 675 q 321 733 261 733 q 414 702 383 733 q 451 621 444 671 l 456 621 q 511 701 475 669 q 611 733 547 733 q 728 672 699 733 q 758 497 758 611 l 758 0 l 656 0 l 656 479 q 637 606 656 571 q 568 642 618 642 q 496 613 524 642 q 468 526 468 585 l 468 0 l 365 0 l 365 479 q 347 606 365 571 q 279 642 328 642 q 206 613 235 642 q 178 526 178 585 l 178 0 l 75 0 z "},"n":{"ha":833,"x_min":136,"x_max":706,"o":"m 136 0 l 136 717 l 247 717 l 247 600 l 253 600 q 281 651 264 626 q 322 693 297 675 q 379 722 346 711 q 457 733 413 733 q 638 662 569 733 q 706 460 706 590 l 706 0 l 594 0 l 594 440 q 551 587 594 539 q 425 635 508 635 q 360 626 392 635 q 303 601 328 618 q 263 558 278 585 q 247 497 247 532 l 247 0 l 136 0 z "},"o":{"ha":833,"x_min":92,"x_max":742,"o":"m 417 -17 q 281 10 342 -17 q 178 85 221 36 q 114 203 136 135 q 92 358 92 272 q 114 513 92 443 q 178 631 136 582 q 281 707 221 681 q 417 733 342 733 q 552 707 492 733 q 655 631 613 681 q 719 513 697 582 q 742 358 742 443 q 719 203 742 272 q 655 85 697 135 q 552 10 613 36 q 417 -17 492 -17 m 417 79 q 567 135 510 79 q 624 307 624 190 l 624 410 q 567 582 624 526 q 417 638 510 638 q 267 582 324 638 q 210 410 210 526 l 210 307 q 267 135 210 190 q 417 79 324 79 z "},"p":{"ha":833,"x_min":132,"x_max":750,"o":"m 132 717 l 243 717 l 243 600 l 249 600 q 469 733 318 733 q 676 635 601 733 q 750 358 750 536 q 676 82 750 181 q 469 -17 601 -17 q 249 117 318 -17 l 243 117 l 243 -278 l 132 -278 l 132 717 m 426 82 q 577 141 524 82 q 631 297 631 200 l 631 419 q 577 576 631 517 q 426 635 524 635 q 356 625 389 635 q 297 597 322 615 q 258 551 272 578 q 243 488 243 524 l 243 229 q 258 166 243 193 q 297 120 272 139 q 356 92 322 101 q 426 82 389 82 z "},"q":{"ha":833,"x_min":83,"x_max":701,"o":"m 590 117 l 585 117 q 364 -17 515 -17 q 158 82 232 -17 q 83 358 83 181 q 158 635 83 536 q 364 733 232 733 q 585 600 515 733 l 590 600 l 590 717 l 701 717 l 701 -278 l 590 -278 l 590 117 m 407 82 q 478 92 444 82 q 536 120 511 101 q 576 166 561 139 q 590 229 590 193 l 590 488 q 576 551 590 524 q 536 597 561 578 q 478 625 511 615 q 407 635 444 635 q 256 576 310 635 q 203 419 203 517 l 203 297 q 256 141 203 200 q 407 82 310 82 z "},"r":{"ha":833,"x_min":107,"x_max":776,"o":"m 107 94 l 317 94 l 317 622 l 107 622 l 107 717 l 428 717 l 428 536 l 435 536 q 519 669 457 621 q 676 717 581 717 l 776 717 l 776 606 l 642 606 q 487 550 546 606 q 428 404 428 494 l 428 94 l 706 94 l 706 0 l 107 0 l 107 94 z "},"s":{"ha":833,"x_min":93,"x_max":728,"o":"m 425 -17 q 231 22 313 -17 q 93 124 150 60 l 168 189 q 281 106 219 135 q 428 76 342 76 q 565 106 511 76 q 618 200 618 136 q 608 247 618 228 q 579 276 597 265 q 539 294 561 288 q 492 304 517 300 l 379 321 q 298 336 342 326 q 218 367 254 346 q 158 425 182 389 q 133 519 133 461 q 155 613 133 574 q 215 680 176 653 q 307 720 254 707 q 422 733 360 733 q 591 703 519 733 q 714 618 663 672 l 642 550 q 610 581 629 565 q 565 610 592 597 q 501 632 538 624 q 418 640 465 640 q 288 611 333 640 q 243 526 243 582 q 253 480 243 499 q 282 450 264 461 q 323 433 300 439 q 369 422 346 426 l 482 406 q 564 390 521 400 q 643 359 607 381 q 703 301 679 338 q 728 207 728 265 q 645 42 728 100 q 425 -17 563 -17 z "},"t":{"ha":833,"x_min":54,"x_max":731,"o":"m 451 0 q 331 46 369 0 q 293 164 293 92 l 293 622 l 54 622 l 54 717 l 232 717 q 283 731 268 717 q 297 782 297 746 l 297 969 l 404 969 l 404 717 l 731 717 l 731 622 l 404 622 l 404 94 l 731 94 l 731 0 l 451 0 z "},"u":{"ha":833,"x_min":128,"x_max":697,"o":"m 586 117 l 581 117 q 553 66 569 90 q 512 24 536 42 q 454 -6 488 6 q 376 -17 421 -17 q 196 55 264 -17 q 128 257 128 126 l 128 717 l 239 717 l 239 276 q 282 130 239 178 q 408 82 325 82 q 474 90 442 82 q 531 115 506 99 q 571 158 556 132 q 586 219 586 183 l 586 717 l 697 717 l 697 0 l 586 0 l 586 117 z "},"v":{"ha":833,"x_min":89,"x_max":744,"o":"m 346 0 l 89 717 l 201 717 l 304 417 l 415 93 l 421 93 l 532 417 l 635 717 l 744 717 l 488 0 l 346 0 z "},"w":{"ha":833,"x_min":42,"x_max":792,"o":"m 42 717 l 140 717 l 222 97 l 235 97 l 357 717 l 479 717 l 601 97 l 614 97 l 696 717 l 792 717 l 682 0 l 538 0 l 424 600 l 413 600 l 296 0 l 151 0 l 42 717 z "},"x":{"ha":833,"x_min":85,"x_max":750,"o":"m 85 0 l 351 364 l 92 717 l 225 717 l 333 565 l 419 446 l 425 446 l 508 565 l 615 717 l 743 717 l 481 365 l 750 0 l 617 0 l 496 168 l 414 282 l 408 282 l 329 168 l 213 0 l 85 0 z "},"y":{"ha":833,"x_min":74,"x_max":760,"o":"m 649 717 l 760 717 l 404 -157 q 376 -210 392 -187 q 340 -248 361 -233 q 290 -270 319 -262 q 221 -278 261 -278 l 115 -278 l 115 -183 l 282 -183 l 363 14 l 74 717 l 188 717 l 308 417 l 415 144 l 421 144 l 528 417 l 649 717 z "},"z":{"ha":833,"x_min":118,"x_max":715,"o":"m 118 0 l 118 107 l 581 622 l 133 622 l 133 717 l 701 717 l 701 610 l 239 94 l 715 94 l 715 0 l 118 0 z "},"A":{"ha":833,"x_min":43,"x_max":792,"o":"m 668 0 l 586 276 l 246 276 l 164 0 l 43 0 l 340 969 l 494 969 l 792 0 l 668 0 m 422 846 l 410 846 l 274 378 l 558 378 l 422 846 z "},"B":{"ha":833,"x_min":122,"x_max":754,"o":"m 122 969 l 451 969 q 647 901 576 969 q 718 719 718 833 q 676 582 718 632 q 567 511 633 532 l 567 507 q 701 434 649 488 q 754 279 754 381 q 735 169 754 221 q 680 81 715 118 q 597 22 644 43 q 493 0 549 0 l 122 0 l 122 969 m 458 101 q 585 138 539 101 q 631 249 631 174 l 631 306 q 585 416 631 379 q 458 453 539 453 l 239 453 l 239 101 l 458 101 m 439 549 q 554 581 513 549 q 596 681 596 614 l 596 735 q 554 835 596 801 q 439 868 513 868 l 239 868 l 239 549 l 439 549 z "},"C":{"ha":833,"x_min":97,"x_max":747,"o":"m 449 -17 q 184 113 271 -17 q 97 485 97 242 q 184 857 97 728 q 449 986 271 986 q 564 968 515 986 q 647 919 613 950 q 706 851 682 889 q 747 774 729 813 l 647 728 q 618 788 635 760 q 578 838 601 817 q 524 872 556 860 q 449 885 493 885 q 277 797 333 885 q 221 564 221 710 l 221 406 q 277 172 221 260 q 449 85 333 85 q 524 97 493 85 q 578 131 556 110 q 618 181 601 153 q 647 242 635 210 l 747 196 q 706 118 729 156 q 647 50 682 81 q 564 1 613 19 q 449 -17 515 -17 z "},"D":{"ha":833,"x_min":132,"x_max":756,"o":"m 132 969 l 403 969 q 668 847 581 969 q 756 485 756 725 q 668 122 756 244 q 403 0 581 0 l 132 0 l 132 969 m 397 101 q 573 182 514 101 q 632 410 632 263 l 632 560 q 573 788 632 707 q 397 868 514 868 l 249 868 l 249 101 l 397 101 z "},"E":{"ha":833,"x_min":125,"x_max":722,"o":"m 125 0 l 125 969 l 722 969 l 722 868 l 242 868 l 242 542 l 706 542 l 706 440 l 242 440 l 242 101 l 722 101 l 722 0 l 125 0 z "},"F":{"ha":833,"x_min":125,"x_max":736,"o":"m 125 0 l 125 969 l 736 969 l 736 868 l 242 868 l 242 542 l 694 542 l 694 440 l 242 440 l 242 0 l 125 0 z "},"G":{"ha":833,"x_min":78,"x_max":725,"o":"m 617 129 l 610 129 q 581 75 597 101 q 538 28 564 49 q 476 -4 513 8 q 390 -17 440 -17 q 155 111 232 -17 q 78 478 78 239 q 163 857 78 728 q 424 986 247 986 q 542 968 492 986 q 627 919 592 950 q 686 851 663 889 q 725 774 710 813 l 625 728 q 597 788 613 760 q 558 838 581 817 q 503 872 535 860 q 428 885 471 885 q 256 797 311 885 q 201 564 201 710 l 201 414 q 213 280 201 340 q 249 175 224 219 q 316 106 275 131 q 417 82 357 82 q 564 139 511 82 q 617 286 617 196 l 617 386 l 413 386 l 413 479 l 725 479 l 725 0 l 617 0 l 617 129 z "},"H":{"ha":833,"x_min":111,"x_max":722,"o":"m 606 440 l 228 440 l 228 0 l 111 0 l 111 969 l 228 969 l 228 542 l 606 542 l 606 969 l 722 969 l 722 0 l 606 0 l 606 440 z "},"I":{"ha":833,"x_min":117,"x_max":717,"o":"m 117 0 l 117 93 l 358 93 l 358 876 l 117 876 l 117 969 l 717 969 l 717 876 l 475 876 l 475 93 l 717 93 l 717 0 l 117 0 z "},"J":{"ha":833,"x_min":103,"x_max":667,"o":"m 667 969 l 667 251 q 646 140 667 190 q 587 56 625 90 q 496 2 549 21 q 381 -17 443 -17 q 197 41 269 -17 q 103 203 125 99 l 214 226 q 233 172 221 197 q 265 127 244 146 q 314 97 285 108 q 383 86 343 86 q 506 131 463 86 q 550 272 550 176 l 550 868 l 200 868 l 200 969 l 667 969 z "},"K":{"ha":833,"x_min":118,"x_max":803,"o":"m 374 475 l 235 311 l 235 0 l 118 0 l 118 969 l 235 969 l 235 464 l 239 464 l 367 625 l 653 969 l 793 969 l 453 561 l 803 0 l 667 0 l 374 475 z "},"L":{"ha":833,"x_min":167,"x_max":743,"o":"m 167 0 l 167 969 l 283 969 l 283 101 l 743 101 l 743 0 l 167 0 z "},"M":{"ha":833,"x_min":94,"x_max":739,"o":"m 632 486 l 632 793 l 621 793 l 417 294 l 213 793 l 201 793 l 201 486 l 201 0 l 94 0 l 94 969 l 244 969 l 415 542 l 424 542 l 594 969 l 739 969 l 739 0 l 632 0 l 632 486 z "},"N":{"ha":833,"x_min":111,"x_max":722,"o":"m 226 821 l 217 821 l 217 0 l 111 0 l 111 969 l 276 969 l 607 157 l 617 157 l 617 969 l 722 969 l 722 0 l 557 0 l 226 821 z "},"O":{"ha":833,"x_min":78,"x_max":756,"o":"m 417 -17 q 264 17 328 -17 q 158 115 200 51 q 97 272 117 179 q 78 485 78 365 q 97 697 78 603 q 158 854 117 790 q 264 952 200 918 q 417 986 328 986 q 569 952 506 986 q 675 854 633 918 q 736 697 717 790 q 756 485 756 603 q 736 272 756 365 q 675 115 717 179 q 569 17 633 51 q 417 -17 506 -17 m 417 85 q 515 108 475 85 q 582 172 556 131 q 620 273 608 214 q 632 406 632 332 l 632 564 q 620 696 632 636 q 582 797 608 756 q 515 862 556 839 q 417 885 475 885 q 318 862 358 885 q 251 797 278 839 q 213 696 225 756 q 201 564 201 636 l 201 406 q 213 273 201 332 q 251 172 225 214 q 318 108 278 131 q 417 85 358 85 z "},"P":{"ha":833,"x_min":125,"x_max":754,"o":"m 125 0 l 125 969 l 478 969 q 683 896 613 969 q 754 690 754 822 q 683 485 754 558 q 478 411 613 411 l 242 411 l 242 0 l 125 0 m 242 513 l 475 513 q 590 549 549 513 q 631 654 631 586 l 631 726 q 590 831 631 794 q 475 868 549 868 l 242 868 l 242 513 z "},"Q":{"ha":833,"x_min":78,"x_max":756,"o":"m 682 -228 l 519 -228 q 399 -182 438 -228 q 361 -64 361 -136 l 361 -12 q 234 35 288 -3 q 146 137 181 74 q 94 288 111 200 q 78 485 78 376 q 97 697 78 603 q 158 854 117 790 q 264 952 200 918 q 417 986 328 986 q 569 952 506 986 q 675 854 633 918 q 736 697 717 790 q 756 485 756 603 q 688 137 756 267 q 472 -12 619 7 l 472 -133 l 682 -133 l 682 -228 m 417 85 q 515 108 475 85 q 582 172 556 131 q 620 273 608 214 q 632 406 632 332 l 632 564 q 620 696 632 636 q 582 797 608 756 q 515 862 556 839 q 417 885 475 885 q 318 862 358 885 q 251 797 278 839 q 213 696 225 756 q 201 564 201 636 l 201 406 q 213 273 201 332 q 251 172 225 214 q 318 108 278 131 q 417 85 358 85 z "},"R":{"ha":833,"x_min":125,"x_max":763,"o":"m 242 0 l 125 0 l 125 969 l 478 969 q 683 896 613 969 q 754 690 754 822 q 693 501 754 572 q 515 419 632 431 l 763 0 l 632 0 l 396 414 l 242 414 l 242 0 m 475 513 q 590 549 549 513 q 631 654 631 586 l 631 726 q 590 831 631 794 q 475 868 549 868 l 242 868 l 242 513 l 475 513 z "},"S":{"ha":833,"x_min":63,"x_max":753,"o":"m 414 -17 q 200 31 283 -17 q 63 154 117 79 l 147 224 q 267 118 204 153 q 418 83 331 83 q 579 132 524 83 q 635 268 635 181 q 594 378 635 339 q 454 435 554 418 l 346 453 q 227 490 275 465 q 150 551 179 515 q 108 628 121 586 q 96 717 96 671 q 183 918 96 850 q 419 986 271 986 q 616 947 536 986 q 744 838 696 908 l 663 767 q 565 853 622 819 q 418 886 508 886 q 267 844 319 886 q 214 719 214 803 q 253 613 214 654 q 396 554 293 572 l 500 536 q 619 499 571 524 q 698 439 668 474 q 740 361 728 404 q 753 271 753 318 q 665 60 753 136 q 414 -17 576 -17 z "},"T":{"ha":833,"x_min":35,"x_max":799,"o":"m 475 868 l 475 0 l 358 0 l 358 868 l 35 868 l 35 969 l 799 969 l 799 868 l 475 868 z "},"U":{"ha":833,"x_min":111,"x_max":722,"o":"m 228 969 l 228 388 q 232 261 228 317 q 254 166 236 206 q 310 106 272 126 q 417 85 349 85 q 523 106 485 85 q 579 166 561 126 q 601 261 597 206 q 606 388 606 317 l 606 969 l 722 969 l 722 415 q 712 226 722 307 q 669 92 701 146 q 576 10 636 38 q 417 -17 515 -17 q 258 10 318 -17 q 165 92 197 38 q 122 226 132 146 q 111 415 111 307 l 111 969 l 228 969 z "},"V":{"ha":833,"x_min":50,"x_max":783,"o":"m 338 0 l 50 969 l 174 969 l 311 485 l 415 118 l 422 118 l 526 485 l 664 969 l 783 969 l 496 0 l 338 0 z "},"W":{"ha":833,"x_min":49,"x_max":785,"o":"m 125 0 l 49 969 l 153 969 l 193 414 l 214 121 l 225 121 l 353 717 l 483 717 l 611 121 l 622 121 l 643 414 l 683 969 l 785 969 l 708 0 l 540 0 l 422 579 l 411 579 l 293 0 l 125 0 z "},"X":{"ha":833,"x_min":36,"x_max":799,"o":"m 799 0 l 667 0 l 551 193 l 424 404 l 418 404 l 286 193 l 164 0 l 36 0 l 353 494 l 54 969 l 186 969 l 299 782 l 419 586 l 425 586 l 544 782 l 661 969 l 789 969 l 489 496 l 799 0 z "},"Y":{"ha":833,"x_min":24,"x_max":810,"o":"m 358 0 l 358 381 l 24 969 l 157 969 l 296 717 l 414 496 l 419 496 l 540 717 l 679 969 l 810 969 l 475 381 l 475 0 l 358 0 z "},"Z":{"ha":833,"x_min":67,"x_max":767,"o":"m 767 0 l 67 0 l 67 104 l 615 868 l 90 868 l 90 969 l 743 969 l 743 865 l 193 101 l 767 101 l 767 0 z "},"&":{"ha":833,"x_min":35,"x_max":794,"o":"m 301 -17 q 188 4 238 -17 q 105 62 139 25 q 53 147 71 99 q 35 251 35 196 q 43 326 35 288 q 72 402 51 365 q 127 473 93 439 q 214 533 161 507 q 149 636 175 583 q 124 751 124 689 q 144 847 124 804 q 198 922 164 890 q 278 969 232 953 q 375 986 324 986 q 459 973 421 986 q 526 939 497 960 q 576 892 556 918 q 606 839 596 865 l 514 792 q 460 863 496 835 q 369 892 424 892 q 270 853 307 892 q 233 756 233 815 l 233 744 q 239 701 233 722 q 256 658 244 681 q 287 608 268 635 q 332 549 306 582 l 457 394 l 558 269 l 565 269 q 578 393 575 324 q 583 529 581 463 l 779 529 l 779 436 l 675 436 q 667 374 671 403 q 657 317 663 344 q 644 260 651 289 q 625 200 638 232 l 794 0 l 663 0 l 542 143 l 535 143 q 456 27 515 71 q 301 -17 396 -17 m 331 82 q 436 107 390 82 q 508 176 482 132 l 267 468 q 176 377 203 428 q 150 267 150 326 l 150 246 q 200 126 150 171 q 331 82 250 82 z "},"@":{"ha":833,"x_min":86,"x_max":729,"o":"m 631 -156 l 460 -156 q 283 -120 354 -156 q 167 -13 211 -85 q 105 165 124 58 q 86 417 86 272 q 108 687 86 578 q 171 863 129 796 q 274 958 213 929 q 418 986 336 986 q 560 960 501 986 q 657 888 619 933 q 712 778 694 842 q 729 643 729 715 l 729 126 l 631 126 l 631 206 l 624 206 q 578 140 610 169 q 485 110 546 110 q 350 181 400 110 q 300 407 300 253 q 350 633 300 561 q 485 706 400 706 q 538 697 515 706 q 578 675 561 689 q 606 644 594 661 q 624 610 617 628 l 631 610 l 631 643 q 581 829 631 761 q 421 897 532 897 q 244 802 297 897 q 190 497 190 707 l 190 318 q 201 167 190 238 q 242 45 213 97 q 324 -37 272 -7 q 460 -67 376 -67 l 631 -67 l 631 -156 m 521 193 q 601 221 571 193 q 631 301 631 249 l 631 514 q 601 594 631 567 q 521 622 571 622 q 433 583 463 622 q 403 450 403 543 l 403 365 q 433 233 403 272 q 521 193 463 193 z "},"-":{"ha":833,"x_min":215,"x_max":618,"o":"m 215 364 l 215 481 l 618 481 l 618 364 l 215 364 z "},"­":{"ha":833,"x_min":215,"x_max":618,"o":"m 215 364 l 215 481 l 618 481 l 618 364 l 215 364 z "},"–":{"ha":833,"x_min":83,"x_max":750,"o":"m 83 371 l 83 474 l 750 474 l 750 371 l 83 371 z "},"—":{"ha":833,"x_min":0,"x_max":833,"o":"m 0 371 l 0 474 l 833 474 l 833 371 l 0 371 z "},"_":{"ha":833,"x_min":83,"x_max":750,"o":"m 83 -235 l 83 -132 l 750 -132 l 750 -235 l 83 -235 z "},".":{"ha":833,"x_min":314,"x_max":519,"o":"m 417 -12 q 337 11 360 -12 q 314 71 314 35 l 314 96 q 337 156 314 132 q 417 179 360 179 q 497 156 474 179 q 519 96 519 132 l 519 71 q 497 11 519 35 q 417 -12 474 -12 z "},"…":{"ha":833,"x_min":61,"x_max":772,"o":"m 149 -6 q 81 15 100 -6 q 61 65 61 35 l 61 106 q 81 156 61 136 q 149 176 100 176 q 217 156 197 176 q 236 106 236 136 l 236 65 q 217 15 236 35 q 149 -6 197 -6 m 417 -6 q 349 15 368 -6 q 329 65 329 35 l 329 106 q 349 156 329 136 q 417 176 368 176 q 485 156 465 176 q 504 106 504 136 l 504 65 q 485 15 504 35 q 417 -6 465 -6 m 685 -6 q 617 15 636 -6 q 597 65 597 35 l 597 106 q 617 156 597 136 q 685 176 636 176 q 753 156 733 176 q 772 106 772 136 l 772 65 q 753 15 772 35 q 685 -6 733 -6 z "},":":{"ha":833,"x_min":314,"x_max":519,"o":"m 417 -12 q 337 11 360 -12 q 314 71 314 35 l 314 96 q 337 156 314 132 q 417 179 360 179 q 497 156 474 179 q 519 96 519 132 l 519 71 q 497 11 519 35 q 417 -12 474 -12 m 417 538 q 337 561 360 538 q 314 621 314 585 l 314 646 q 337 706 314 682 q 417 729 360 729 q 497 706 474 729 q 519 646 519 682 l 519 621 q 497 561 519 585 q 417 538 474 538 z "},",":{"ha":833,"x_min":283,"x_max":536,"o":"m 357 189 l 536 189 l 376 -196 l 283 -196 l 357 189 z "},";":{"ha":833,"x_min":283,"x_max":536,"o":"m 357 189 l 536 189 l 376 -196 l 283 -196 l 357 189 m 417 538 q 337 561 360 538 q 314 621 314 585 l 314 646 q 337 706 314 682 q 417 729 360 729 q 497 706 474 729 q 519 646 519 682 l 519 621 q 497 561 519 585 q 417 538 474 538 z "},"'":{"ha":833,"x_min":364,"x_max":469,"o":"m 364 643 l 364 1028 l 469 1028 l 469 643 l 364 643 z "},"\"":{"ha":833,"x_min":242,"x_max":593,"o":"m 242 643 l 242 1028 l 347 1028 l 347 643 l 242 643 m 488 643 l 488 1028 l 593 1028 l 593 643 l 488 643 z "},"‘":{"ha":833,"x_min":271,"x_max":524,"o":"m 431 1028 l 524 1028 l 450 643 l 271 643 l 431 1028 z "},"’":{"ha":833,"x_min":310,"x_max":563,"o":"m 383 1028 l 563 1028 l 403 643 l 310 643 l 383 1028 z "},"“":{"ha":833,"x_min":114,"x_max":699,"o":"m 274 1028 l 367 1028 l 293 643 l 114 643 l 274 1028 m 606 1028 l 699 1028 l 625 643 l 446 643 l 606 1028 z "},"”":{"ha":833,"x_min":153,"x_max":738,"o":"m 226 1028 l 406 1028 l 246 643 l 153 643 l 226 1028 m 558 1028 l 738 1028 l 578 643 l 485 643 l 558 1028 z "},"‚":{"ha":833,"x_min":283,"x_max":536,"o":"m 357 189 l 536 189 l 376 -196 l 283 -196 l 357 189 z "},"„":{"ha":833,"x_min":153,"x_max":738,"o":"m 226 189 l 406 189 l 246 -196 l 153 -196 l 226 189 m 558 189 l 738 189 l 578 -196 l 485 -196 l 558 189 z "},"‹":{"ha":833,"x_min":236,"x_max":557,"o":"m 522 78 l 236 319 l 236 431 l 522 672 l 557 593 l 351 375 l 557 157 l 522 78 z "},"›":{"ha":833,"x_min":276,"x_max":597,"o":"m 276 157 l 482 375 l 276 593 l 311 672 l 597 431 l 597 319 l 311 78 l 276 157 z "},"«":{"ha":833,"x_min":103,"x_max":742,"o":"m 389 78 l 103 319 l 103 431 l 389 672 l 424 593 l 218 375 l 424 157 l 389 78 m 707 78 l 421 319 l 421 431 l 707 672 l 742 593 l 536 375 l 742 157 l 707 78 z "},"»":{"ha":833,"x_min":93,"x_max":732,"o":"m 93 157 l 299 375 l 93 593 l 128 672 l 414 431 l 414 319 l 128 78 l 93 157 m 411 157 l 617 375 l 411 593 l 446 672 l 732 431 l 732 319 l 446 78 l 411 157 z "},"¡":{"ha":833,"x_min":314,"x_max":519,"o":"m 356 -253 l 356 29 l 394 393 l 439 393 l 478 29 l 478 -253 l 356 -253 m 417 538 q 337 561 360 538 q 314 621 314 585 l 314 646 q 337 706 314 682 q 417 729 360 729 q 497 706 474 729 q 519 646 519 682 l 519 621 q 497 561 519 585 q 417 538 474 538 z "},"!":{"ha":833,"x_min":314,"x_max":519,"o":"m 394 324 l 356 688 l 356 969 l 478 969 l 478 688 l 439 324 l 394 324 m 417 -12 q 337 11 360 -12 q 314 71 314 35 l 314 96 q 337 156 314 132 q 417 179 360 179 q 497 156 474 179 q 519 96 519 132 l 519 71 q 497 11 519 35 q 417 -12 474 -12 z "},"¿":{"ha":833,"x_min":125,"x_max":726,"o":"m 415 -269 q 295 -251 349 -269 q 204 -198 242 -232 q 146 -115 167 -164 q 125 -7 125 -67 q 149 108 125 58 q 210 192 172 157 q 295 248 247 226 q 392 278 343 269 l 392 418 l 501 418 l 501 200 q 314 148 382 194 q 246 7 246 101 l 246 -12 q 292 -129 246 -90 q 419 -168 339 -168 q 553 -122 503 -168 q 622 -6 603 -76 l 726 -44 q 688 -131 713 -90 q 624 -203 663 -172 q 534 -251 586 -233 q 415 -269 482 -269 m 442 538 q 362 561 385 538 q 339 621 339 585 l 339 646 q 362 706 339 682 q 442 729 385 729 q 522 706 499 729 q 544 646 544 682 l 544 621 q 522 561 544 585 q 442 538 499 538 z "},"?":{"ha":833,"x_min":107,"x_max":708,"o":"m 332 299 l 332 517 q 519 569 451 522 q 588 710 588 615 l 588 729 q 541 846 588 807 q 414 885 494 885 q 281 839 331 885 q 211 722 231 793 l 107 761 q 146 848 121 807 q 209 919 171 889 q 299 968 247 950 q 418 986 351 986 q 538 967 485 986 q 629 915 592 949 q 688 832 667 881 q 708 724 708 783 q 685 609 708 658 q 624 525 661 560 q 538 469 586 490 q 442 439 490 447 l 442 299 l 332 299 m 392 -12 q 312 11 335 -12 q 289 71 289 35 l 289 96 q 312 156 289 132 q 392 179 335 179 q 472 156 449 179 q 494 96 494 132 l 494 71 q 472 11 494 35 q 392 -12 449 -12 z "},"(":{"ha":833,"x_min":285,"x_max":686,"o":"m 285 432 q 308 627 285 533 q 370 801 331 721 q 463 947 410 882 q 574 1056 515 1011 l 686 1056 q 572 949 625 1010 q 477 817 518 889 q 413 663 436 746 q 389 492 389 581 l 389 372 q 413 201 389 283 q 477 47 436 118 q 572 -85 518 -25 q 686 -192 625 -146 l 574 -192 q 463 -83 515 -149 q 370 63 410 -18 q 308 237 331 143 q 285 432 285 331 z "},")":{"ha":833,"x_min":147,"x_max":549,"o":"m 549 432 q 526 237 549 331 q 463 63 503 143 q 371 -83 424 -18 q 260 -192 318 -149 l 147 -192 q 261 -85 207 -146 q 356 47 315 -25 q 421 201 397 118 q 444 372 444 283 l 444 492 q 421 663 444 581 q 356 817 397 746 q 261 949 315 889 q 147 1056 207 1010 l 260 1056 q 371 947 318 1011 q 463 801 424 882 q 526 627 503 721 q 549 432 549 533 z "},"[":{"ha":833,"x_min":313,"x_max":701,"o":"m 313 -192 l 313 1056 l 701 1056 l 701 969 l 408 969 l 408 -106 l 701 -106 l 701 -192 l 313 -192 z "},"]":{"ha":833,"x_min":132,"x_max":521,"o":"m 521 1056 l 521 -192 l 132 -192 l 132 -106 l 425 -106 l 425 969 l 132 969 l 132 1056 l 521 1056 z "},"{":{"ha":833,"x_min":146,"x_max":688,"o":"m 443 -192 q 356 -159 385 -192 q 326 -78 326 -126 l 326 10 q 334 75 326 47 q 353 125 342 103 q 378 165 364 147 q 404 197 392 182 q 437 245 428 225 q 446 288 446 265 q 397 365 446 340 q 254 389 349 389 l 146 389 l 146 475 l 254 475 q 397 499 349 475 q 446 576 446 524 q 437 619 446 599 q 404 667 428 639 q 378 699 392 682 q 353 738 364 717 q 334 788 342 760 q 326 854 326 817 l 326 942 q 356 1023 326 990 q 443 1056 385 1056 l 688 1056 l 688 969 l 422 969 l 422 863 q 439 775 422 806 q 478 715 456 744 q 522 652 501 685 q 543 575 543 619 q 502 481 543 517 q 390 435 461 444 l 390 429 q 502 383 461 419 q 543 289 543 347 q 522 212 543 244 q 478 149 501 179 q 439 89 456 119 q 422 1 422 58 l 422 -106 l 688 -106 l 688 -192 l 443 -192 z "},"}":{"ha":833,"x_min":146,"x_max":688,"o":"m 390 1056 q 478 1023 449 1056 q 507 942 507 990 l 507 854 q 499 788 507 817 q 481 738 492 760 q 456 699 469 717 q 429 667 442 682 q 397 619 406 639 q 388 576 388 599 q 436 499 388 524 q 579 475 485 475 l 688 475 l 688 389 l 579 389 q 436 365 485 389 q 388 288 388 340 q 397 245 388 265 q 429 197 406 225 q 456 165 442 182 q 481 125 469 147 q 499 75 492 103 q 507 10 507 47 l 507 -78 q 478 -159 507 -126 q 390 -192 449 -192 l 146 -192 l 146 -106 l 411 -106 l 411 1 q 394 89 411 58 q 356 149 378 119 q 311 212 332 179 q 290 289 290 244 q 331 383 290 347 q 443 429 372 419 l 443 435 q 331 481 372 444 q 290 575 290 517 q 311 652 290 619 q 356 715 332 685 q 394 775 378 744 q 411 863 411 806 l 411 969 l 146 969 l 146 1056 l 390 1056 z "},"/":{"ha":833,"x_min":125,"x_max":708,"o":"m 125 -192 l 608 1056 l 708 1056 l 225 -192 l 125 -192 z "},"\\":{"ha":833,"x_min":125,"x_max":708,"o":"m 608 -192 l 125 1056 l 225 1056 l 708 -192 l 608 -192 z "},"⁄":{"ha":833,"x_min":25,"x_max":808,"o":"m 708 969 l 808 969 l 586 553 l 486 553 l 708 969 m 247 417 l 347 417 l 125 0 l 25 0 l 247 417 z "},"%":{"ha":833,"x_min":25,"x_max":808,"o":"m 235 494 q 85 556 143 494 q 28 740 28 618 q 85 924 28 863 q 235 986 143 986 q 384 924 326 986 q 442 740 442 863 q 384 556 442 618 q 235 494 326 494 m 235 569 q 316 604 285 569 q 347 706 347 639 l 347 775 q 316 876 347 842 q 235 911 285 911 q 153 876 185 911 q 122 775 122 842 l 122 706 q 153 604 122 639 q 235 569 185 569 m 708 969 l 808 969 l 586 553 l 486 553 l 708 969 m 247 417 l 347 417 l 125 0 l 25 0 l 247 417 m 599 -17 q 449 45 507 -17 q 392 229 392 107 q 449 413 392 351 q 599 475 507 475 q 748 413 690 475 q 806 229 806 351 q 748 45 806 107 q 599 -17 690 -17 m 599 58 q 680 93 649 58 q 711 194 711 128 l 711 264 q 680 365 711 331 q 599 400 649 400 q 517 365 549 400 q 486 264 486 331 l 486 194 q 517 93 486 128 q 599 58 549 58 z "},"‰":{"ha":833,"x_min":0,"x_max":833,"o":"m 193 556 q 51 609 103 556 q 0 771 0 663 q 51 932 0 878 q 193 986 101 986 q 335 933 283 986 q 386 771 386 879 q 335 610 386 664 q 193 556 285 556 m 193 625 q 266 656 240 625 q 292 738 292 688 l 292 804 q 266 885 292 854 q 193 917 240 917 q 120 885 146 917 q 94 804 94 854 l 94 738 q 120 656 94 688 q 193 625 146 625 m 85 456 l 710 700 l 738 631 l 113 386 l 85 456 m 344 -17 q 206 38 257 -17 q 156 199 156 92 q 206 360 156 306 q 344 414 257 414 q 492 344 438 414 l 499 344 q 644 414 550 414 q 783 360 732 414 q 833 199 833 306 q 783 38 833 92 q 644 -17 732 -17 q 499 53 550 -17 l 490 53 q 428 1 465 19 q 344 -17 392 -17 m 349 53 q 422 84 396 53 q 447 165 447 115 l 447 232 q 422 313 447 282 q 349 344 396 344 q 276 313 301 344 q 250 232 250 282 l 250 165 q 276 84 250 115 q 349 53 301 53 m 640 53 q 713 84 688 53 q 739 165 739 115 l 739 232 q 713 313 739 282 q 640 344 688 344 q 567 313 593 344 q 542 232 542 282 l 542 165 q 567 84 542 115 q 640 53 593 53 z "},"|":{"ha":833,"x_min":368,"x_max":465,"o":"m 368 -192 l 368 1056 l 465 1056 l 465 -192 l 368 -192 z "},"¦":{"ha":833,"x_min":368,"x_max":465,"o":"m 368 557 l 368 1056 l 465 1056 l 465 557 l 368 557 m 368 -192 l 368 307 l 465 307 l 465 -192 l 368 -192 z "},"§":{"ha":833,"x_min":113,"x_max":726,"o":"m 676 4 q 656 -86 676 -46 q 599 -156 636 -126 q 511 -200 563 -185 q 397 -215 460 -215 q 272 -197 333 -215 q 161 -137 210 -179 l 226 -60 q 303 -103 260 -87 q 399 -119 346 -119 q 522 -87 478 -119 q 567 3 567 -54 q 528 87 567 56 q 419 138 490 118 l 331 163 q 164 251 215 194 q 113 378 113 307 q 153 496 113 444 q 268 576 193 547 l 268 583 q 188 664 214 617 q 163 767 163 711 q 183 857 163 817 q 240 926 203 897 q 328 971 276 956 q 442 986 379 986 q 567 968 506 986 q 678 908 629 950 l 613 831 q 536 874 579 858 q 440 890 493 890 q 317 858 361 890 q 272 768 272 825 q 310 684 272 715 q 419 633 349 653 l 508 608 q 675 520 624 576 q 726 393 726 464 q 686 275 726 326 q 571 194 646 224 l 571 188 q 651 107 625 154 q 676 4 676 60 m 617 365 q 576 461 617 425 q 450 521 536 497 l 363 544 q 315 560 339 550 q 247 492 272 531 q 222 406 222 454 q 263 310 222 346 q 389 250 303 274 l 476 226 q 524 211 500 221 q 592 278 567 240 q 617 365 617 317 z "},"¶":{"ha":833,"x_min":63,"x_max":700,"o":"m 375 342 q 253 365 310 342 q 154 431 197 389 q 87 530 111 472 q 63 656 63 588 q 87 781 63 724 q 154 881 111 839 q 253 946 197 922 q 375 969 310 969 l 700 969 l 700 -207 l 600 -207 l 600 881 l 475 881 l 475 -207 l 375 -207 l 375 342 z "},"©":{"ha":833,"x_min":0,"x_max":833,"o":"m 417 25 q 253 57 329 25 q 122 149 178 89 q 33 293 65 208 q 0 485 0 378 q 33 676 0 590 q 122 821 65 761 q 253 913 178 881 q 417 944 329 944 q 580 913 504 944 q 712 821 656 881 q 801 676 768 761 q 833 485 833 590 q 801 293 833 378 q 712 149 768 208 q 580 57 656 89 q 417 25 504 25 m 417 101 q 548 128 488 101 q 652 201 608 154 q 721 310 696 247 q 746 443 746 372 l 746 526 q 721 660 746 597 q 652 769 696 722 q 548 842 608 815 q 417 868 488 868 q 285 842 346 868 q 181 769 225 815 q 113 660 138 722 q 88 526 88 597 l 88 443 q 113 310 88 372 q 181 201 138 247 q 285 128 225 154 q 417 101 346 101 m 424 238 q 266 305 322 238 q 210 485 210 372 q 267 665 210 599 q 424 732 324 732 q 533 701 490 732 q 599 621 575 671 l 525 581 q 486 633 510 614 q 424 653 463 653 q 340 617 369 653 q 310 525 310 582 l 310 446 q 339 352 310 388 q 425 317 368 317 q 492 338 467 317 q 536 393 517 358 l 606 350 q 537 269 582 301 q 424 238 492 238 z "},"®":{"ha":833,"x_min":163,"x_max":671,"o":"m 417 481 q 317 500 364 481 q 236 553 271 519 q 182 633 201 586 q 163 733 163 679 q 182 834 163 788 q 236 914 201 881 q 317 967 271 947 q 417 986 364 986 q 516 967 469 986 q 597 914 563 947 q 651 834 631 881 q 671 733 671 788 q 651 633 671 679 q 597 553 631 586 q 516 500 563 519 q 417 481 469 481 m 417 538 q 491 551 457 538 q 550 588 525 564 q 590 644 575 611 q 604 719 604 678 l 604 747 q 590 822 604 789 q 550 879 575 856 q 491 916 525 903 q 417 929 457 929 q 342 916 376 929 q 283 879 308 903 q 244 822 258 856 q 229 747 229 789 l 229 719 q 244 644 229 678 q 283 588 258 611 q 342 551 308 564 q 417 538 376 538 m 375 606 l 319 606 l 319 863 l 438 863 q 498 841 476 863 q 519 783 519 819 q 468 711 519 729 l 532 606 l 469 606 l 415 703 l 375 703 l 375 606 m 425 743 q 461 776 461 743 l 461 786 q 425 819 461 819 l 375 819 l 375 743 l 425 743 z "},"™":{"ha":833,"x_min":22,"x_max":753,"o":"m 142 582 l 142 906 l 22 906 l 22 969 l 333 969 l 333 906 l 214 906 l 214 582 l 142 582 m 392 582 l 392 969 l 482 969 l 572 783 l 576 783 l 667 969 l 753 969 l 753 582 l 686 582 l 686 758 l 688 874 l 682 874 l 572 657 l 463 874 l 457 874 l 458 758 l 458 582 l 392 582 z "},"ª":{"ha":833,"x_min":192,"x_max":643,"o":"m 596 496 q 531 515 550 496 q 508 569 511 535 l 503 569 q 449 511 488 538 q 346 485 411 485 q 231 522 271 485 q 192 622 192 560 q 247 732 192 697 q 401 767 301 767 l 503 767 l 503 806 q 396 914 503 914 q 315 894 347 914 q 267 842 282 874 l 208 889 q 235 924 218 907 q 276 956 253 942 q 331 978 300 969 q 400 986 361 986 q 540 940 489 986 q 590 810 590 894 l 590 574 l 643 574 l 643 496 l 596 496 m 399 703 q 310 686 340 703 q 279 638 279 669 l 279 624 q 364 556 279 556 q 461 580 419 556 q 503 646 503 604 l 503 703 l 399 703 z "},"º":{"ha":833,"x_min":194,"x_max":639,"o":"m 417 485 q 253 551 311 485 q 194 736 194 618 q 253 919 194 853 q 417 986 313 986 q 580 919 521 986 q 639 736 639 853 q 580 551 639 618 q 417 485 521 485 m 417 558 q 511 597 479 558 q 543 694 543 635 l 543 776 q 511 874 543 836 q 417 913 479 913 q 322 874 354 913 q 290 776 290 836 l 290 694 q 322 597 290 635 q 417 558 354 558 z "},"°":{"ha":833,"x_min":179,"x_max":654,"o":"m 417 511 q 324 529 367 511 q 248 579 281 547 q 197 655 215 611 q 179 749 179 699 q 197 842 179 799 q 248 918 215 886 q 324 968 281 950 q 417 986 367 986 q 510 968 467 986 q 585 918 553 950 q 636 842 618 886 q 654 749 654 799 q 636 655 654 699 q 585 579 618 611 q 510 529 553 547 q 417 511 467 511 m 417 600 q 519 643 481 600 q 557 749 557 686 q 519 854 557 811 q 417 897 481 897 q 315 854 353 897 q 276 749 276 811 q 315 643 276 686 q 417 600 353 600 z "},"*":{"ha":833,"x_min":60,"x_max":774,"o":"m 243 100 l 164 158 l 336 394 l 60 486 l 89 578 l 365 489 l 365 789 l 468 789 l 468 489 l 744 578 l 774 486 l 497 394 l 669 158 l 590 100 l 417 339 l 243 100 z "},"†":{"ha":833,"x_min":97,"x_max":736,"o":"m 368 -278 l 368 628 l 97 628 l 97 717 l 368 717 l 368 1028 l 465 1028 l 465 717 l 736 717 l 736 628 l 465 628 l 465 -278 l 368 -278 z "},"‡":{"ha":833,"x_min":97,"x_max":736,"o":"m 368 -278 l 368 33 l 97 33 l 97 122 l 368 122 l 368 628 l 97 628 l 97 717 l 368 717 l 368 1028 l 465 1028 l 465 717 l 736 717 l 736 628 l 465 628 l 465 122 l 736 122 l 736 33 l 465 33 l 465 -278 l 368 -278 z "},"#":{"ha":833,"x_min":22,"x_max":811,"o":"m 206 300 l 22 300 l 22 392 l 222 392 l 254 578 l 72 578 l 72 669 l 271 669 l 324 969 l 425 969 l 254 0 l 153 0 l 206 300 m 579 969 l 681 969 l 628 669 l 811 669 l 811 578 l 611 578 l 579 392 l 761 392 l 761 300 l 563 300 l 510 0 l 408 0 l 579 969 z "},"^":{"ha":833,"x_min":63,"x_max":771,"o":"m 679 399 l 417 874 l 411 874 l 149 399 l 63 442 l 354 969 l 479 969 l 771 442 l 679 399 z "},"~":{"ha":833,"x_min":72,"x_max":761,"o":"m 567 329 q 485 342 524 329 q 410 374 446 356 q 337 408 374 392 q 265 425 300 425 q 200 398 225 425 q 157 329 175 371 l 72 364 q 140 474 92 431 q 267 518 189 518 q 349 505 310 518 q 424 474 388 492 q 497 439 460 456 q 568 422 533 422 q 633 449 608 422 q 676 518 658 476 l 761 483 q 693 373 742 417 q 567 329 644 329 z "},"+":{"ha":833,"x_min":86,"x_max":747,"o":"m 364 86 l 364 376 l 86 376 l 86 471 l 364 471 l 364 761 l 469 761 l 469 471 l 747 471 l 747 376 l 469 376 l 469 86 l 364 86 z "},"−":{"ha":833,"x_min":86,"x_max":747,"o":"m 86 376 l 86 471 l 747 471 l 747 376 l 86 376 z "},"±":{"ha":833,"x_min":86,"x_max":747,"o":"m 364 211 l 364 488 l 86 488 l 86 582 l 364 582 l 364 858 l 469 858 l 469 582 l 747 582 l 747 488 l 469 488 l 469 211 l 364 211 m 86 0 l 86 94 l 747 94 l 747 0 l 86 0 z "},"×":{"ha":833,"x_min":122,"x_max":711,"o":"m 417 356 l 190 129 l 122 197 l 349 424 l 122 650 l 190 718 l 417 492 l 643 718 l 711 650 l 485 424 l 711 197 l 643 129 l 417 356 z "},"÷":{"ha":833,"x_min":86,"x_max":747,"o":"m 86 376 l 86 471 l 747 471 l 747 376 l 86 376 m 417 72 q 349 92 368 72 q 331 139 331 111 l 331 169 q 349 217 331 197 q 417 236 368 236 q 484 217 465 236 q 503 169 503 197 l 503 139 q 484 92 503 111 q 417 72 465 72 m 417 611 q 349 631 368 611 q 331 678 331 650 l 331 708 q 349 756 331 736 q 417 775 368 775 q 484 756 465 775 q 503 708 503 736 l 503 678 q 484 631 503 650 q 417 611 465 611 z "},"=":{"ha":833,"x_min":86,"x_max":747,"o":"m 86 517 l 86 611 l 747 611 l 747 517 l 86 517 m 86 239 l 86 333 l 747 333 l 747 239 l 86 239 z "},"≈":{"ha":833,"x_min":72,"x_max":761,"o":"m 567 468 q 485 481 524 468 q 410 513 446 494 q 337 547 374 531 q 265 564 300 564 q 200 537 225 564 q 157 468 175 510 l 72 503 q 140 613 92 569 q 267 657 189 657 q 349 644 310 657 q 424 613 388 631 q 497 578 460 594 q 568 561 533 561 q 633 588 608 561 q 676 657 658 615 l 761 622 q 693 512 742 556 q 567 468 644 468 m 567 193 q 485 206 524 193 q 410 238 446 219 q 337 272 374 256 q 265 289 300 289 q 200 262 225 289 q 157 193 175 235 l 72 228 q 140 338 92 294 q 267 382 189 382 q 349 369 310 382 q 424 338 388 356 q 497 303 460 319 q 568 286 533 286 q 633 313 608 286 q 676 382 658 340 l 761 347 q 693 237 742 281 q 567 193 644 193 z "},"≠":{"ha":833,"x_min":86,"x_max":747,"o":"m 190 100 l 267 239 l 86 239 l 86 333 l 318 333 l 417 517 l 86 517 l 86 611 l 468 611 l 543 750 l 643 750 l 567 611 l 747 611 l 747 517 l 515 517 l 417 333 l 747 333 l 747 239 l 365 239 l 290 100 l 190 100 z "},"<":{"ha":833,"x_min":118,"x_max":715,"o":"m 118 368 l 118 479 l 715 825 l 715 710 l 222 431 l 222 419 l 715 140 l 715 22 l 118 368 z "},">":{"ha":833,"x_min":118,"x_max":715,"o":"m 118 138 l 611 417 l 611 428 l 118 707 l 118 825 l 715 479 l 715 368 l 118 22 l 118 138 z "},"≤":{"ha":833,"x_min":118,"x_max":715,"o":"m 118 0 l 118 94 l 715 94 l 715 0 l 118 0 m 715 713 l 222 501 l 222 492 l 715 282 l 715 168 l 118 433 l 118 557 l 715 824 l 715 713 z "},"≥":{"ha":833,"x_min":118,"x_max":715,"o":"m 118 279 l 611 490 l 611 500 l 118 710 l 118 824 l 715 558 l 715 435 l 118 168 l 118 279 m 118 94 l 715 94 l 715 0 l 118 0 l 118 94 z "},"·":{"ha":833,"x_min":314,"x_max":519,"o":"m 417 326 q 337 350 360 326 q 314 410 314 374 l 314 435 q 337 494 314 471 q 417 518 360 518 q 497 494 474 518 q 519 435 519 471 l 519 410 q 497 350 519 374 q 417 326 474 326 z "},"•":{"ha":833,"x_min":247,"x_max":586,"o":"m 417 258 q 285 300 324 258 q 247 403 247 342 l 247 442 q 285 544 247 503 q 417 586 324 586 q 548 544 510 586 q 586 442 586 503 l 586 403 q 548 300 586 342 q 417 258 510 258 z "},"◊":{"ha":833,"x_min":58,"x_max":776,"o":"m 361 0 l 58 485 l 361 969 l 474 969 l 776 485 l 474 0 l 361 0 m 422 104 l 660 485 l 422 865 l 413 865 l 175 485 l 413 104 l 422 104 z "},"¬":{"ha":833,"x_min":86,"x_max":725,"o":"m 629 108 l 629 376 l 86 376 l 86 471 l 725 471 l 725 108 l 629 108 z "},"√":{"ha":833,"x_min":33,"x_max":794,"o":"m 351 0 l 175 628 l 33 628 l 33 717 l 260 717 l 322 488 l 429 93 l 436 93 l 549 488 l 686 969 l 794 969 l 510 0 l 351 0 z "},"∫":{"ha":833,"x_min":49,"x_max":749,"o":"m 49 -183 l 343 -183 l 343 864 q 381 982 343 936 q 501 1028 419 1028 l 749 1028 l 749 932 l 454 932 l 454 -114 q 416 -232 454 -186 q 296 -278 378 -278 l 49 -278 l 49 -183 z "},"∞":{"ha":833,"x_min":15,"x_max":818,"o":"m 218 175 q 68 240 121 175 q 15 424 15 306 q 72 607 15 542 q 229 672 129 672 q 356 628 304 672 q 439 488 408 585 l 444 488 q 508 626 463 579 q 614 672 554 672 q 765 607 711 672 q 818 424 818 542 q 761 240 818 306 q 604 175 704 175 q 477 219 529 175 q 394 360 425 263 l 389 360 q 324 222 371 268 q 218 175 278 175 m 231 261 q 315 306 278 261 q 374 426 351 350 q 315 544 351 501 q 231 586 278 586 q 151 554 181 586 q 121 461 121 522 l 121 386 q 151 293 121 325 q 231 261 181 261 m 603 261 q 683 293 653 261 q 713 386 713 325 l 713 461 q 683 554 713 522 q 603 586 653 586 q 519 542 556 586 q 460 421 482 497 q 519 303 482 346 q 603 261 556 261 z "},"℮":{"ha":833,"x_min":36,"x_max":797,"o":"m 201 151 q 290 78 235 110 q 417 47 344 47 q 513 61 469 47 q 590 100 556 75 q 651 160 624 125 q 701 236 679 194 l 758 204 q 701 119 733 158 q 628 49 669 79 q 533 1 586 18 q 417 -17 481 -17 q 260 22 331 -17 q 140 126 190 60 q 63 285 90 193 q 36 485 36 376 q 63 685 36 593 q 140 843 90 776 q 260 948 190 910 q 417 986 331 986 q 573 948 503 986 q 693 843 643 910 q 770 685 743 776 q 797 485 797 593 l 201 485 l 201 151 m 632 540 l 632 825 q 542 897 596 868 q 417 925 488 925 q 292 897 346 925 q 201 825 238 868 l 201 540 l 632 540 z "},"ℓ":{"ha":833,"x_min":97,"x_max":708,"o":"m 446 -17 q 278 49 335 -17 q 221 221 221 115 l 221 254 q 183 227 201 239 q 143 203 164 215 l 97 278 q 160 317 128 297 q 221 360 192 336 l 221 771 q 235 898 221 846 q 277 983 250 950 q 342 1030 304 1015 q 426 1044 381 1044 q 572 985 522 1044 q 622 813 622 925 q 547 555 622 675 q 331 310 472 435 l 331 247 q 362 115 331 153 q 451 76 393 76 q 551 115 513 76 q 628 225 589 154 l 708 176 q 669 101 692 136 q 613 40 646 65 q 539 -1 581 14 q 446 -17 497 -17 m 428 951 q 358 915 385 951 q 331 781 331 878 l 331 429 q 470 614 422 522 q 518 799 518 706 l 518 822 q 493 922 518 893 q 428 951 468 951 z "},"№":{"ha":833,"x_min":60,"x_max":818,"o":"m 668 479 q 518 731 518 479 q 668 981 518 981 q 818 731 818 981 q 668 479 818 479 m 60 0 l 60 969 l 236 969 l 307 485 l 360 125 l 368 125 l 368 969 l 463 969 l 463 0 l 286 0 l 215 485 l 163 844 l 154 844 l 154 0 l 60 0 m 668 554 q 719 586 707 554 q 732 678 732 618 l 732 782 q 719 874 732 842 q 668 906 707 906 q 616 874 628 906 q 604 782 604 842 l 604 678 q 616 586 604 618 q 668 554 628 554 m 524 356 l 524 435 l 813 435 l 813 356 l 524 356 z "},"∂":{"ha":833,"x_min":92,"x_max":742,"o":"m 742 378 q 719 202 742 276 q 656 79 697 128 q 555 7 614 31 q 422 -17 496 -17 q 283 8 344 -17 q 178 81 221 33 q 114 194 136 128 q 92 342 92 260 q 114 490 92 424 q 176 603 136 557 q 269 675 215 650 q 388 700 324 700 q 528 660 474 700 q 618 567 583 621 l 624 569 q 558 694 600 636 q 459 801 515 751 q 336 893 403 851 q 197 969 269 935 l 379 969 q 497 891 433 938 q 614 776 560 844 q 705 610 668 707 q 742 378 742 513 m 417 79 q 567 132 510 79 q 624 293 624 185 l 624 390 q 567 551 624 499 q 417 604 510 604 q 267 551 324 604 q 210 390 210 499 l 210 293 q 267 132 210 185 q 417 79 324 79 z "},"¢":{"ha":833,"x_min":117,"x_max":717,"o":"m 388 -158 l 388 -12 q 187 104 257 6 q 117 358 117 203 q 188 613 117 514 q 388 729 258 711 l 388 875 l 474 875 l 474 732 q 621 680 564 725 q 706 568 678 635 l 617 521 q 563 599 599 569 q 472 636 526 629 l 472 81 q 573 119 532 88 q 638 204 614 151 l 717 150 q 628 38 688 83 q 474 -15 568 -8 l 474 -158 l 388 -158 m 236 297 q 275 158 236 215 q 389 85 314 100 l 389 632 q 275 559 314 617 q 236 419 236 501 l 236 297 z "},"€":{"ha":833,"x_min":97,"x_max":747,"o":"m 449 -17 q 184 113 271 -17 q 97 485 97 242 q 184 857 97 728 q 449 986 271 986 q 564 968 515 986 q 647 919 613 950 q 706 851 682 889 q 747 774 729 813 l 650 729 q 621 791 638 763 q 581 841 604 819 q 526 875 558 863 q 449 888 493 888 q 293 822 349 888 q 222 644 238 757 l 539 644 l 539 549 l 218 549 l 218 421 l 539 421 l 539 325 l 222 325 q 293 147 238 213 q 449 82 349 82 q 526 94 493 82 q 581 128 558 107 q 621 178 604 150 q 650 240 638 207 l 747 196 q 706 118 729 156 q 647 50 682 81 q 564 1 613 19 q 449 -17 515 -17 z "},"ƒ":{"ha":833,"x_min":-60,"x_max":847,"o":"m -43 -183 l 250 -183 l 365 514 l 108 514 l 124 608 l 382 608 l 415 813 q 469 927 428 885 q 593 969 511 969 l 847 969 l 831 874 l 536 874 l 492 608 l 749 608 l 733 514 l 476 514 l 371 -121 q 317 -235 358 -193 q 193 -278 275 -278 l -60 -278 l -43 -183 z "},"£":{"ha":833,"x_min":72,"x_max":764,"o":"m 104 0 l 104 146 q 188 217 163 169 q 214 329 214 264 q 212 364 214 347 q 207 397 210 381 l 72 397 l 72 493 l 181 493 q 151 588 165 540 q 136 693 136 635 q 158 811 136 757 q 223 904 181 865 q 326 965 265 943 q 461 986 386 986 q 645 942 572 986 q 764 828 718 899 l 676 765 q 585 853 638 822 q 454 885 533 885 q 309 839 363 885 q 256 686 256 793 q 269 583 256 629 q 297 493 282 538 l 576 493 l 576 397 l 324 397 q 328 343 328 369 q 317 265 328 300 q 290 201 307 229 q 253 151 274 172 q 214 118 233 131 l 214 111 l 747 111 l 747 0 l 104 0 z "},"$":{"ha":833,"x_min":69,"x_max":767,"o":"m 388 -15 q 196 38 272 -8 q 69 154 119 85 l 154 224 q 260 126 204 161 q 389 85 315 92 l 389 447 l 357 453 q 236 491 285 465 q 158 552 188 517 q 117 631 129 588 q 104 722 104 675 q 180 908 104 840 q 388 985 256 975 l 388 1126 l 474 1126 l 474 985 q 640 938 569 978 q 763 828 710 899 l 675 765 q 590 846 638 815 q 472 883 542 876 l 472 543 l 514 536 q 633 499 585 524 q 712 438 682 474 q 754 358 742 403 q 767 265 767 314 q 691 69 767 143 q 474 -15 615 -4 l 474 -157 l 388 -157 l 388 -15 m 217 722 q 256 615 217 654 q 389 557 296 576 l 389 885 q 261 835 306 876 q 217 722 217 794 m 654 264 q 612 378 654 339 q 472 433 569 417 l 472 86 q 607 142 560 96 q 654 264 654 188 z "},"¥":{"ha":833,"x_min":31,"x_max":803,"o":"m 104 96 l 361 96 l 361 354 l 104 354 l 104 450 l 300 450 l 31 969 l 160 969 l 415 450 l 421 450 l 676 969 l 803 969 l 533 450 l 729 450 l 729 354 l 472 354 l 472 96 l 729 96 l 729 0 l 104 0 l 104 96 z "},"฿":{"ha":833,"x_min":122,"x_max":747,"o":"m 453 -157 l 367 -157 l 367 0 l 122 0 l 122 969 l 367 969 l 367 1126 l 453 1126 l 453 969 l 464 969 q 660 901 589 969 q 731 719 731 833 q 686 577 731 626 q 574 506 642 528 l 574 501 q 642 472 610 490 q 697 427 674 454 q 734 364 721 400 q 747 279 747 328 q 728 169 747 221 q 673 81 708 118 q 590 22 638 43 q 486 0 542 0 l 453 0 l 453 -157 m 368 547 l 368 871 l 236 871 l 236 547 l 368 547 m 451 547 q 572 580 531 547 q 614 679 614 613 l 614 736 q 572 837 614 803 q 451 871 531 871 l 451 547 m 368 99 l 368 454 l 236 454 l 236 99 l 368 99 m 451 99 q 584 135 539 99 q 629 246 629 171 l 629 307 q 584 417 629 381 q 451 454 539 454 l 451 99 z "},"₡":{"ha":833,"x_min":97,"x_max":747,"o":"m 411 -15 q 332 1 367 -11 l 315 -157 l 229 -157 l 250 44 q 135 214 172 103 q 97 485 97 325 q 159 815 97 690 q 347 974 221 939 l 364 1126 l 450 1126 l 435 986 l 449 986 q 483 985 467 986 q 515 981 500 983 l 531 1126 l 617 1126 l 599 953 q 690 874 656 922 q 747 774 724 826 l 653 732 q 624 792 640 764 q 585 842 608 821 l 504 85 q 599 142 567 100 q 653 239 631 185 l 747 196 q 710 125 731 160 q 660 62 689 90 q 591 13 631 33 q 497 -14 551 -7 l 482 -157 l 396 -157 l 411 -15 m 449 890 q 435 890 442 890 q 422 889 429 890 l 340 106 q 424 81 375 85 l 508 883 q 480 888 494 886 q 449 890 465 890 m 213 406 q 267 175 213 260 l 339 864 q 244 751 275 828 q 213 564 213 674 l 213 406 z "},"₤":{"ha":833,"x_min":72,"x_max":764,"o":"m 747 0 l 104 0 l 104 146 q 178 203 153 165 q 211 290 204 240 l 72 290 l 72 381 l 210 381 q 198 439 206 411 q 181 494 190 467 l 72 494 l 72 585 l 151 585 q 140 637 144 610 q 136 693 136 664 q 158 811 136 757 q 223 904 181 865 q 326 965 265 943 q 461 986 386 986 q 645 942 572 986 q 764 828 718 899 l 676 765 q 585 853 638 822 q 454 885 533 885 q 309 839 363 885 q 256 686 256 793 q 259 633 256 658 q 268 585 263 608 l 576 585 l 576 494 l 296 494 q 314 439 306 467 q 325 381 322 411 l 576 381 l 576 290 l 324 290 q 280 183 313 226 q 214 118 247 140 l 214 111 l 747 111 l 747 0 z "},"₦":{"ha":833,"x_min":38,"x_max":796,"o":"m 414 344 l 225 344 l 225 0 l 128 0 l 128 339 l 38 339 l 38 429 l 128 429 l 128 540 l 38 540 l 38 631 l 128 631 l 128 969 l 301 969 l 419 625 l 608 625 l 608 969 l 706 969 l 706 631 l 796 631 l 796 540 l 706 540 l 706 429 l 796 429 l 796 339 l 706 339 l 706 0 l 532 0 l 414 344 m 386 422 l 235 864 l 225 864 l 225 422 l 386 422 m 599 106 l 608 106 l 608 547 l 447 547 l 599 106 z "},"₨":{"ha":833,"x_min":68,"x_max":818,"o":"m 68 0 l 68 969 l 247 969 q 431 902 375 969 q 486 710 486 835 q 454 554 486 615 q 347 469 422 493 l 469 181 q 524 101 493 126 q 608 76 556 76 q 686 99 658 76 q 714 168 714 122 q 709 202 714 188 q 694 230 704 217 q 671 256 685 243 q 639 288 657 269 l 613 314 q 539 401 568 358 q 510 501 510 443 q 553 615 510 569 q 679 661 597 661 q 747 651 714 661 q 813 617 781 640 l 768 542 q 729 564 750 556 q 685 572 708 572 q 632 553 650 572 q 614 501 614 535 q 618 473 614 486 q 631 447 622 460 q 654 418 640 433 q 689 382 668 403 l 710 361 q 752 319 732 339 q 787 276 772 299 q 810 228 801 254 q 818 168 818 203 q 765 34 818 85 q 599 -17 711 -17 q 460 15 518 -17 q 369 129 403 47 l 240 447 l 179 447 l 179 0 l 68 0 m 238 544 q 340 578 308 544 q 372 675 372 611 l 372 739 q 340 836 372 803 q 238 869 308 869 l 179 869 l 179 544 l 238 544 z "},"₩":{"ha":833,"x_min":36,"x_max":797,"o":"m 124 344 l 36 344 l 36 435 l 121 435 l 117 554 l 36 554 l 36 644 l 114 644 l 104 969 l 208 969 l 213 638 l 624 638 l 628 969 l 729 969 l 719 644 l 797 644 l 797 554 l 717 554 l 713 435 l 797 435 l 797 344 l 710 344 l 699 0 l 518 0 l 428 561 l 406 561 l 315 0 l 135 0 l 124 344 m 246 103 l 321 561 l 214 561 l 222 103 l 246 103 m 614 103 l 622 561 l 515 561 l 590 103 l 614 103 z "},"₪":{"ha":833,"x_min":82,"x_max":757,"o":"m 272 765 l 378 765 l 378 89 l 494 89 q 551 97 524 89 q 601 125 579 106 q 637 176 624 144 q 650 253 650 207 l 650 969 l 757 969 l 757 275 q 738 154 757 206 q 683 68 718 103 q 600 17 649 33 q 494 0 551 0 l 272 0 l 272 765 m 82 0 l 82 969 l 307 969 q 412 953 364 969 q 494 901 460 936 q 547 815 528 867 q 567 694 567 764 l 567 204 l 461 204 l 461 717 q 448 794 461 763 q 413 844 435 825 q 364 872 392 864 q 307 881 336 881 l 189 881 l 189 0 l 82 0 z "},"₫":{"ha":833,"x_min":114,"x_max":772,"o":"m 571 289 l 565 289 q 485 208 535 236 q 367 181 436 181 q 182 258 249 181 q 115 479 115 335 q 182 702 115 625 q 367 779 249 779 q 485 751 436 779 q 565 671 535 724 l 571 671 l 571 860 l 358 860 l 358 944 l 571 944 l 571 1028 l 676 1028 l 676 944 l 772 944 l 772 860 l 676 860 l 676 193 l 571 193 l 571 289 m 408 269 q 471 278 442 269 q 522 304 500 288 q 558 344 544 321 q 571 397 571 368 l 571 563 q 558 615 571 592 q 522 656 544 639 q 471 681 500 672 q 408 690 442 690 q 275 647 322 690 q 228 528 228 603 l 228 432 q 275 313 228 357 q 408 269 322 269 m 114 0 l 114 94 l 719 94 l 719 0 l 114 0 z "},"₭":{"ha":833,"x_min":39,"x_max":781,"o":"m 256 0 l 139 0 l 139 454 l 39 454 l 39 550 l 139 550 l 139 969 l 256 969 l 256 550 l 331 550 l 626 969 l 758 969 l 458 550 l 758 550 l 758 454 l 468 454 l 781 0 l 639 0 l 333 454 l 256 454 l 256 0 z "},"₮":{"ha":833,"x_min":36,"x_max":799,"o":"m 476 301 l 476 0 l 358 0 l 358 246 l 164 156 l 164 251 l 358 342 l 358 468 l 164 378 l 164 474 l 358 564 l 358 868 l 36 868 l 36 969 l 799 969 l 799 868 l 476 868 l 476 619 l 671 710 l 671 614 l 476 524 l 476 397 l 671 488 l 671 392 l 476 301 z "},"₱":{"ha":833,"x_min":39,"x_max":797,"o":"m 229 0 l 115 0 l 115 474 l 39 474 l 39 564 l 115 564 l 115 675 l 39 675 l 39 765 l 115 765 l 115 969 l 450 969 q 619 915 558 969 q 704 765 681 861 l 797 765 l 797 675 l 718 675 q 719 648 719 661 q 719 619 719 635 q 719 591 719 604 q 718 564 719 578 l 797 564 l 797 474 l 704 474 q 619 324 681 378 q 450 269 558 269 l 229 269 l 229 0 m 229 763 l 600 763 q 550 844 588 815 q 447 874 513 874 l 229 874 l 229 763 m 606 561 l 606 678 l 229 678 l 229 561 l 606 561 m 447 365 q 550 394 513 365 q 600 476 588 424 l 229 476 l 229 365 l 447 365 z "},"₲":{"ha":833,"x_min":78,"x_max":728,"o":"m 292 7 q 131 172 185 51 q 78 485 78 293 q 165 858 78 729 q 428 986 251 986 q 447 986 438 986 q 464 985 456 986 l 489 1126 l 576 1126 l 549 967 q 613 932 585 953 q 661 885 640 911 q 699 831 682 860 q 728 774 715 803 l 633 732 q 592 811 615 775 q 529 868 569 847 l 461 479 l 725 479 l 725 339 q 707 196 725 261 q 651 83 689 131 q 557 10 614 36 q 422 -17 500 -17 q 398 -16 410 -17 q 375 -14 386 -15 l 350 -157 l 263 -157 l 292 7 m 449 889 q 429 890 443 890 q 325 867 369 890 q 251 801 281 844 q 208 699 222 758 q 193 564 193 639 l 193 406 q 222 222 193 299 q 310 108 251 146 l 449 889 m 424 76 q 569 140 518 76 q 619 317 619 204 l 619 389 l 444 389 l 390 79 q 406 77 397 78 q 424 76 415 76 z "},"₴":{"ha":833,"x_min":38,"x_max":796,"o":"m 422 -17 q 305 3 357 -17 q 217 56 253 22 q 161 137 181 90 q 142 239 142 183 q 149 303 142 276 q 168 353 157 331 l 38 353 l 38 443 l 239 443 l 439 564 l 439 568 l 38 568 l 38 658 l 547 658 q 563 694 558 675 q 568 738 568 713 q 525 851 568 813 q 404 889 482 889 q 302 868 351 889 q 210 799 253 847 l 136 867 q 267 958 196 931 q 414 986 339 986 q 523 969 474 986 q 607 922 572 953 q 661 847 642 890 q 681 750 681 804 q 675 698 681 719 q 661 658 669 676 l 796 658 l 796 568 l 590 568 l 390 447 l 390 443 l 796 443 l 796 353 l 286 353 q 263 307 271 332 q 254 250 254 282 q 300 125 254 169 q 429 81 346 81 q 540 105 486 81 q 651 189 593 129 l 722 118 q 588 17 665 51 q 422 -17 510 -17 z "},"₵":{"ha":833,"x_min":97,"x_max":747,"o":"m 300 14 q 147 180 197 61 q 97 485 97 299 q 184 857 97 728 q 449 986 271 986 l 471 986 l 496 1126 l 583 1126 l 556 971 q 624 938 594 958 q 676 890 653 917 q 716 834 699 864 q 747 774 733 804 l 653 732 q 608 816 633 778 q 538 874 582 854 l 397 85 q 449 79 419 79 q 527 92 494 79 q 583 126 560 104 q 624 178 607 149 q 653 239 640 207 l 747 196 q 706 118 729 156 q 647 50 682 81 q 564 1 613 19 q 449 -17 515 -17 q 383 -11 411 -17 l 357 -157 l 269 -157 l 300 14 m 456 890 q 347 867 393 890 q 272 801 301 844 q 227 699 242 758 q 213 564 213 639 l 213 406 q 239 232 213 306 q 319 118 265 158 l 456 890 z "},"₸":{"ha":833,"x_min":63,"x_max":771,"o":"m 63 874 l 63 969 l 771 969 l 771 874 l 63 874 m 475 653 l 475 0 l 358 0 l 358 653 l 63 653 l 63 749 l 771 749 l 771 653 l 475 653 z "},"₹":{"ha":833,"x_min":78,"x_max":769,"o":"m 560 0 l 251 404 l 78 404 l 78 500 l 317 500 q 441 538 393 500 q 489 653 489 575 l 78 653 l 78 749 l 485 749 q 431 841 478 808 q 317 874 385 874 l 78 874 l 78 969 l 769 969 l 769 874 l 504 874 l 504 867 q 557 826 532 854 q 594 749 582 799 l 769 749 l 769 653 l 603 653 q 540 496 596 561 q 388 411 485 431 l 703 0 l 560 0 z "},"₺":{"ha":833,"x_min":78,"x_max":769,"o":"m 215 343 l 78 279 l 78 375 l 215 439 l 215 565 l 78 501 l 78 597 l 215 661 l 215 969 l 332 969 l 332 715 l 585 833 l 585 738 l 332 619 l 332 493 l 585 611 l 585 515 l 332 397 l 332 101 l 404 101 q 510 124 463 101 q 589 189 557 147 q 638 290 621 231 q 656 424 656 350 l 769 424 q 747 258 769 335 q 679 123 724 181 q 567 33 635 65 q 411 0 500 0 l 215 0 l 215 343 z "},"₽":{"ha":833,"x_min":63,"x_max":771,"o":"m 294 186 l 294 0 l 178 0 l 178 186 l 63 186 l 63 282 l 178 282 l 178 408 l 63 408 l 63 504 l 178 504 l 178 969 l 494 969 q 700 894 629 969 q 771 686 771 819 q 699 481 771 553 q 493 408 628 408 l 294 408 l 294 282 l 610 282 l 610 186 l 294 186 m 294 504 l 494 504 q 609 540 568 504 q 650 643 650 576 l 650 729 q 609 832 650 796 q 494 868 568 868 l 294 868 l 294 504 z "},"₿":{"ha":833,"x_min":122,"x_max":754,"o":"m 443 0 l 347 0 l 347 -157 l 261 -157 l 261 0 l 122 0 l 122 969 l 261 969 l 261 1126 l 347 1126 l 347 969 l 443 969 l 443 1126 l 529 1126 l 529 961 q 668 878 618 942 q 718 719 718 815 q 677 584 718 633 q 567 511 636 535 l 567 507 q 703 433 651 488 q 754 279 754 379 q 738 178 754 225 q 691 94 721 131 q 620 33 661 57 q 529 3 579 10 l 529 -157 l 443 -157 l 443 0 m 239 549 l 440 549 q 555 581 514 549 q 596 681 596 614 l 596 735 q 555 835 596 801 q 440 869 514 869 l 239 869 l 239 549 m 239 100 l 460 100 q 585 137 540 100 q 631 249 631 174 l 631 306 q 585 416 631 379 q 460 453 540 453 l 239 453 l 239 100 z "},"ﬁ":{"ha":833,"x_min":53,"x_max":729,"o":"m 150 622 l 53 622 l 53 717 l 150 717 l 150 864 q 188 982 150 936 q 308 1028 226 1028 l 465 1028 l 465 933 l 261 933 l 261 717 l 697 717 l 697 0 l 586 0 l 586 622 l 261 622 l 261 0 l 150 0 l 150 622 m 642 875 q 574 895 593 875 q 554 946 554 915 l 554 968 q 574 1019 554 999 q 642 1039 593 1039 q 710 1019 690 1039 q 729 968 729 999 l 729 946 q 710 895 729 915 q 642 875 690 875 z "},"ﬂ":{"ha":833,"x_min":53,"x_max":697,"o":"m 150 622 l 53 622 l 53 717 l 150 717 l 150 864 q 188 982 150 936 q 308 1028 226 1028 l 479 1028 l 479 933 l 261 933 l 261 717 l 479 717 l 479 622 l 261 622 l 261 0 l 150 0 l 150 622 m 586 1028 l 697 1028 l 697 0 l 586 0 l 586 1028 z "},"á":{"ha":833,"x_min":92,"x_max":764,"o":"m 688 0 q 594 33 622 0 q 560 117 567 67 l 553 117 q 477 19 529 54 q 338 -17 425 -17 q 158 42 225 -17 q 92 201 92 100 q 165 356 92 301 q 400 410 238 410 l 553 410 l 553 481 q 508 599 553 560 q 382 639 464 639 q 264 610 310 639 q 190 533 218 582 l 115 589 q 153 643 129 617 q 211 690 176 669 q 290 722 246 710 q 389 733 335 733 q 590 669 515 733 q 664 492 664 606 l 664 97 l 764 97 l 764 0 l 688 0 m 357 76 q 435 87 400 76 q 497 115 471 97 q 538 156 524 132 q 553 208 553 181 l 553 326 l 400 326 q 254 299 300 326 q 208 218 208 271 l 208 189 q 248 105 208 133 q 357 76 288 76 m 404 813 l 332 846 l 450 1082 l 551 1033 l 404 813 z "},"ă":{"ha":833,"x_min":92,"x_max":764,"o":"m 688 0 q 594 33 622 0 q 560 117 567 67 l 553 117 q 477 19 529 54 q 338 -17 425 -17 q 158 42 225 -17 q 92 201 92 100 q 165 356 92 301 q 400 410 238 410 l 553 410 l 553 481 q 508 599 553 560 q 382 639 464 639 q 264 610 310 639 q 190 533 218 582 l 115 589 q 153 643 129 617 q 211 690 176 669 q 290 722 246 710 q 389 733 335 733 q 590 669 515 733 q 664 492 664 606 l 664 97 l 764 97 l 764 0 l 688 0 m 357 76 q 435 87 400 76 q 497 115 471 97 q 538 156 524 132 q 553 208 553 181 l 553 326 l 400 326 q 254 299 300 326 q 208 218 208 271 l 208 189 q 248 105 208 133 q 357 76 288 76 m 394 826 q 301 847 339 826 q 237 899 263 868 q 196 967 211 931 q 171 1036 181 1004 l 242 1067 l 271 1019 q 300 974 288 993 q 326 942 313 954 q 355 923 339 929 q 394 917 371 917 q 433 923 417 917 q 463 942 450 929 q 489 974 476 954 q 518 1019 501 993 l 547 1067 l 618 1036 q 593 967 608 1004 q 552 899 578 931 q 488 847 526 868 q 394 826 450 826 z "},"â":{"ha":833,"x_min":92,"x_max":764,"o":"m 688 0 q 594 33 622 0 q 560 117 567 67 l 553 117 q 477 19 529 54 q 338 -17 425 -17 q 158 42 225 -17 q 92 201 92 100 q 165 356 92 301 q 400 410 238 410 l 553 410 l 553 481 q 508 599 553 560 q 382 639 464 639 q 264 610 310 639 q 190 533 218 582 l 115 589 q 153 643 129 617 q 211 690 176 669 q 290 722 246 710 q 389 733 335 733 q 590 669 515 733 q 664 492 664 606 l 664 97 l 764 97 l 764 0 l 688 0 m 357 76 q 435 87 400 76 q 497 115 471 97 q 538 156 524 132 q 553 208 553 181 l 553 326 l 400 326 q 254 299 300 326 q 208 218 208 271 l 208 189 q 248 105 208 133 q 357 76 288 76 m 464 1063 l 618 864 l 556 821 l 393 983 l 231 821 l 171 864 l 325 1063 l 464 1063 z "},"ä":{"ha":833,"x_min":92,"x_max":764,"o":"m 688 0 q 594 33 622 0 q 560 117 567 67 l 553 117 q 477 19 529 54 q 338 -17 425 -17 q 158 42 225 -17 q 92 201 92 100 q 165 356 92 301 q 400 410 238 410 l 553 410 l 553 481 q 508 599 553 560 q 382 639 464 639 q 264 610 310 639 q 190 533 218 582 l 115 589 q 153 643 129 617 q 211 690 176 669 q 290 722 246 710 q 389 733 335 733 q 590 669 515 733 q 664 492 664 606 l 664 97 l 764 97 l 764 0 l 688 0 m 357 76 q 435 87 400 76 q 497 115 471 97 q 538 156 524 132 q 553 208 553 181 l 553 326 l 400 326 q 254 299 300 326 q 208 218 208 271 l 208 189 q 248 105 208 133 q 357 76 288 76 m 265 858 q 204 876 222 858 q 186 922 186 894 l 186 942 q 204 988 186 969 q 265 1006 222 1006 q 326 988 308 1006 q 344 942 344 969 l 344 922 q 326 876 344 894 q 265 858 308 858 m 524 858 q 463 876 481 858 q 444 922 444 894 l 444 942 q 463 988 444 969 q 524 1006 481 1006 q 585 988 567 1006 q 603 942 603 969 l 603 922 q 585 876 603 894 q 524 858 567 858 z "},"ạ":{"ha":833,"x_min":92,"x_max":764,"o":"m 688 0 q 594 33 622 0 q 560 117 567 67 l 553 117 q 477 19 529 54 q 338 -17 425 -17 q 158 42 225 -17 q 92 201 92 100 q 165 356 92 301 q 400 410 238 410 l 553 410 l 553 481 q 508 599 553 560 q 382 639 464 639 q 264 610 310 639 q 190 533 218 582 l 115 589 q 153 643 129 617 q 211 690 176 669 q 290 722 246 710 q 389 733 335 733 q 590 669 515 733 q 664 492 664 606 l 664 97 l 764 97 l 764 0 l 688 0 m 357 76 q 435 87 400 76 q 497 115 471 97 q 538 156 524 132 q 553 208 553 181 l 553 326 l 400 326 q 254 299 300 326 q 208 218 208 271 l 208 189 q 248 105 208 133 q 357 76 288 76 m 393 -239 q 332 -221 350 -239 q 314 -175 314 -203 l 314 -156 q 332 -110 314 -128 q 393 -92 350 -92 q 454 -110 436 -92 q 472 -156 472 -128 l 472 -175 q 454 -221 472 -203 q 393 -239 436 -239 z "},"à":{"ha":833,"x_min":92,"x_max":764,"o":"m 688 0 q 594 33 622 0 q 560 117 567 67 l 553 117 q 477 19 529 54 q 338 -17 425 -17 q 158 42 225 -17 q 92 201 92 100 q 165 356 92 301 q 400 410 238 410 l 553 410 l 553 481 q 508 599 553 560 q 382 639 464 639 q 264 610 310 639 q 190 533 218 582 l 115 589 q 153 643 129 617 q 211 690 176 669 q 290 722 246 710 q 389 733 335 733 q 590 669 515 733 q 664 492 664 606 l 664 97 l 764 97 l 764 0 l 688 0 m 357 76 q 435 87 400 76 q 497 115 471 97 q 538 156 524 132 q 553 208 553 181 l 553 326 l 400 326 q 254 299 300 326 q 208 218 208 271 l 208 189 q 248 105 208 133 q 357 76 288 76 m 238 1033 l 339 1082 l 457 846 l 385 813 l 238 1033 z "},"ả":{"ha":833,"x_min":92,"x_max":764,"o":"m 688 0 q 594 33 622 0 q 560 117 567 67 l 553 117 q 477 19 529 54 q 338 -17 425 -17 q 158 42 225 -17 q 92 201 92 100 q 165 356 92 301 q 400 410 238 410 l 553 410 l 553 481 q 508 599 553 560 q 382 639 464 639 q 264 610 310 639 q 190 533 218 582 l 115 589 q 153 643 129 617 q 211 690 176 669 q 290 722 246 710 q 389 733 335 733 q 590 669 515 733 q 664 492 664 606 l 664 97 l 764 97 l 764 0 l 688 0 m 357 76 q 435 87 400 76 q 497 115 471 97 q 538 156 524 132 q 553 208 553 181 l 553 326 l 400 326 q 254 299 300 326 q 208 218 208 271 l 208 189 q 248 105 208 133 q 357 76 288 76 m 276 1063 l 428 1063 q 503 1040 481 1063 q 525 986 525 1018 q 507 919 525 956 q 457 843 489 883 l 424 801 l 360 833 l 440 978 l 276 978 l 276 1063 z "},"ā":{"ha":833,"x_min":92,"x_max":764,"o":"m 688 0 q 594 33 622 0 q 560 117 567 67 l 553 117 q 477 19 529 54 q 338 -17 425 -17 q 158 42 225 -17 q 92 201 92 100 q 165 356 92 301 q 400 410 238 410 l 553 410 l 553 481 q 508 599 553 560 q 382 639 464 639 q 264 610 310 639 q 190 533 218 582 l 115 589 q 153 643 129 617 q 211 690 176 669 q 290 722 246 710 q 389 733 335 733 q 590 669 515 733 q 664 492 664 606 l 664 97 l 764 97 l 764 0 l 688 0 m 357 76 q 435 87 400 76 q 497 115 471 97 q 538 156 524 132 q 553 208 553 181 l 553 326 l 400 326 q 254 299 300 326 q 208 218 208 271 l 208 189 q 248 105 208 133 q 357 76 288 76 m 200 979 l 589 979 l 589 885 l 200 885 l 200 979 z "},"ą":{"ha":833,"x_min":92,"x_max":793,"o":"m 764 0 q 678 -58 710 -33 q 631 -102 647 -83 q 611 -135 615 -121 q 607 -158 607 -149 q 625 -199 607 -187 q 665 -210 643 -210 q 738 -174 708 -210 l 793 -231 q 748 -271 779 -254 q 664 -287 717 -287 q 556 -260 600 -287 q 513 -176 513 -232 q 553 -84 513 -126 q 672 -4 593 -42 l 671 0 q 592 36 619 4 q 560 117 564 68 l 553 117 q 477 19 529 54 q 338 -17 425 -17 q 158 42 225 -17 q 92 201 92 100 q 165 356 92 301 q 400 410 238 410 l 553 410 l 553 481 q 508 599 553 560 q 381 639 464 639 q 264 610 310 639 q 190 533 218 582 l 115 589 q 153 643 129 617 q 211 690 176 669 q 290 722 246 710 q 389 733 335 733 q 590 669 515 733 q 664 492 664 606 l 664 97 l 764 97 l 764 0 m 400 326 q 254 299 300 326 q 208 218 208 271 l 208 189 q 248 105 208 133 q 357 76 288 76 q 435 87 400 76 q 497 115 471 97 q 538 156 524 132 q 553 208 553 181 l 553 326 l 400 326 z "},"å":{"ha":833,"x_min":92,"x_max":764,"o":"m 688 0 q 594 33 622 0 q 560 117 567 67 l 553 117 q 477 19 529 54 q 338 -17 425 -17 q 158 42 225 -17 q 92 201 92 100 q 165 356 92 301 q 400 410 238 410 l 553 410 l 553 481 q 508 599 553 560 q 382 639 464 639 q 264 610 310 639 q 190 533 218 582 l 115 589 q 153 643 129 617 q 211 690 176 669 q 290 722 246 710 q 389 733 335 733 q 590 669 515 733 q 664 492 664 606 l 664 97 l 764 97 l 764 0 l 688 0 m 357 76 q 435 87 400 76 q 497 115 471 97 q 538 156 524 132 q 553 208 553 181 l 553 326 l 400 326 q 254 299 300 326 q 208 218 208 271 l 208 189 q 248 105 208 133 q 357 76 288 76 m 394 800 q 331 812 361 800 q 280 845 301 824 q 246 896 258 867 q 233 960 233 925 q 246 1024 233 994 q 280 1074 258 1053 q 331 1108 301 1096 q 394 1119 361 1119 q 458 1108 428 1119 q 509 1074 488 1096 q 543 1024 531 1053 q 556 960 556 994 q 543 896 556 925 q 509 845 531 867 q 458 812 488 824 q 394 800 428 800 m 394 868 q 453 888 432 868 q 475 944 475 908 l 475 975 q 453 1031 475 1011 q 394 1051 432 1051 q 335 1031 357 1051 q 314 975 314 1011 l 314 944 q 335 888 314 908 q 394 868 357 868 z "},"ǻ":{"ha":833,"x_min":92,"x_max":764,"o":"m 688 0 q 594 33 622 0 q 560 117 567 67 l 553 117 q 477 19 529 54 q 338 -17 425 -17 q 158 42 225 -17 q 92 201 92 100 q 165 356 92 301 q 400 410 238 410 l 553 410 l 553 481 q 508 599 553 560 q 382 639 464 639 q 264 610 310 639 q 190 533 218 582 l 115 589 q 153 643 129 617 q 211 690 176 669 q 290 722 246 710 q 389 733 335 733 q 590 669 515 733 q 664 492 664 606 l 664 97 l 764 97 l 764 0 l 688 0 m 357 76 q 435 87 400 76 q 497 115 471 97 q 538 156 524 132 q 553 208 553 181 l 553 326 l 400 326 q 254 299 300 326 q 208 218 208 271 l 208 189 q 248 105 208 133 q 357 76 288 76 m 410 1131 l 353 1167 l 457 1328 l 540 1276 l 410 1131 m 394 786 q 331 798 361 786 q 280 831 301 810 q 246 882 258 853 q 233 946 233 911 q 246 1010 233 981 q 280 1060 258 1039 q 331 1094 301 1082 q 394 1106 361 1106 q 458 1094 428 1106 q 509 1060 488 1082 q 543 1010 531 1039 q 556 946 556 981 q 543 882 556 911 q 509 831 531 853 q 458 798 488 810 q 394 786 428 786 m 394 854 q 453 874 432 854 q 475 931 475 894 l 475 961 q 453 1017 475 997 q 394 1038 432 1038 q 335 1017 357 1038 q 314 961 314 997 l 314 931 q 335 874 314 894 q 394 854 357 854 z "},"ã":{"ha":833,"x_min":92,"x_max":764,"o":"m 688 0 q 594 33 622 0 q 560 117 567 67 l 553 117 q 477 19 529 54 q 338 -17 425 -17 q 158 42 225 -17 q 92 201 92 100 q 165 356 92 301 q 400 410 238 410 l 553 410 l 553 481 q 508 599 553 560 q 382 639 464 639 q 264 610 310 639 q 190 533 218 582 l 115 589 q 153 643 129 617 q 211 690 176 669 q 290 722 246 710 q 389 733 335 733 q 590 669 515 733 q 664 492 664 606 l 664 97 l 764 97 l 764 0 l 688 0 m 357 76 q 435 87 400 76 q 497 115 471 97 q 538 156 524 132 q 553 208 553 181 l 553 326 l 400 326 q 254 299 300 326 q 208 218 208 271 l 208 189 q 248 105 208 133 q 357 76 288 76 m 496 850 q 433 863 460 850 q 385 886 407 875 q 328 912 351 904 q 288 919 306 919 q 246 910 264 919 q 207 882 228 900 l 161 938 q 213 988 181 965 q 293 1011 244 1011 q 356 999 329 1011 q 404 975 382 986 q 460 949 438 957 q 501 942 483 942 q 543 951 525 942 q 582 979 561 961 l 628 924 q 576 873 608 896 q 496 850 544 850 z "},"ắ":{"ha":833,"x_min":92,"x_max":764,"o":"m 688 0 q 594 33 622 0 q 560 117 567 67 l 553 117 q 477 19 529 54 q 338 -17 425 -17 q 158 42 225 -17 q 92 201 92 100 q 165 356 92 301 q 400 410 238 410 l 553 410 l 553 481 q 508 599 553 560 q 382 639 464 639 q 264 610 310 639 q 190 533 218 582 l 115 589 q 153 643 129 617 q 211 690 176 669 q 290 722 246 710 q 389 733 335 733 q 590 669 515 733 q 664 492 664 606 l 664 97 l 764 97 l 764 0 l 688 0 m 357 76 q 435 87 400 76 q 497 115 471 97 q 538 156 524 132 q 553 208 553 181 l 553 326 l 400 326 q 254 299 300 326 q 208 218 208 271 l 208 189 q 248 105 208 133 q 357 76 288 76 m 392 813 q 297 831 336 813 q 231 878 258 850 q 188 941 204 907 q 163 1006 172 975 l 228 1038 l 257 993 q 319 922 290 943 q 393 901 347 901 q 467 922 439 901 q 529 993 496 943 l 558 1038 l 624 1006 q 595 938 613 972 q 551 875 578 903 q 485 830 524 847 q 392 813 446 813 m 403 983 l 335 1015 l 453 1251 l 550 1204 l 403 983 z "},"ặ":{"ha":833,"x_min":92,"x_max":764,"o":"m 688 0 q 594 33 622 0 q 560 117 567 67 l 553 117 q 477 19 529 54 q 338 -17 425 -17 q 158 42 225 -17 q 92 201 92 100 q 165 356 92 301 q 400 410 238 410 l 553 410 l 553 481 q 508 599 553 560 q 382 639 464 639 q 264 610 310 639 q 190 533 218 582 l 115 589 q 153 643 129 617 q 211 690 176 669 q 290 722 246 710 q 389 733 335 733 q 590 669 515 733 q 664 492 664 606 l 664 97 l 764 97 l 764 0 l 688 0 m 357 76 q 435 87 400 76 q 497 115 471 97 q 538 156 524 132 q 553 208 553 181 l 553 326 l 400 326 q 254 299 300 326 q 208 218 208 271 l 208 189 q 248 105 208 133 q 357 76 288 76 m 394 826 q 301 847 339 826 q 237 899 263 868 q 196 967 211 931 q 171 1036 181 1004 l 242 1067 l 271 1019 q 300 974 288 993 q 326 942 313 954 q 355 923 339 929 q 394 917 371 917 q 433 923 417 917 q 463 942 450 929 q 489 974 476 954 q 518 1019 501 993 l 547 1067 l 618 1036 q 593 967 608 1004 q 552 899 578 931 q 488 847 526 868 q 394 826 450 826 m 393 -239 q 332 -221 350 -239 q 314 -175 314 -203 l 314 -156 q 332 -110 314 -128 q 393 -92 350 -92 q 454 -110 436 -92 q 472 -156 472 -128 l 472 -175 q 454 -221 472 -203 q 393 -239 436 -239 z "},"ằ":{"ha":833,"x_min":92,"x_max":764,"o":"m 688 0 q 594 33 622 0 q 560 117 567 67 l 553 117 q 477 19 529 54 q 338 -17 425 -17 q 158 42 225 -17 q 92 201 92 100 q 165 356 92 301 q 400 410 238 410 l 553 410 l 553 481 q 508 599 553 560 q 382 639 464 639 q 264 610 310 639 q 190 533 218 582 l 115 589 q 153 643 129 617 q 211 690 176 669 q 290 722 246 710 q 389 733 335 733 q 590 669 515 733 q 664 492 664 606 l 664 97 l 764 97 l 764 0 l 688 0 m 357 76 q 435 87 400 76 q 497 115 471 97 q 538 156 524 132 q 553 208 553 181 l 553 326 l 400 326 q 254 299 300 326 q 208 218 208 271 l 208 189 q 248 105 208 133 q 357 76 288 76 m 394 813 q 301 830 340 813 q 235 875 263 847 q 191 938 208 903 q 163 1006 174 972 l 228 1038 l 257 993 q 319 922 290 943 q 393 901 347 901 q 467 922 439 901 q 529 993 496 943 l 558 1038 l 624 1006 q 598 941 614 975 q 555 878 582 907 q 489 831 528 850 q 394 813 450 813 m 236 1204 l 333 1251 l 451 1015 l 383 983 l 236 1204 z "},"ẳ":{"ha":833,"x_min":92,"x_max":764,"o":"m 688 0 q 594 33 622 0 q 560 117 567 67 l 553 117 q 477 19 529 54 q 338 -17 425 -17 q 158 42 225 -17 q 92 201 92 100 q 165 356 92 301 q 400 410 238 410 l 553 410 l 553 481 q 508 599 553 560 q 382 639 464 639 q 264 610 310 639 q 190 533 218 582 l 115 589 q 153 643 129 617 q 211 690 176 669 q 290 722 246 710 q 389 733 335 733 q 590 669 515 733 q 664 492 664 606 l 664 97 l 764 97 l 764 0 l 688 0 m 357 76 q 435 87 400 76 q 497 115 471 97 q 538 156 524 132 q 553 208 553 181 l 553 326 l 400 326 q 254 299 300 326 q 208 218 208 271 l 208 189 q 248 105 208 133 q 357 76 288 76 m 394 813 q 301 830 340 813 q 235 875 263 847 q 191 938 208 903 q 163 1006 174 972 l 228 1038 l 257 993 q 319 922 290 943 q 393 901 347 901 q 467 922 439 901 q 529 993 496 943 l 558 1038 l 624 1006 q 598 941 614 975 q 555 878 582 907 q 489 831 528 850 q 394 813 450 813 m 275 1236 l 406 1236 q 481 1214 458 1236 q 503 1160 503 1192 q 485 1093 503 1129 q 435 1017 467 1057 l 401 975 l 338 1007 l 418 1151 l 275 1151 l 275 1236 z "},"ẵ":{"ha":833,"x_min":92,"x_max":764,"o":"m 688 0 q 594 33 622 0 q 560 117 567 67 l 553 117 q 477 19 529 54 q 338 -17 425 -17 q 158 42 225 -17 q 92 201 92 100 q 165 356 92 301 q 400 410 238 410 l 553 410 l 553 481 q 508 599 553 560 q 382 639 464 639 q 264 610 310 639 q 190 533 218 582 l 115 589 q 153 643 129 617 q 211 690 176 669 q 290 722 246 710 q 389 733 335 733 q 590 669 515 733 q 664 492 664 606 l 664 97 l 764 97 l 764 0 l 688 0 m 357 76 q 435 87 400 76 q 497 115 471 97 q 538 156 524 132 q 553 208 553 181 l 553 326 l 400 326 q 254 299 300 326 q 208 218 208 271 l 208 189 q 248 105 208 133 q 357 76 288 76 m 394 813 q 301 830 340 813 q 235 875 263 847 q 191 938 208 903 q 163 1006 174 972 l 228 1038 l 257 993 q 319 922 290 943 q 393 901 347 901 q 467 922 439 901 q 529 993 496 943 l 558 1038 l 624 1006 q 598 941 614 975 q 555 878 582 907 q 489 831 528 850 q 394 813 450 813 m 493 1068 q 431 1081 457 1068 q 382 1104 404 1093 q 326 1130 349 1122 q 285 1138 303 1138 q 243 1128 261 1138 q 204 1100 225 1118 l 161 1150 q 213 1201 181 1178 q 293 1224 244 1224 q 356 1211 329 1224 q 404 1188 382 1199 q 460 1162 438 1169 q 501 1154 483 1154 q 543 1164 525 1154 q 582 1192 561 1174 l 625 1142 q 574 1091 606 1114 q 493 1068 542 1068 z "},"ấ":{"ha":833,"x_min":92,"x_max":764,"o":"m 688 0 q 594 33 622 0 q 560 117 567 67 l 553 117 q 477 19 529 54 q 338 -17 425 -17 q 158 42 225 -17 q 92 201 92 100 q 165 356 92 301 q 400 410 238 410 l 553 410 l 553 481 q 508 599 553 560 q 382 639 464 639 q 264 610 310 639 q 190 533 218 582 l 115 589 q 153 643 129 617 q 211 690 176 669 q 290 722 246 710 q 389 733 335 733 q 590 669 515 733 q 664 492 664 606 l 664 97 l 764 97 l 764 0 l 688 0 m 357 76 q 435 87 400 76 q 497 115 471 97 q 538 156 524 132 q 553 208 553 181 l 553 326 l 400 326 q 254 299 300 326 q 208 218 208 271 l 208 189 q 248 105 208 133 q 357 76 288 76 m 607 989 l 539 1021 l 657 1257 l 754 1210 l 607 989 m 463 1049 l 615 849 l 554 807 l 392 972 l 229 807 l 171 849 l 324 1049 l 463 1049 z "},"ậ":{"ha":833,"x_min":92,"x_max":764,"o":"m 688 0 q 594 33 622 0 q 560 117 567 67 l 553 117 q 477 19 529 54 q 338 -17 425 -17 q 158 42 225 -17 q 92 201 92 100 q 165 356 92 301 q 400 410 238 410 l 553 410 l 553 481 q 508 599 553 560 q 382 639 464 639 q 264 610 310 639 q 190 533 218 582 l 115 589 q 153 643 129 617 q 211 690 176 669 q 290 722 246 710 q 389 733 335 733 q 590 669 515 733 q 664 492 664 606 l 664 97 l 764 97 l 764 0 l 688 0 m 357 76 q 435 87 400 76 q 497 115 471 97 q 538 156 524 132 q 553 208 553 181 l 553 326 l 400 326 q 254 299 300 326 q 208 218 208 271 l 208 189 q 248 105 208 133 q 357 76 288 76 m 464 1063 l 618 864 l 556 821 l 393 983 l 231 821 l 171 864 l 325 1063 l 464 1063 m 393 -239 q 332 -221 350 -239 q 314 -175 314 -203 l 314 -156 q 332 -110 314 -128 q 393 -92 350 -92 q 454 -110 436 -92 q 472 -156 472 -128 l 472 -175 q 454 -221 472 -203 q 393 -239 436 -239 z "},"ầ":{"ha":833,"x_min":32,"x_max":764,"o":"m 688 0 q 594 33 622 0 q 560 117 567 67 l 553 117 q 477 19 529 54 q 338 -17 425 -17 q 158 42 225 -17 q 92 201 92 100 q 165 356 92 301 q 400 410 238 410 l 553 410 l 553 481 q 508 599 553 560 q 382 639 464 639 q 264 610 310 639 q 190 533 218 582 l 115 589 q 153 643 129 617 q 211 690 176 669 q 290 722 246 710 q 389 733 335 733 q 590 669 515 733 q 664 492 664 606 l 664 97 l 764 97 l 764 0 l 688 0 m 357 76 q 435 87 400 76 q 497 115 471 97 q 538 156 524 132 q 553 208 553 181 l 553 326 l 400 326 q 254 299 300 326 q 208 218 208 271 l 208 189 q 248 105 208 133 q 357 76 288 76 m 32 1210 l 129 1257 l 247 1021 l 179 989 l 32 1210 m 463 1049 l 615 849 l 554 807 l 392 972 l 229 807 l 171 849 l 324 1049 l 463 1049 z "},"ẩ":{"ha":833,"x_min":92,"x_max":764,"o":"m 688 0 q 594 33 622 0 q 560 117 567 67 l 553 117 q 477 19 529 54 q 338 -17 425 -17 q 158 42 225 -17 q 92 201 92 100 q 165 356 92 301 q 400 410 238 410 l 553 410 l 553 481 q 508 599 553 560 q 382 639 464 639 q 264 610 310 639 q 190 533 218 582 l 115 589 q 153 643 129 617 q 211 690 176 669 q 290 722 246 710 q 389 733 335 733 q 590 669 515 733 q 664 492 664 606 l 664 97 l 764 97 l 764 0 l 688 0 m 357 76 q 435 87 400 76 q 497 115 471 97 q 538 156 524 132 q 553 208 553 181 l 553 326 l 400 326 q 254 299 300 326 q 208 218 208 271 l 208 189 q 248 105 208 133 q 357 76 288 76 m 467 1242 l 618 1242 q 693 1219 671 1242 q 715 1165 715 1197 q 697 1099 715 1135 q 647 1022 679 1063 l 614 981 l 550 1013 l 631 1157 l 467 1157 l 467 1242 m 463 1049 l 615 849 l 554 807 l 392 972 l 229 807 l 171 849 l 324 1049 l 463 1049 z "},"ẫ":{"ha":833,"x_min":92,"x_max":764,"o":"m 688 0 q 594 33 622 0 q 560 117 567 67 l 553 117 q 477 19 529 54 q 338 -17 425 -17 q 158 42 225 -17 q 92 201 92 100 q 165 356 92 301 q 400 410 238 410 l 553 410 l 553 481 q 508 599 553 560 q 382 639 464 639 q 264 610 310 639 q 190 533 218 582 l 115 589 q 153 643 129 617 q 211 690 176 669 q 290 722 246 710 q 389 733 335 733 q 590 669 515 733 q 664 492 664 606 l 664 97 l 764 97 l 764 0 l 688 0 m 357 76 q 435 87 400 76 q 497 115 471 97 q 538 156 524 132 q 553 208 553 181 l 553 326 l 400 326 q 254 299 300 326 q 208 218 208 271 l 208 189 q 248 105 208 133 q 357 76 288 76 m 293 1239 q 356 1226 329 1239 q 404 1203 382 1214 q 460 1177 438 1185 q 501 1169 483 1169 q 543 1179 525 1169 q 582 1207 561 1189 l 625 1157 q 574 1106 606 1129 q 493 1083 542 1083 q 431 1096 457 1083 q 382 1119 404 1108 q 326 1145 349 1138 q 285 1153 303 1153 q 243 1143 261 1153 q 204 1115 225 1133 l 161 1165 q 213 1216 181 1193 q 293 1239 244 1239 m 463 1035 l 615 849 l 554 807 l 392 961 l 229 807 l 171 849 l 324 1035 l 463 1035 z "},"æ":{"ha":833,"x_min":14,"x_max":808,"o":"m 196 -17 q 65 36 117 -17 q 14 192 14 89 q 77 355 14 300 q 261 410 140 410 l 349 410 l 349 483 q 319 613 349 576 q 236 650 289 650 q 153 619 183 650 q 104 540 124 589 l 31 586 q 60 640 42 614 q 105 688 79 667 q 165 721 131 708 q 240 733 199 733 q 346 706 303 733 q 413 625 389 678 l 417 625 q 490 709 444 685 q 589 733 535 733 q 753 651 697 733 q 808 406 808 568 l 808 331 l 450 331 l 450 296 q 484 135 450 197 q 583 72 518 72 q 631 83 610 72 q 669 110 653 93 q 697 150 685 128 q 717 196 708 172 l 797 158 q 767 95 786 126 q 722 39 749 64 q 659 -1 694 14 q 581 -17 624 -17 q 458 25 510 -17 q 378 142 407 67 l 374 142 q 308 22 354 60 q 196 -17 261 -17 m 215 69 q 274 81 249 69 q 315 113 299 93 q 340 159 332 133 q 349 214 349 185 l 349 331 l 276 331 q 158 303 200 331 q 115 211 115 275 l 115 190 q 138 101 115 133 q 215 69 160 69 m 583 653 q 485 605 519 653 q 450 457 450 557 l 450 410 l 717 410 l 717 457 q 682 605 717 557 q 583 653 647 653 z "},"ǽ":{"ha":833,"x_min":14,"x_max":808,"o":"m 196 -17 q 65 36 117 -17 q 14 192 14 89 q 77 355 14 300 q 261 410 140 410 l 349 410 l 349 483 q 319 613 349 576 q 236 650 289 650 q 153 619 183 650 q 104 540 124 589 l 31 586 q 60 640 42 614 q 105 688 79 667 q 165 721 131 708 q 240 733 199 733 q 346 706 303 733 q 413 625 389 678 l 417 625 q 490 709 444 685 q 589 733 535 733 q 753 651 697 733 q 808 406 808 568 l 808 331 l 450 331 l 450 296 q 484 135 450 197 q 583 72 518 72 q 631 83 610 72 q 669 110 653 93 q 697 150 685 128 q 717 196 708 172 l 797 158 q 767 95 786 126 q 722 39 749 64 q 659 -1 694 14 q 581 -17 624 -17 q 458 25 510 -17 q 378 142 407 67 l 374 142 q 308 22 354 60 q 196 -17 261 -17 m 215 69 q 274 81 249 69 q 315 113 299 93 q 340 159 332 133 q 349 214 349 185 l 349 331 l 276 331 q 158 303 200 331 q 115 211 115 275 l 115 190 q 138 101 115 133 q 215 69 160 69 m 583 653 q 485 605 519 653 q 450 457 450 557 l 450 410 l 717 410 l 717 457 q 682 605 717 557 q 583 653 647 653 m 426 813 l 354 846 l 472 1082 l 574 1033 l 426 813 z "},"ć":{"ha":833,"x_min":117,"x_max":717,"o":"m 442 -17 q 303 10 364 -17 q 201 86 243 38 q 138 204 160 135 q 117 358 117 274 q 139 513 117 443 q 203 631 161 582 q 304 707 244 681 q 440 733 364 733 q 610 688 544 733 q 706 568 675 642 l 617 521 q 552 607 597 576 q 440 638 507 638 q 353 622 392 638 q 289 576 315 606 q 249 507 263 547 q 236 419 236 467 l 236 297 q 249 210 236 250 q 289 140 263 169 q 354 95 315 111 q 443 79 393 79 q 563 113 515 79 q 638 204 610 146 l 717 150 q 617 31 685 78 q 442 -17 550 -17 m 444 813 l 372 846 l 490 1082 l 592 1033 l 444 813 z "},"č":{"ha":833,"x_min":117,"x_max":717,"o":"m 442 -17 q 303 10 364 -17 q 201 86 243 38 q 138 204 160 135 q 117 358 117 274 q 139 513 117 443 q 203 631 161 582 q 304 707 244 681 q 440 733 364 733 q 610 688 544 733 q 706 568 675 642 l 617 521 q 552 607 597 576 q 440 638 507 638 q 353 622 392 638 q 289 576 315 606 q 249 507 263 547 q 236 419 236 467 l 236 297 q 249 210 236 250 q 289 140 263 169 q 354 95 315 111 q 443 79 393 79 q 563 113 515 79 q 638 204 610 146 l 717 150 q 617 31 685 78 q 442 -17 550 -17 m 365 832 l 211 1031 l 275 1074 l 438 911 l 600 1074 l 658 1031 l 504 832 l 365 832 z "},"ç":{"ha":833,"x_min":117,"x_max":717,"o":"m 440 733 q 610 688 544 733 q 706 568 675 642 l 617 521 q 552 607 597 576 q 440 638 507 638 q 353 622 392 638 q 289 576 315 606 q 249 507 263 547 q 236 419 236 467 l 236 297 q 249 210 236 250 q 289 140 263 169 q 354 95 315 111 q 443 79 393 79 q 563 113 515 79 q 638 204 610 146 l 717 150 q 621 33 685 79 q 453 -17 557 -14 l 439 -85 l 443 -89 q 497 -81 469 -81 q 565 -104 538 -81 q 592 -172 592 -128 q 579 -224 592 -201 q 545 -260 567 -246 q 496 -281 524 -274 q 438 -287 468 -287 q 348 -269 381 -287 q 300 -231 315 -250 l 353 -174 q 386 -201 365 -189 q 438 -212 407 -212 q 481 -202 464 -212 q 499 -169 499 -192 q 481 -135 499 -150 q 404 -112 463 -121 l 365 -107 l 385 -12 q 187 106 257 7 q 117 358 117 204 q 139 513 117 443 q 203 631 161 582 q 304 707 244 681 q 440 733 364 733 z "},"ĉ":{"ha":833,"x_min":117,"x_max":717,"o":"m 442 -17 q 303 10 364 -17 q 201 86 243 38 q 138 204 160 135 q 117 358 117 274 q 139 513 117 443 q 203 631 161 582 q 304 707 244 681 q 440 733 364 733 q 610 688 544 733 q 706 568 675 642 l 617 521 q 552 607 597 576 q 440 638 507 638 q 353 622 392 638 q 289 576 315 606 q 249 507 263 547 q 236 419 236 467 l 236 297 q 249 210 236 250 q 289 140 263 169 q 354 95 315 111 q 443 79 393 79 q 563 113 515 79 q 638 204 610 146 l 717 150 q 617 31 685 78 q 442 -17 550 -17 m 504 1063 l 658 864 l 596 821 l 433 983 l 271 821 l 211 864 l 365 1063 l 504 1063 z "},"ċ":{"ha":833,"x_min":117,"x_max":717,"o":"m 442 -17 q 303 10 364 -17 q 201 86 243 38 q 138 204 160 135 q 117 358 117 274 q 139 513 117 443 q 203 631 161 582 q 304 707 244 681 q 440 733 364 733 q 610 688 544 733 q 706 568 675 642 l 617 521 q 552 607 597 576 q 440 638 507 638 q 353 622 392 638 q 289 576 315 606 q 249 507 263 547 q 236 419 236 467 l 236 297 q 249 210 236 250 q 289 140 263 169 q 354 95 315 111 q 443 79 393 79 q 563 113 515 79 q 638 204 610 146 l 717 150 q 617 31 685 78 q 442 -17 550 -17 m 435 850 q 367 870 386 850 q 347 921 347 890 l 347 943 q 367 994 347 974 q 435 1014 386 1014 q 503 994 483 1014 q 522 943 522 974 l 522 921 q 503 870 522 890 q 435 850 483 850 z "},"ď":{"ha":833,"x_min":63,"x_max":900,"o":"m 329 -17 q 133 82 203 -17 q 63 358 63 181 q 133 635 63 536 q 329 733 203 733 q 536 600 471 733 l 542 600 l 542 1028 l 653 1028 l 653 0 l 542 0 l 542 117 l 536 117 q 329 -17 471 -17 m 365 82 q 432 92 400 82 q 488 120 464 101 q 527 166 513 139 q 542 229 542 193 l 542 488 q 527 551 542 524 q 488 597 513 578 q 432 625 464 615 q 365 635 400 635 q 228 577 274 635 q 182 419 182 519 l 182 297 q 228 140 182 197 q 365 82 274 82 m 757 1028 l 900 1028 l 832 765 l 747 765 l 757 1028 z "},"đ":{"ha":833,"x_min":83,"x_max":792,"o":"m 590 117 l 585 117 q 364 -17 515 -17 q 158 82 232 -17 q 83 358 83 181 q 158 635 83 536 q 364 733 232 733 q 585 600 515 733 l 590 600 l 590 844 l 378 844 l 378 931 l 590 931 l 590 1028 l 701 1028 l 701 931 l 792 931 l 792 844 l 701 844 l 701 0 l 590 0 l 590 117 m 407 82 q 478 92 444 82 q 536 120 511 101 q 576 166 561 139 q 590 229 590 193 l 590 488 q 576 551 590 524 q 536 597 561 578 q 478 625 511 615 q 407 635 444 635 q 256 576 310 635 q 203 419 203 517 l 203 297 q 256 141 203 200 q 407 82 310 82 z "},"ð":{"ha":833,"x_min":92,"x_max":742,"o":"m 638 983 l 517 899 q 601 801 560 856 q 673 682 642 747 q 723 538 704 617 q 742 369 742 460 q 656 79 742 175 q 421 -17 569 -17 q 282 8 343 -17 q 178 81 221 33 q 114 194 136 128 q 92 342 92 260 q 114 490 92 424 q 176 603 136 556 q 269 675 215 650 q 389 700 324 700 q 529 661 474 700 q 618 567 585 622 l 624 569 q 542 722 589 656 q 438 844 496 789 l 300 747 l 247 810 l 375 899 q 279 967 329 935 q 176 1028 229 999 l 351 1028 q 401 995 375 1013 q 454 956 426 978 l 585 1046 l 638 983 m 417 79 q 567 132 510 79 q 624 293 624 185 l 624 390 q 567 551 624 499 q 417 604 510 604 q 267 551 324 604 q 210 390 210 499 l 210 293 q 267 132 210 185 q 417 79 324 79 z "},"é":{"ha":833,"x_min":93,"x_max":740,"o":"m 429 -17 q 290 10 351 -17 q 184 85 228 36 q 117 203 140 135 q 93 357 93 272 q 117 513 93 443 q 185 631 142 582 q 288 707 228 681 q 422 733 349 733 q 553 707 494 733 q 654 634 613 681 q 718 524 696 588 q 740 383 740 460 l 740 331 l 210 331 l 210 297 q 225 210 210 250 q 269 140 240 169 q 338 95 297 111 q 429 79 379 79 q 554 113 501 79 q 635 204 607 146 l 717 149 q 610 30 685 76 q 429 -17 536 -17 m 422 642 q 338 625 376 642 q 270 579 299 608 q 226 510 242 550 q 210 424 210 471 l 210 414 l 621 414 l 621 429 q 606 515 621 476 q 566 583 592 554 q 503 626 540 611 q 422 642 467 642 m 429 813 l 357 846 l 475 1082 l 576 1033 l 429 813 z "},"ĕ":{"ha":833,"x_min":93,"x_max":740,"o":"m 429 -17 q 290 10 351 -17 q 184 85 228 36 q 117 203 140 135 q 93 357 93 272 q 117 513 93 443 q 185 631 142 582 q 288 707 228 681 q 422 733 349 733 q 553 707 494 733 q 654 634 613 681 q 718 524 696 588 q 740 383 740 460 l 740 331 l 210 331 l 210 297 q 225 210 210 250 q 269 140 240 169 q 338 95 297 111 q 429 79 379 79 q 554 113 501 79 q 635 204 607 146 l 717 149 q 610 30 685 76 q 429 -17 536 -17 m 422 642 q 338 625 376 642 q 270 579 299 608 q 226 510 242 550 q 210 424 210 471 l 210 414 l 621 414 l 621 429 q 606 515 621 476 q 566 583 592 554 q 503 626 540 611 q 422 642 467 642 m 419 826 q 326 847 364 826 q 262 899 288 868 q 221 967 236 931 q 196 1036 206 1004 l 267 1067 l 296 1019 q 325 974 313 993 q 351 942 338 954 q 380 923 364 929 q 419 917 396 917 q 458 923 442 917 q 488 942 475 929 q 514 974 501 954 q 543 1019 526 993 l 572 1067 l 643 1036 q 618 967 633 1004 q 577 899 603 931 q 513 847 551 868 q 419 826 475 826 z "},"ě":{"ha":833,"x_min":93,"x_max":740,"o":"m 429 -17 q 290 10 351 -17 q 184 85 228 36 q 117 203 140 135 q 93 357 93 272 q 117 513 93 443 q 185 631 142 582 q 288 707 228 681 q 422 733 349 733 q 553 707 494 733 q 654 634 613 681 q 718 524 696 588 q 740 383 740 460 l 740 331 l 210 331 l 210 297 q 225 210 210 250 q 269 140 240 169 q 338 95 297 111 q 429 79 379 79 q 554 113 501 79 q 635 204 607 146 l 717 149 q 610 30 685 76 q 429 -17 536 -17 m 422 642 q 338 625 376 642 q 270 579 299 608 q 226 510 242 550 q 210 424 210 471 l 210 414 l 621 414 l 621 429 q 606 515 621 476 q 566 583 592 554 q 503 626 540 611 q 422 642 467 642 m 350 832 l 196 1031 l 260 1074 l 422 911 l 585 1074 l 643 1031 l 489 832 l 350 832 z "},"ê":{"ha":833,"x_min":93,"x_max":740,"o":"m 429 -17 q 290 10 351 -17 q 184 85 228 36 q 117 203 140 135 q 93 357 93 272 q 117 513 93 443 q 185 631 142 582 q 288 707 228 681 q 422 733 349 733 q 553 707 494 733 q 654 634 613 681 q 718 524 696 588 q 740 383 740 460 l 740 331 l 210 331 l 210 297 q 225 210 210 250 q 269 140 240 169 q 338 95 297 111 q 429 79 379 79 q 554 113 501 79 q 635 204 607 146 l 717 149 q 610 30 685 76 q 429 -17 536 -17 m 422 642 q 338 625 376 642 q 270 579 299 608 q 226 510 242 550 q 210 424 210 471 l 210 414 l 621 414 l 621 429 q 606 515 621 476 q 566 583 592 554 q 503 626 540 611 q 422 642 467 642 m 489 1063 l 643 864 l 581 821 l 418 983 l 256 821 l 196 864 l 350 1063 l 489 1063 z "},"ë":{"ha":833,"x_min":93,"x_max":740,"o":"m 429 -17 q 290 10 351 -17 q 184 85 228 36 q 117 203 140 135 q 93 357 93 272 q 117 513 93 443 q 185 631 142 582 q 288 707 228 681 q 422 733 349 733 q 553 707 494 733 q 654 634 613 681 q 718 524 696 588 q 740 383 740 460 l 740 331 l 210 331 l 210 297 q 225 210 210 250 q 269 140 240 169 q 338 95 297 111 q 429 79 379 79 q 554 113 501 79 q 635 204 607 146 l 717 149 q 610 30 685 76 q 429 -17 536 -17 m 422 642 q 338 625 376 642 q 270 579 299 608 q 226 510 242 550 q 210 424 210 471 l 210 414 l 621 414 l 621 429 q 606 515 621 476 q 566 583 592 554 q 503 626 540 611 q 422 642 467 642 m 290 858 q 229 876 247 858 q 211 922 211 894 l 211 942 q 229 988 211 969 q 290 1006 247 1006 q 351 988 333 1006 q 369 942 369 969 l 369 922 q 351 876 369 894 q 290 858 333 858 m 549 858 q 488 876 506 858 q 469 922 469 894 l 469 942 q 488 988 469 969 q 549 1006 506 1006 q 610 988 592 1006 q 628 942 628 969 l 628 922 q 610 876 628 894 q 549 858 592 858 z "},"ė":{"ha":833,"x_min":93,"x_max":740,"o":"m 429 -17 q 290 10 351 -17 q 184 85 228 36 q 117 203 140 135 q 93 357 93 272 q 117 513 93 443 q 185 631 142 582 q 288 707 228 681 q 422 733 349 733 q 553 707 494 733 q 654 634 613 681 q 718 524 696 588 q 740 383 740 460 l 740 331 l 210 331 l 210 297 q 225 210 210 250 q 269 140 240 169 q 338 95 297 111 q 429 79 379 79 q 554 113 501 79 q 635 204 607 146 l 717 149 q 610 30 685 76 q 429 -17 536 -17 m 422 642 q 338 625 376 642 q 270 579 299 608 q 226 510 242 550 q 210 424 210 471 l 210 414 l 621 414 l 621 429 q 606 515 621 476 q 566 583 592 554 q 503 626 540 611 q 422 642 467 642 m 419 850 q 351 870 371 850 q 332 921 332 890 l 332 943 q 351 994 332 974 q 419 1014 371 1014 q 488 994 468 1014 q 507 943 507 974 l 507 921 q 488 870 507 890 q 419 850 468 850 z "},"ẹ":{"ha":833,"x_min":93,"x_max":740,"o":"m 429 -17 q 290 10 351 -17 q 184 85 228 36 q 117 203 140 135 q 93 357 93 272 q 117 513 93 443 q 185 631 142 582 q 288 707 228 681 q 422 733 349 733 q 553 707 494 733 q 654 634 613 681 q 718 524 696 588 q 740 383 740 460 l 740 331 l 210 331 l 210 297 q 225 210 210 250 q 269 140 240 169 q 338 95 297 111 q 429 79 379 79 q 554 113 501 79 q 635 204 607 146 l 717 149 q 610 30 685 76 q 429 -17 536 -17 m 422 642 q 338 625 376 642 q 270 579 299 608 q 226 510 242 550 q 210 424 210 471 l 210 414 l 621 414 l 621 429 q 606 515 621 476 q 566 583 592 554 q 503 626 540 611 q 422 642 467 642 m 429 -239 q 368 -221 386 -239 q 350 -175 350 -203 l 350 -156 q 368 -110 350 -128 q 429 -92 386 -92 q 490 -110 472 -92 q 508 -156 508 -128 l 508 -175 q 490 -221 508 -203 q 429 -239 472 -239 z "},"è":{"ha":833,"x_min":93,"x_max":740,"o":"m 429 -17 q 290 10 351 -17 q 184 85 228 36 q 117 203 140 135 q 93 357 93 272 q 117 513 93 443 q 185 631 142 582 q 288 707 228 681 q 422 733 349 733 q 553 707 494 733 q 654 634 613 681 q 718 524 696 588 q 740 383 740 460 l 740 331 l 210 331 l 210 297 q 225 210 210 250 q 269 140 240 169 q 338 95 297 111 q 429 79 379 79 q 554 113 501 79 q 635 204 607 146 l 717 149 q 610 30 685 76 q 429 -17 536 -17 m 422 642 q 338 625 376 642 q 270 579 299 608 q 226 510 242 550 q 210 424 210 471 l 210 414 l 621 414 l 621 429 q 606 515 621 476 q 566 583 592 554 q 503 626 540 611 q 422 642 467 642 m 263 1033 l 364 1082 l 482 846 l 410 813 l 263 1033 z "},"ẻ":{"ha":833,"x_min":93,"x_max":740,"o":"m 429 -17 q 290 10 351 -17 q 184 85 228 36 q 117 203 140 135 q 93 357 93 272 q 117 513 93 443 q 185 631 142 582 q 288 707 228 681 q 422 733 349 733 q 553 707 494 733 q 654 634 613 681 q 718 524 696 588 q 740 383 740 460 l 740 331 l 210 331 l 210 297 q 225 210 210 250 q 269 140 240 169 q 338 95 297 111 q 429 79 379 79 q 554 113 501 79 q 635 204 607 146 l 717 149 q 610 30 685 76 q 429 -17 536 -17 m 422 642 q 338 625 376 642 q 270 579 299 608 q 226 510 242 550 q 210 424 210 471 l 210 414 l 621 414 l 621 429 q 606 515 621 476 q 566 583 592 554 q 503 626 540 611 q 422 642 467 642 m 303 1063 l 454 1063 q 529 1040 507 1063 q 551 986 551 1018 q 533 919 551 956 q 483 843 515 883 l 450 801 l 386 833 l 467 978 l 303 978 l 303 1063 z "},"ē":{"ha":833,"x_min":93,"x_max":740,"o":"m 429 -17 q 290 10 351 -17 q 184 85 228 36 q 117 203 140 135 q 93 357 93 272 q 117 513 93 443 q 185 631 142 582 q 288 707 228 681 q 422 733 349 733 q 553 707 494 733 q 654 634 613 681 q 718 524 696 588 q 740 383 740 460 l 740 331 l 210 331 l 210 297 q 225 210 210 250 q 269 140 240 169 q 338 95 297 111 q 429 79 379 79 q 554 113 501 79 q 635 204 607 146 l 717 149 q 610 30 685 76 q 429 -17 536 -17 m 422 642 q 338 625 376 642 q 270 579 299 608 q 226 510 242 550 q 210 424 210 471 l 210 414 l 621 414 l 621 429 q 606 515 621 476 q 566 583 592 554 q 503 626 540 611 q 422 642 467 642 m 225 979 l 614 979 l 614 885 l 225 885 l 225 979 z "},"ę":{"ha":833,"x_min":93,"x_max":740,"o":"m 501 -287 q 394 -260 438 -287 q 350 -176 350 -232 q 507 -8 350 -82 l 504 -4 q 469 -13 490 -10 q 419 -17 447 -17 q 288 10 347 -17 q 185 85 228 36 q 117 203 142 135 q 93 358 93 272 q 117 513 93 443 q 185 631 142 582 q 288 706 228 679 q 422 733 349 733 q 553 707 494 733 q 654 634 613 681 q 718 524 696 588 q 740 383 740 460 l 740 331 l 210 331 l 210 297 q 225 210 210 250 q 269 140 240 169 q 338 95 297 111 q 429 79 379 79 q 554 113 501 79 q 635 204 607 146 l 717 149 q 690 105 707 126 q 651 62 672 83 q 608 21 631 40 q 563 -17 585 1 q 508 -63 531 -43 q 471 -99 485 -83 q 451 -129 457 -115 q 444 -158 444 -143 q 463 -199 444 -187 q 503 -210 481 -210 q 575 -174 546 -210 l 631 -231 q 585 -271 617 -254 q 501 -287 554 -287 m 621 414 l 621 429 q 606 515 621 476 q 566 583 592 554 q 503 626 540 611 q 422 642 467 642 q 338 625 376 642 q 270 579 299 608 q 226 510 242 550 q 210 424 210 471 l 210 414 l 621 414 z "},"ẽ":{"ha":833,"x_min":93,"x_max":740,"o":"m 429 -17 q 290 10 351 -17 q 184 85 228 36 q 117 203 140 135 q 93 357 93 272 q 117 513 93 443 q 185 631 142 582 q 288 707 228 681 q 422 733 349 733 q 553 707 494 733 q 654 634 613 681 q 718 524 696 588 q 740 383 740 460 l 740 331 l 210 331 l 210 297 q 225 210 210 250 q 269 140 240 169 q 338 95 297 111 q 429 79 379 79 q 554 113 501 79 q 635 204 607 146 l 717 149 q 610 30 685 76 q 429 -17 536 -17 m 422 642 q 338 625 376 642 q 270 579 299 608 q 226 510 242 550 q 210 424 210 471 l 210 414 l 621 414 l 621 429 q 606 515 621 476 q 566 583 592 554 q 503 626 540 611 q 422 642 467 642 m 521 850 q 458 863 485 850 q 410 886 432 875 q 353 912 376 904 q 313 919 331 919 q 271 910 289 919 q 232 882 253 900 l 186 938 q 238 988 206 965 q 318 1011 269 1011 q 381 999 354 1011 q 429 975 407 986 q 485 949 463 957 q 526 942 508 942 q 568 951 550 942 q 607 979 586 961 l 653 924 q 601 873 633 896 q 521 850 569 850 z "},"ế":{"ha":833,"x_min":93,"x_max":781,"o":"m 429 -17 q 290 10 351 -17 q 184 85 228 36 q 117 203 140 135 q 93 357 93 272 q 117 513 93 443 q 185 631 142 582 q 288 707 228 681 q 422 733 349 733 q 553 707 494 733 q 654 634 613 681 q 718 524 696 588 q 740 383 740 460 l 740 331 l 210 331 l 210 297 q 225 210 210 250 q 269 140 240 169 q 338 95 297 111 q 429 79 379 79 q 554 113 501 79 q 635 204 607 146 l 717 149 q 610 30 685 76 q 429 -17 536 -17 m 422 642 q 338 625 376 642 q 270 579 299 608 q 226 510 242 550 q 210 424 210 471 l 210 414 l 621 414 l 621 429 q 606 515 621 476 q 566 583 592 554 q 503 626 540 611 q 422 642 467 642 m 633 989 l 565 1021 l 683 1257 l 781 1210 l 633 989 m 489 1049 l 642 849 l 581 807 l 418 972 l 256 807 l 197 849 l 350 1049 l 489 1049 z "},"ệ":{"ha":833,"x_min":93,"x_max":740,"o":"m 429 -17 q 290 10 351 -17 q 184 85 228 36 q 117 203 140 135 q 93 357 93 272 q 117 513 93 443 q 185 631 142 582 q 288 707 228 681 q 422 733 349 733 q 553 707 494 733 q 654 634 613 681 q 718 524 696 588 q 740 383 740 460 l 740 331 l 210 331 l 210 297 q 225 210 210 250 q 269 140 240 169 q 338 95 297 111 q 429 79 379 79 q 554 113 501 79 q 635 204 607 146 l 717 149 q 610 30 685 76 q 429 -17 536 -17 m 422 642 q 338 625 376 642 q 270 579 299 608 q 226 510 242 550 q 210 424 210 471 l 210 414 l 621 414 l 621 429 q 606 515 621 476 q 566 583 592 554 q 503 626 540 611 q 422 642 467 642 m 489 1063 l 643 864 l 581 821 l 418 983 l 256 821 l 196 864 l 350 1063 l 489 1063 m 429 -239 q 368 -221 386 -239 q 350 -175 350 -203 l 350 -156 q 368 -110 350 -128 q 429 -92 386 -92 q 490 -110 472 -92 q 508 -156 508 -128 l 508 -175 q 490 -221 508 -203 q 429 -239 472 -239 z "},"ề":{"ha":833,"x_min":58,"x_max":740,"o":"m 429 -17 q 290 10 351 -17 q 184 85 228 36 q 117 203 140 135 q 93 357 93 272 q 117 513 93 443 q 185 631 142 582 q 288 707 228 681 q 422 733 349 733 q 553 707 494 733 q 654 634 613 681 q 718 524 696 588 q 740 383 740 460 l 740 331 l 210 331 l 210 297 q 225 210 210 250 q 269 140 240 169 q 338 95 297 111 q 429 79 379 79 q 554 113 501 79 q 635 204 607 146 l 717 149 q 610 30 685 76 q 429 -17 536 -17 m 422 642 q 338 625 376 642 q 270 579 299 608 q 226 510 242 550 q 210 424 210 471 l 210 414 l 621 414 l 621 429 q 606 515 621 476 q 566 583 592 554 q 503 626 540 611 q 422 642 467 642 m 58 1210 l 156 1257 l 274 1021 l 206 989 l 58 1210 m 489 1049 l 642 849 l 581 807 l 418 972 l 256 807 l 197 849 l 350 1049 l 489 1049 z "},"ể":{"ha":833,"x_min":93,"x_max":742,"o":"m 429 -17 q 290 10 351 -17 q 184 85 228 36 q 117 203 140 135 q 93 357 93 272 q 117 513 93 443 q 185 631 142 582 q 288 707 228 681 q 422 733 349 733 q 553 707 494 733 q 654 634 613 681 q 718 524 696 588 q 740 383 740 460 l 740 331 l 210 331 l 210 297 q 225 210 210 250 q 269 140 240 169 q 338 95 297 111 q 429 79 379 79 q 554 113 501 79 q 635 204 607 146 l 717 149 q 610 30 685 76 q 429 -17 536 -17 m 422 642 q 338 625 376 642 q 270 579 299 608 q 226 510 242 550 q 210 424 210 471 l 210 414 l 621 414 l 621 429 q 606 515 621 476 q 566 583 592 554 q 503 626 540 611 q 422 642 467 642 m 493 1242 l 644 1242 q 719 1219 697 1242 q 742 1165 742 1197 q 724 1099 742 1135 q 674 1022 706 1063 l 640 981 l 576 1013 l 657 1157 l 493 1157 l 493 1242 m 489 1049 l 642 849 l 581 807 l 418 972 l 256 807 l 197 849 l 350 1049 l 489 1049 z "},"ễ":{"ha":833,"x_min":93,"x_max":740,"o":"m 429 -17 q 290 10 351 -17 q 184 85 228 36 q 117 203 140 135 q 93 357 93 272 q 117 513 93 443 q 185 631 142 582 q 288 707 228 681 q 422 733 349 733 q 553 707 494 733 q 654 634 613 681 q 718 524 696 588 q 740 383 740 460 l 740 331 l 210 331 l 210 297 q 225 210 210 250 q 269 140 240 169 q 338 95 297 111 q 429 79 379 79 q 554 113 501 79 q 635 204 607 146 l 717 149 q 610 30 685 76 q 429 -17 536 -17 m 422 642 q 338 625 376 642 q 270 579 299 608 q 226 510 242 550 q 210 424 210 471 l 210 414 l 621 414 l 621 429 q 606 515 621 476 q 566 583 592 554 q 503 626 540 611 q 422 642 467 642 m 319 1239 q 382 1226 356 1239 q 431 1203 408 1214 q 487 1177 464 1185 q 528 1169 510 1169 q 569 1179 551 1169 q 608 1207 588 1189 l 651 1157 q 600 1106 632 1129 q 519 1083 568 1083 q 457 1096 483 1083 q 408 1119 431 1108 q 352 1145 375 1138 q 311 1153 329 1153 q 269 1143 288 1153 q 231 1115 251 1133 l 188 1165 q 239 1216 207 1193 q 319 1239 271 1239 m 489 1035 l 642 849 l 581 807 l 418 961 l 256 807 l 197 849 l 350 1035 l 489 1035 z "},"ə":{"ha":833,"x_min":93,"x_max":740,"o":"m 624 386 l 624 419 q 608 507 624 467 q 565 576 593 547 q 495 622 536 606 q 404 638 454 638 q 279 604 332 638 q 199 513 226 571 l 117 568 q 223 687 149 640 q 404 733 297 733 q 543 707 481 733 q 649 631 606 681 q 717 513 693 582 q 740 360 740 444 q 716 204 740 274 q 649 85 692 135 q 544 10 606 36 q 411 -17 483 -17 q 280 10 339 -17 q 179 83 221 36 q 115 193 138 129 q 93 333 93 257 l 93 386 l 624 386 m 213 288 q 227 201 213 240 q 267 134 242 163 q 330 90 293 106 q 411 75 367 75 q 496 92 457 75 q 563 138 535 108 q 608 206 592 167 q 624 293 624 246 l 624 303 l 213 303 l 213 288 z "},"ğ":{"ha":833,"x_min":93,"x_max":779,"o":"m 418 -294 q 169 -249 244 -294 q 93 -117 93 -203 q 124 -26 93 -58 q 210 21 154 6 l 210 38 q 163 76 179 53 q 146 136 146 100 q 183 219 146 192 q 275 261 219 247 l 275 267 q 172 353 208 296 q 135 486 135 410 q 154 586 135 540 q 210 665 174 632 q 299 715 247 697 q 413 733 350 733 q 521 717 472 733 l 772 717 l 772 628 l 642 628 q 680 563 668 600 q 692 486 692 526 q 672 386 692 432 q 615 308 651 340 q 527 257 579 275 q 413 239 475 239 q 378 240 394 239 q 344 244 361 242 q 310 235 328 242 q 276 219 292 229 q 251 194 261 208 q 242 163 242 181 q 274 120 242 131 q 357 110 306 110 l 515 110 q 717 58 654 110 q 779 -82 779 6 q 689 -242 779 -190 q 418 -294 599 -294 m 413 325 q 535 364 496 325 q 575 467 575 403 l 575 507 q 535 609 575 571 q 413 647 496 647 q 290 609 329 647 q 251 507 251 571 l 251 467 q 290 364 251 403 q 413 325 329 325 m 675 -87 q 640 -19 675 -44 q 519 7 606 7 l 271 7 q 199 -90 199 -22 q 236 -172 199 -137 q 361 -206 274 -206 l 469 -206 q 621 -176 567 -206 q 675 -87 675 -146 m 414 826 q 320 847 358 826 q 256 899 282 868 q 215 967 231 931 q 190 1036 200 1004 l 261 1067 l 290 1019 q 319 974 307 993 q 345 942 332 954 q 374 923 358 929 q 414 917 390 917 q 453 923 436 917 q 483 942 469 929 q 508 974 496 954 q 538 1019 521 993 l 567 1067 l 638 1036 q 613 967 628 1004 q 572 899 597 931 q 508 847 546 868 q 414 826 469 826 z "},"ĝ":{"ha":833,"x_min":93,"x_max":779,"o":"m 418 -294 q 169 -249 244 -294 q 93 -117 93 -203 q 124 -26 93 -58 q 210 21 154 6 l 210 38 q 163 76 179 53 q 146 136 146 100 q 183 219 146 192 q 275 261 219 247 l 275 267 q 172 353 208 296 q 135 486 135 410 q 154 586 135 540 q 210 665 174 632 q 299 715 247 697 q 413 733 350 733 q 521 717 472 733 l 772 717 l 772 628 l 642 628 q 680 563 668 600 q 692 486 692 526 q 672 386 692 432 q 615 308 651 340 q 527 257 579 275 q 413 239 475 239 q 378 240 394 239 q 344 244 361 242 q 310 235 328 242 q 276 219 292 229 q 251 194 261 208 q 242 163 242 181 q 274 120 242 131 q 357 110 306 110 l 515 110 q 717 58 654 110 q 779 -82 779 6 q 689 -242 779 -190 q 418 -294 599 -294 m 413 325 q 535 364 496 325 q 575 467 575 403 l 575 507 q 535 609 575 571 q 413 647 496 647 q 290 609 329 647 q 251 507 251 571 l 251 467 q 290 364 251 403 q 413 325 329 325 m 675 -87 q 640 -19 675 -44 q 519 7 606 7 l 271 7 q 199 -90 199 -22 q 236 -172 199 -137 q 361 -206 274 -206 l 469 -206 q 621 -176 567 -206 q 675 -87 675 -146 m 483 1063 l 638 864 l 575 821 l 413 983 l 250 821 l 190 864 l 344 1063 l 483 1063 z "},"ģ":{"ha":833,"x_min":93,"x_max":779,"o":"m 779 -82 q 689 -242 779 -190 q 418 -294 599 -294 q 169 -249 244 -294 q 93 -117 93 -203 q 124 -26 93 -58 q 210 21 154 6 l 210 38 q 163 76 179 53 q 146 136 146 100 q 183 219 146 192 q 275 261 219 247 l 275 267 q 172 353 208 296 q 135 486 135 410 q 154 586 135 540 q 210 665 174 632 q 299 715 247 697 q 413 733 350 733 q 554 704 493 733 l 554 717 q 574 786 554 758 q 640 814 593 814 l 772 814 l 772 717 l 611 717 l 611 668 q 671 589 650 635 q 692 486 692 543 q 672 386 692 432 q 615 308 651 340 q 527 257 579 275 q 413 239 475 239 q 378 240 394 239 q 344 244 361 242 q 310 235 328 242 q 276 219 292 229 q 251 194 261 208 q 242 163 242 181 q 274 120 242 131 q 357 110 306 110 l 515 110 q 717 58 654 110 q 779 -82 779 6 m 675 -87 q 640 -19 675 -44 q 519 7 606 7 l 271 7 q 199 -90 199 -22 q 236 -172 199 -137 q 361 -206 274 -206 l 469 -206 q 621 -176 567 -206 q 675 -87 675 -146 m 413 325 q 535 364 496 325 q 575 467 575 403 l 575 507 q 535 609 575 571 q 413 647 496 647 q 290 609 329 647 q 251 507 251 571 l 251 467 q 290 364 251 403 q 413 325 329 325 m 440 1078 l 525 1078 l 486 815 l 335 815 l 440 1078 z "},"ġ":{"ha":833,"x_min":93,"x_max":779,"o":"m 779 -82 q 689 -242 779 -190 q 418 -294 599 -294 q 169 -249 244 -294 q 93 -117 93 -203 q 124 -26 93 -58 q 210 21 154 6 l 210 38 q 163 76 179 53 q 146 136 146 100 q 183 219 146 192 q 275 261 219 247 l 275 267 q 172 353 208 296 q 135 486 135 410 q 154 586 135 540 q 210 665 174 632 q 299 715 247 697 q 413 733 350 733 q 554 704 493 733 l 554 717 q 574 786 554 758 q 640 814 593 814 l 772 814 l 772 717 l 611 717 l 611 668 q 671 589 650 635 q 692 486 692 543 q 672 386 692 432 q 615 308 651 340 q 527 257 579 275 q 413 239 475 239 q 378 240 394 239 q 344 244 361 242 q 310 235 328 242 q 276 219 292 229 q 251 194 261 208 q 242 163 242 181 q 274 120 242 131 q 357 110 306 110 l 515 110 q 717 58 654 110 q 779 -82 779 6 m 675 -87 q 640 -19 675 -44 q 519 7 606 7 l 271 7 q 199 -90 199 -22 q 236 -172 199 -137 q 361 -206 274 -206 l 469 -206 q 621 -176 567 -206 q 675 -87 675 -146 m 413 325 q 535 364 496 325 q 575 467 575 403 l 575 507 q 535 609 575 571 q 413 647 496 647 q 290 609 329 647 q 251 507 251 571 l 251 467 q 290 364 251 403 q 413 325 329 325 m 414 850 q 346 870 365 850 q 326 921 326 890 l 326 943 q 346 994 326 974 q 414 1014 365 1014 q 482 994 463 1014 q 501 943 501 974 l 501 921 q 482 870 501 890 q 414 850 463 850 z "},"ħ":{"ha":833,"x_min":46,"x_max":706,"o":"m 136 0 l 136 844 l 46 844 l 46 931 l 136 931 l 136 1028 l 247 1028 l 247 931 l 460 931 l 460 844 l 247 844 l 247 600 l 253 600 q 281 651 264 626 q 322 693 297 675 q 379 722 346 711 q 457 733 413 733 q 638 662 569 733 q 706 460 706 590 l 706 0 l 594 0 l 594 440 q 551 587 594 539 q 425 635 508 635 q 360 626 392 635 q 303 601 328 618 q 263 558 278 585 q 247 497 247 532 l 247 0 l 136 0 z "},"ĥ":{"ha":833,"x_min":-31,"x_max":706,"o":"m 136 1028 l 247 1028 l 247 600 l 253 600 q 281 651 264 626 q 322 693 297 675 q 379 722 346 711 q 457 733 413 733 q 638 662 569 733 q 706 460 706 590 l 706 0 l 594 0 l 594 440 q 551 587 594 539 q 425 635 508 635 q 360 626 392 635 q 303 601 328 618 q 263 558 278 585 q 247 497 247 532 l 247 0 l 136 0 l 136 1028 m 263 1315 l 417 1117 l 354 1074 l 192 1236 l 29 1074 l -31 1117 l 124 1315 l 263 1315 z "},"ı":{"ha":833,"x_min":147,"x_max":758,"o":"m 147 94 l 406 94 l 406 622 l 147 622 l 147 717 l 517 717 l 517 94 l 758 94 l 758 0 l 147 0 l 147 94 z "},"í":{"ha":833,"x_min":147,"x_max":758,"o":"m 147 94 l 406 94 l 406 622 l 147 622 l 147 717 l 517 717 l 517 94 l 758 94 l 758 0 l 147 0 l 147 94 m 471 813 l 399 846 l 517 1082 l 618 1033 l 471 813 z "},"ĭ":{"ha":833,"x_min":147,"x_max":758,"o":"m 147 94 l 406 94 l 406 622 l 147 622 l 147 717 l 517 717 l 517 94 l 758 94 l 758 0 l 147 0 l 147 94 m 461 826 q 367 847 406 826 q 303 899 329 868 q 263 967 278 931 q 238 1036 247 1004 l 308 1067 l 338 1019 q 367 974 354 993 q 392 942 379 954 q 422 923 406 929 q 461 917 438 917 q 500 923 483 917 q 530 942 517 929 q 556 974 543 954 q 585 1019 568 993 l 614 1067 l 685 1036 q 660 967 675 1004 q 619 899 644 931 q 555 847 593 868 q 461 826 517 826 z "},"î":{"ha":833,"x_min":147,"x_max":758,"o":"m 147 94 l 406 94 l 406 622 l 147 622 l 147 717 l 517 717 l 517 94 l 758 94 l 758 0 l 147 0 l 147 94 m 531 1063 l 685 864 l 622 821 l 460 983 l 297 821 l 238 864 l 392 1063 l 531 1063 z "},"ï":{"ha":833,"x_min":147,"x_max":758,"o":"m 147 94 l 406 94 l 406 622 l 147 622 l 147 717 l 517 717 l 517 94 l 758 94 l 758 0 l 147 0 l 147 94 m 332 858 q 271 876 289 858 q 253 922 253 894 l 253 942 q 271 988 253 969 q 332 1006 289 1006 q 393 988 375 1006 q 411 942 411 969 l 411 922 q 393 876 411 894 q 332 858 375 858 m 590 858 q 529 876 547 858 q 511 922 511 894 l 511 942 q 529 988 511 969 q 590 1006 547 1006 q 651 988 633 1006 q 669 942 669 969 l 669 922 q 651 876 669 894 q 590 858 633 858 z "},"ị":{"ha":833,"x_min":147,"x_max":758,"o":"m 461 875 q 393 895 413 875 q 374 946 374 915 l 374 968 q 393 1019 374 999 q 461 1039 413 1039 q 529 1019 510 1039 q 549 968 549 999 l 549 946 q 529 895 549 915 q 461 875 510 875 m 147 94 l 406 94 l 406 622 l 147 622 l 147 717 l 517 717 l 517 94 l 758 94 l 758 0 l 147 0 l 147 94 m 461 -239 q 400 -221 418 -239 q 382 -175 382 -203 l 382 -156 q 400 -110 382 -128 q 461 -92 418 -92 q 522 -110 504 -92 q 540 -156 540 -128 l 540 -175 q 522 -221 540 -203 q 461 -239 504 -239 z "},"ì":{"ha":833,"x_min":147,"x_max":758,"o":"m 147 94 l 406 94 l 406 622 l 147 622 l 147 717 l 517 717 l 517 94 l 758 94 l 758 0 l 147 0 l 147 94 m 304 1033 l 406 1082 l 524 846 l 451 813 l 304 1033 z "},"ỉ":{"ha":833,"x_min":147,"x_max":758,"o":"m 147 94 l 406 94 l 406 622 l 147 622 l 147 717 l 517 717 l 517 94 l 758 94 l 758 0 l 147 0 l 147 94 m 344 1063 l 496 1063 q 571 1040 549 1063 q 593 986 593 1018 q 575 919 593 956 q 525 843 557 883 l 492 801 l 428 833 l 508 978 l 344 978 l 344 1063 z "},"ī":{"ha":833,"x_min":147,"x_max":758,"o":"m 147 94 l 406 94 l 406 622 l 147 622 l 147 717 l 517 717 l 517 94 l 758 94 l 758 0 l 147 0 l 147 94 m 267 979 l 656 979 l 656 885 l 267 885 l 267 979 z "},"į":{"ha":833,"x_min":147,"x_max":788,"o":"m 658 -287 q 551 -260 594 -287 q 507 -176 507 -232 q 547 -84 507 -126 q 667 -4 588 -42 l 665 0 l 147 0 l 147 94 l 406 94 l 406 622 l 147 622 l 147 717 l 517 717 l 517 94 l 758 94 l 758 0 q 673 -58 704 -33 q 626 -102 642 -83 q 606 -135 610 -121 q 601 -158 601 -149 q 619 -199 601 -187 q 660 -210 638 -210 q 732 -174 703 -210 l 788 -231 q 742 -271 774 -254 q 658 -287 711 -287 m 461 875 q 393 895 413 875 q 374 946 374 915 l 374 968 q 393 1019 374 999 q 461 1039 413 1039 q 529 1019 510 1039 q 549 968 549 999 l 549 946 q 529 895 549 915 q 461 875 510 875 z "},"ĩ":{"ha":833,"x_min":147,"x_max":758,"o":"m 147 94 l 406 94 l 406 622 l 147 622 l 147 717 l 517 717 l 517 94 l 758 94 l 758 0 l 147 0 l 147 94 m 563 850 q 500 863 526 850 q 451 886 474 875 q 395 912 418 904 q 354 919 372 919 q 313 910 331 919 q 274 882 294 900 l 228 938 q 279 988 247 965 q 360 1011 311 1011 q 422 999 396 1011 q 471 975 449 986 q 527 949 504 957 q 568 942 550 942 q 610 951 592 942 q 649 979 628 961 l 694 924 q 643 873 675 896 q 563 850 611 850 z "},"ĳ":{"ha":833,"x_min":114,"x_max":719,"o":"m 146 717 l 257 717 l 257 0 l 146 0 l 146 717 m 257 -183 l 576 -183 l 576 717 l 688 717 l 688 -114 q 649 -232 688 -186 q 529 -278 611 -278 l 257 -278 l 257 -183 m 201 875 q 133 895 153 875 q 114 946 114 915 l 114 968 q 133 1019 114 999 q 201 1039 153 1039 q 269 1019 250 1039 q 289 968 289 999 l 289 946 q 269 895 289 915 q 201 875 250 875 m 632 875 q 564 895 583 875 q 544 946 544 915 l 544 968 q 564 1019 544 999 q 632 1039 583 1039 q 700 1019 681 1039 q 719 968 719 999 l 719 946 q 700 895 719 915 q 632 875 681 875 z "},"ȷ":{"ha":833,"x_min":129,"x_max":600,"o":"m 142 -183 l 489 -183 l 489 622 l 129 622 l 129 717 l 600 717 l 600 -114 q 562 -232 600 -186 q 442 -278 524 -278 l 142 -278 l 142 -183 z "},"ĵ":{"ha":833,"x_min":129,"x_max":768,"o":"m 142 -183 l 489 -183 l 489 622 l 129 622 l 129 717 l 600 717 l 600 -114 q 562 -232 600 -186 q 442 -278 524 -278 l 142 -278 l 142 -183 m 614 1063 l 768 864 l 706 821 l 543 983 l 381 821 l 321 864 l 475 1063 l 614 1063 z "},"ķ":{"ha":833,"x_min":146,"x_max":797,"o":"m 146 1028 l 257 1028 l 257 379 l 263 379 l 388 497 l 626 717 l 763 717 l 465 436 l 797 0 l 660 0 l 381 372 l 257 260 l 257 0 l 146 0 l 146 1028 m 376 -86 l 528 -86 l 422 -349 l 338 -349 l 376 -86 z "},"ĸ":{"ha":833,"x_min":147,"x_max":803,"o":"m 393 351 l 258 229 l 258 0 l 147 0 l 147 717 l 258 717 l 258 354 l 264 354 l 396 483 l 632 717 l 768 717 l 471 425 l 803 0 l 665 0 l 393 351 z "},"ĺ":{"ha":833,"x_min":111,"x_max":722,"o":"m 111 94 l 361 94 l 361 933 l 111 933 l 111 1028 l 472 1028 l 472 94 l 722 94 l 722 0 l 111 0 l 111 94 m 426 1065 l 354 1099 l 472 1335 l 574 1286 l 426 1065 z "},"ľ":{"ha":833,"x_min":111,"x_max":744,"o":"m 111 94 l 361 94 l 361 933 l 111 933 l 111 1028 l 472 1028 l 472 94 l 722 94 l 722 0 l 111 0 l 111 94 m 676 765 l 592 765 l 601 1028 l 744 1028 l 676 765 z "},"ļ":{"ha":833,"x_min":111,"x_max":722,"o":"m 111 94 l 361 94 l 361 933 l 111 933 l 111 1028 l 472 1028 l 472 94 l 722 94 l 722 0 l 111 0 l 111 94 m 344 -86 l 496 -86 l 390 -349 l 306 -349 l 344 -86 z "},"ŀ":{"ha":833,"x_min":111,"x_max":801,"o":"m 111 94 l 361 94 l 361 933 l 111 933 l 111 1028 l 472 1028 l 472 94 l 722 94 l 722 0 l 111 0 l 111 94 m 714 343 q 646 363 665 343 q 626 414 626 383 l 626 436 q 646 487 626 467 q 714 507 665 507 q 782 487 763 507 q 801 436 801 467 l 801 414 q 782 363 801 383 q 714 343 763 343 z "},"ł":{"ha":833,"x_min":111,"x_max":722,"o":"m 111 94 l 361 94 l 361 400 l 149 331 l 149 424 l 361 493 l 361 933 l 111 933 l 111 1028 l 472 1028 l 472 525 l 685 594 l 685 501 l 472 432 l 472 94 l 722 94 l 722 0 l 111 0 l 111 94 z "},"ń":{"ha":833,"x_min":136,"x_max":706,"o":"m 136 0 l 136 717 l 247 717 l 247 600 l 253 600 q 281 651 264 626 q 322 693 297 675 q 379 722 346 711 q 457 733 413 733 q 638 662 569 733 q 706 460 706 590 l 706 0 l 594 0 l 594 440 q 551 587 594 539 q 425 635 508 635 q 360 626 392 635 q 303 601 328 618 q 263 558 278 585 q 247 497 247 532 l 247 0 l 136 0 m 431 813 l 358 846 l 476 1082 l 578 1033 l 431 813 z "},"ň":{"ha":833,"x_min":136,"x_max":706,"o":"m 136 0 l 136 717 l 247 717 l 247 600 l 253 600 q 281 651 264 626 q 322 693 297 675 q 379 722 346 711 q 457 733 413 733 q 638 662 569 733 q 706 460 706 590 l 706 0 l 594 0 l 594 440 q 551 587 594 539 q 425 635 508 635 q 360 626 392 635 q 303 601 328 618 q 263 558 278 585 q 247 497 247 532 l 247 0 l 136 0 m 351 832 l 197 1031 l 261 1074 l 424 911 l 586 1074 l 644 1031 l 490 832 l 351 832 z "},"ņ":{"ha":833,"x_min":136,"x_max":706,"o":"m 136 0 l 136 717 l 247 717 l 247 600 l 253 600 q 281 651 264 626 q 322 693 297 675 q 379 722 346 711 q 457 733 413 733 q 638 662 569 733 q 706 460 706 590 l 706 0 l 594 0 l 594 440 q 551 587 594 539 q 425 635 508 635 q 360 626 392 635 q 303 601 328 618 q 263 558 278 585 q 247 497 247 532 l 247 0 l 136 0 m 349 -86 l 500 -86 l 394 -349 l 310 -349 l 349 -86 z "},"ñ":{"ha":833,"x_min":136,"x_max":706,"o":"m 136 0 l 136 717 l 247 717 l 247 600 l 253 600 q 281 651 264 626 q 322 693 297 675 q 379 722 346 711 q 457 733 413 733 q 638 662 569 733 q 706 460 706 590 l 706 0 l 594 0 l 594 440 q 551 587 594 539 q 425 635 508 635 q 360 626 392 635 q 303 601 328 618 q 263 558 278 585 q 247 497 247 532 l 247 0 l 136 0 m 522 850 q 460 863 486 850 q 411 886 433 875 q 355 912 378 904 q 314 919 332 919 q 272 910 290 919 q 233 882 254 900 l 188 938 q 239 988 207 965 q 319 1011 271 1011 q 382 999 356 1011 q 431 975 408 986 q 487 949 464 957 q 528 942 510 942 q 569 951 551 942 q 608 979 588 961 l 654 924 q 603 873 635 896 q 522 850 571 850 z "},"ŉ":{"ha":833,"x_min":0,"x_max":706,"o":"m 136 717 l 247 717 l 247 600 l 253 600 q 281 651 264 626 q 322 693 297 675 q 379 722 346 711 q 457 733 413 733 q 638 662 569 733 q 706 460 706 590 l 706 0 l 594 0 l 594 440 q 551 587 594 539 q 425 635 508 635 q 360 626 392 635 q 303 601 328 618 q 263 558 278 585 q 247 497 247 532 l 247 0 l 136 0 l 136 717 m 17 1028 l 146 1028 l 74 771 l 0 771 l 17 1028 z "},"ŋ":{"ha":833,"x_min":136,"x_max":706,"o":"m 247 -183 l 594 -183 l 594 440 q 551 587 594 539 q 425 635 508 635 q 360 626 392 635 q 303 601 328 618 q 263 558 278 585 q 247 497 247 532 l 247 0 l 136 0 l 136 717 l 247 717 l 247 600 l 253 600 q 281 651 264 626 q 322 693 297 675 q 379 722 346 711 q 457 733 413 733 q 638 662 569 733 q 706 460 706 590 l 706 -114 q 667 -232 706 -186 q 547 -278 629 -278 l 247 -278 l 247 -183 z "},"ó":{"ha":833,"x_min":92,"x_max":742,"o":"m 417 -17 q 281 10 342 -17 q 178 85 221 36 q 114 203 136 135 q 92 358 92 272 q 114 513 92 443 q 178 631 136 582 q 281 707 221 681 q 417 733 342 733 q 552 707 492 733 q 655 631 613 681 q 719 513 697 582 q 742 358 742 443 q 719 203 742 272 q 655 85 697 135 q 552 10 613 36 q 417 -17 492 -17 m 417 79 q 567 135 510 79 q 624 307 624 190 l 624 410 q 567 582 624 526 q 417 638 510 638 q 267 582 324 638 q 210 410 210 526 l 210 307 q 267 135 210 190 q 417 79 324 79 m 426 813 l 354 846 l 472 1082 l 574 1033 l 426 813 z "},"ŏ":{"ha":833,"x_min":92,"x_max":742,"o":"m 417 -17 q 281 10 342 -17 q 178 85 221 36 q 114 203 136 135 q 92 358 92 272 q 114 513 92 443 q 178 631 136 582 q 281 707 221 681 q 417 733 342 733 q 552 707 492 733 q 655 631 613 681 q 719 513 697 582 q 742 358 742 443 q 719 203 742 272 q 655 85 697 135 q 552 10 613 36 q 417 -17 492 -17 m 417 79 q 567 135 510 79 q 624 307 624 190 l 624 410 q 567 582 624 526 q 417 638 510 638 q 267 582 324 638 q 210 410 210 526 l 210 307 q 267 135 210 190 q 417 79 324 79 m 417 826 q 323 847 361 826 q 259 899 285 868 q 218 967 233 931 q 193 1036 203 1004 l 264 1067 l 293 1019 q 322 974 310 993 q 348 942 335 954 q 377 923 361 929 q 417 917 393 917 q 456 923 439 917 q 485 942 472 929 q 511 974 499 954 q 540 1019 524 993 l 569 1067 l 640 1036 q 615 967 631 1004 q 574 899 600 931 q 510 847 549 868 q 417 826 472 826 z "},"ô":{"ha":833,"x_min":92,"x_max":742,"o":"m 417 -17 q 281 10 342 -17 q 178 85 221 36 q 114 203 136 135 q 92 358 92 272 q 114 513 92 443 q 178 631 136 582 q 281 707 221 681 q 417 733 342 733 q 552 707 492 733 q 655 631 613 681 q 719 513 697 582 q 742 358 742 443 q 719 203 742 272 q 655 85 697 135 q 552 10 613 36 q 417 -17 492 -17 m 417 79 q 567 135 510 79 q 624 307 624 190 l 624 410 q 567 582 624 526 q 417 638 510 638 q 267 582 324 638 q 210 410 210 526 l 210 307 q 267 135 210 190 q 417 79 324 79 m 486 1063 l 640 864 l 578 821 l 415 983 l 253 821 l 193 864 l 347 1063 l 486 1063 z "},"ö":{"ha":833,"x_min":92,"x_max":742,"o":"m 417 -17 q 281 10 342 -17 q 178 85 221 36 q 114 203 136 135 q 92 358 92 272 q 114 513 92 443 q 178 631 136 582 q 281 707 221 681 q 417 733 342 733 q 552 707 492 733 q 655 631 613 681 q 719 513 697 582 q 742 358 742 443 q 719 203 742 272 q 655 85 697 135 q 552 10 613 36 q 417 -17 492 -17 m 417 79 q 567 135 510 79 q 624 307 624 190 l 624 410 q 567 582 624 526 q 417 638 510 638 q 267 582 324 638 q 210 410 210 526 l 210 307 q 267 135 210 190 q 417 79 324 79 m 288 858 q 226 876 244 858 q 208 922 208 894 l 208 942 q 226 988 208 969 q 288 1006 244 1006 q 349 988 331 1006 q 367 942 367 969 l 367 922 q 349 876 367 894 q 288 858 331 858 m 546 858 q 485 876 503 858 q 467 922 467 894 l 467 942 q 485 988 467 969 q 546 1006 503 1006 q 607 988 589 1006 q 625 942 625 969 l 625 922 q 607 876 625 894 q 546 858 589 858 z "},"ọ":{"ha":833,"x_min":92,"x_max":742,"o":"m 417 -17 q 281 10 342 -17 q 178 85 221 36 q 114 203 136 135 q 92 358 92 272 q 114 513 92 443 q 178 631 136 582 q 281 707 221 681 q 417 733 342 733 q 552 707 492 733 q 655 631 613 681 q 719 513 697 582 q 742 358 742 443 q 719 203 742 272 q 655 85 697 135 q 552 10 613 36 q 417 -17 492 -17 m 417 79 q 567 135 510 79 q 624 307 624 190 l 624 410 q 567 582 624 526 q 417 638 510 638 q 267 582 324 638 q 210 410 210 526 l 210 307 q 267 135 210 190 q 417 79 324 79 m 417 -239 q 356 -221 374 -239 q 338 -175 338 -203 l 338 -156 q 356 -110 338 -128 q 417 -92 374 -92 q 478 -110 460 -92 q 496 -156 496 -128 l 496 -175 q 478 -221 496 -203 q 417 -239 460 -239 z "},"ò":{"ha":833,"x_min":92,"x_max":742,"o":"m 417 -17 q 281 10 342 -17 q 178 85 221 36 q 114 203 136 135 q 92 358 92 272 q 114 513 92 443 q 178 631 136 582 q 281 707 221 681 q 417 733 342 733 q 552 707 492 733 q 655 631 613 681 q 719 513 697 582 q 742 358 742 443 q 719 203 742 272 q 655 85 697 135 q 552 10 613 36 q 417 -17 492 -17 m 417 79 q 567 135 510 79 q 624 307 624 190 l 624 410 q 567 582 624 526 q 417 638 510 638 q 267 582 324 638 q 210 410 210 526 l 210 307 q 267 135 210 190 q 417 79 324 79 m 260 1033 l 361 1082 l 479 846 l 407 813 l 260 1033 z "},"ỏ":{"ha":833,"x_min":92,"x_max":742,"o":"m 417 -17 q 281 10 342 -17 q 178 85 221 36 q 114 203 136 135 q 92 358 92 272 q 114 513 92 443 q 178 631 136 582 q 281 707 221 681 q 417 733 342 733 q 552 707 492 733 q 655 631 613 681 q 719 513 697 582 q 742 358 742 443 q 719 203 742 272 q 655 85 697 135 q 552 10 613 36 q 417 -17 492 -17 m 417 79 q 567 135 510 79 q 624 307 624 190 l 624 410 q 567 582 624 526 q 417 638 510 638 q 267 582 324 638 q 210 410 210 526 l 210 307 q 267 135 210 190 q 417 79 324 79 m 300 1063 l 451 1063 q 526 1040 504 1063 q 549 986 549 1018 q 531 919 549 956 q 481 843 513 883 l 447 801 l 383 833 l 464 978 l 300 978 l 300 1063 z "},"ő":{"ha":833,"x_min":92,"x_max":742,"o":"m 417 -17 q 281 10 342 -17 q 178 85 221 36 q 114 203 136 135 q 92 358 92 272 q 114 513 92 443 q 178 631 136 582 q 281 707 221 681 q 417 733 342 733 q 552 707 492 733 q 655 631 613 681 q 719 513 697 582 q 742 358 742 443 q 719 203 742 272 q 655 85 697 135 q 552 10 613 36 q 417 -17 492 -17 m 417 79 q 567 135 510 79 q 624 307 624 190 l 624 410 q 567 582 624 526 q 417 638 510 638 q 267 582 324 638 q 210 410 210 526 l 210 307 q 267 135 210 190 q 417 79 324 79 m 315 814 l 249 844 l 367 1081 l 463 1035 l 315 814 m 538 814 l 471 844 l 589 1081 l 685 1035 l 538 814 z "},"ō":{"ha":833,"x_min":92,"x_max":742,"o":"m 417 -17 q 281 10 342 -17 q 178 85 221 36 q 114 203 136 135 q 92 358 92 272 q 114 513 92 443 q 178 631 136 582 q 281 707 221 681 q 417 733 342 733 q 552 707 492 733 q 655 631 613 681 q 719 513 697 582 q 742 358 742 443 q 719 203 742 272 q 655 85 697 135 q 552 10 613 36 q 417 -17 492 -17 m 417 79 q 567 135 510 79 q 624 307 624 190 l 624 410 q 567 582 624 526 q 417 638 510 638 q 267 582 324 638 q 210 410 210 526 l 210 307 q 267 135 210 190 q 417 79 324 79 m 222 979 l 611 979 l 611 885 l 222 885 l 222 979 z "},"ø":{"ha":833,"x_min":65,"x_max":768,"o":"m 65 -8 l 161 108 q 110 220 128 157 q 92 358 92 283 q 114 513 92 443 q 178 631 136 582 q 281 707 221 681 q 417 733 342 733 q 528 715 478 733 q 618 665 578 697 l 706 772 l 768 725 l 672 608 q 724 497 706 560 q 742 358 742 433 q 719 203 742 272 q 655 85 697 135 q 552 10 613 36 q 417 -17 492 -17 q 306 1 356 -17 q 215 51 256 19 l 128 -56 l 65 -8 m 417 638 q 267 582 324 638 q 210 410 210 526 l 210 307 q 231 192 210 238 l 557 590 q 417 638 506 638 m 417 79 q 567 135 510 79 q 624 307 624 190 l 624 410 q 603 525 624 479 l 276 126 q 417 79 328 79 z "},"ǿ":{"ha":833,"x_min":65,"x_max":768,"o":"m 65 -8 l 161 108 q 110 220 128 157 q 92 358 92 283 q 114 513 92 443 q 178 631 136 582 q 281 707 221 681 q 417 733 342 733 q 528 715 478 733 q 618 665 578 697 l 706 772 l 768 725 l 672 608 q 724 497 706 560 q 742 358 742 433 q 719 203 742 272 q 655 85 697 135 q 552 10 613 36 q 417 -17 492 -17 q 306 1 356 -17 q 215 51 256 19 l 128 -56 l 65 -8 m 417 638 q 267 582 324 638 q 210 410 210 526 l 210 307 q 231 192 210 238 l 557 590 q 417 638 506 638 m 417 79 q 567 135 510 79 q 624 307 624 190 l 624 410 q 603 525 624 479 l 276 126 q 417 79 328 79 m 426 813 l 354 846 l 472 1082 l 574 1033 l 426 813 z "},"õ":{"ha":833,"x_min":92,"x_max":742,"o":"m 417 -17 q 281 10 342 -17 q 178 85 221 36 q 114 203 136 135 q 92 358 92 272 q 114 513 92 443 q 178 631 136 582 q 281 707 221 681 q 417 733 342 733 q 552 707 492 733 q 655 631 613 681 q 719 513 697 582 q 742 358 742 443 q 719 203 742 272 q 655 85 697 135 q 552 10 613 36 q 417 -17 492 -17 m 417 79 q 567 135 510 79 q 624 307 624 190 l 624 410 q 567 582 624 526 q 417 638 510 638 q 267 582 324 638 q 210 410 210 526 l 210 307 q 267 135 210 190 q 417 79 324 79 m 518 850 q 456 863 482 850 q 407 886 429 875 q 351 912 374 904 q 310 919 328 919 q 268 910 286 919 q 229 882 250 900 l 183 938 q 235 988 203 965 q 315 1011 267 1011 q 378 999 351 1011 q 426 975 404 986 q 483 949 460 957 q 524 942 506 942 q 565 951 547 942 q 604 979 583 961 l 650 924 q 599 873 631 896 q 518 850 567 850 z "},"ơ":{"ha":833,"x_min":92,"x_max":750,"o":"m 750 872 l 750 733 q 733 674 750 699 q 663 649 715 649 l 632 649 q 713 526 685 600 q 742 358 742 453 q 719 203 742 272 q 655 85 697 135 q 552 10 613 36 q 417 -17 492 -17 q 281 10 342 -17 q 178 85 221 36 q 114 203 136 135 q 92 358 92 272 q 114 513 92 443 q 178 631 136 582 q 281 707 221 681 q 417 733 342 733 q 526 717 476 733 l 651 717 l 651 872 l 750 872 m 417 79 q 567 135 510 79 q 624 307 624 190 l 624 410 q 567 582 624 526 q 417 638 510 638 q 267 582 324 638 q 210 410 210 526 l 210 307 q 267 135 210 190 q 417 79 324 79 z "},"ớ":{"ha":833,"x_min":92,"x_max":750,"o":"m 750 872 l 750 733 q 733 674 750 699 q 663 649 715 649 l 632 649 q 713 526 685 600 q 742 358 742 453 q 719 203 742 272 q 655 85 697 135 q 552 10 613 36 q 417 -17 492 -17 q 281 10 342 -17 q 178 85 221 36 q 114 203 136 135 q 92 358 92 272 q 114 513 92 443 q 178 631 136 582 q 281 707 221 681 q 417 733 342 733 q 526 717 476 733 l 651 717 l 651 872 l 750 872 m 417 79 q 567 135 510 79 q 624 307 624 190 l 624 410 q 567 582 624 526 q 417 638 510 638 q 267 582 324 638 q 210 410 210 526 l 210 307 q 267 135 210 190 q 417 79 324 79 m 426 813 l 354 846 l 472 1082 l 574 1033 l 426 813 z "},"ợ":{"ha":833,"x_min":92,"x_max":750,"o":"m 750 872 l 750 733 q 733 674 750 699 q 663 649 715 649 l 632 649 q 713 526 685 600 q 742 358 742 453 q 719 203 742 272 q 655 85 697 135 q 552 10 613 36 q 417 -17 492 -17 q 281 10 342 -17 q 178 85 221 36 q 114 203 136 135 q 92 358 92 272 q 114 513 92 443 q 178 631 136 582 q 281 707 221 681 q 417 733 342 733 q 526 717 476 733 l 651 717 l 651 872 l 750 872 m 417 79 q 567 135 510 79 q 624 307 624 190 l 624 410 q 567 582 624 526 q 417 638 510 638 q 267 582 324 638 q 210 410 210 526 l 210 307 q 267 135 210 190 q 417 79 324 79 m 417 -239 q 356 -221 374 -239 q 338 -175 338 -203 l 338 -156 q 356 -110 338 -128 q 417 -92 374 -92 q 478 -110 460 -92 q 496 -156 496 -128 l 496 -175 q 478 -221 496 -203 q 417 -239 460 -239 z "},"ờ":{"ha":833,"x_min":92,"x_max":750,"o":"m 750 872 l 750 733 q 733 674 750 699 q 663 649 715 649 l 632 649 q 713 526 685 600 q 742 358 742 453 q 719 203 742 272 q 655 85 697 135 q 552 10 613 36 q 417 -17 492 -17 q 281 10 342 -17 q 178 85 221 36 q 114 203 136 135 q 92 358 92 272 q 114 513 92 443 q 178 631 136 582 q 281 707 221 681 q 417 733 342 733 q 526 717 476 733 l 651 717 l 651 872 l 750 872 m 417 79 q 567 135 510 79 q 624 307 624 190 l 624 410 q 567 582 624 526 q 417 638 510 638 q 267 582 324 638 q 210 410 210 526 l 210 307 q 267 135 210 190 q 417 79 324 79 m 260 1033 l 361 1082 l 479 846 l 407 813 l 260 1033 z "},"ở":{"ha":833,"x_min":92,"x_max":750,"o":"m 750 872 l 750 733 q 733 674 750 699 q 663 649 715 649 l 632 649 q 713 526 685 600 q 742 358 742 453 q 719 203 742 272 q 655 85 697 135 q 552 10 613 36 q 417 -17 492 -17 q 281 10 342 -17 q 178 85 221 36 q 114 203 136 135 q 92 358 92 272 q 114 513 92 443 q 178 631 136 582 q 281 707 221 681 q 417 733 342 733 q 526 717 476 733 l 651 717 l 651 872 l 750 872 m 417 79 q 567 135 510 79 q 624 307 624 190 l 624 410 q 567 582 624 526 q 417 638 510 638 q 267 582 324 638 q 210 410 210 526 l 210 307 q 267 135 210 190 q 417 79 324 79 m 300 1063 l 451 1063 q 526 1040 504 1063 q 549 986 549 1018 q 531 919 549 956 q 481 843 513 883 l 447 801 l 383 833 l 464 978 l 300 978 l 300 1063 z "},"ỡ":{"ha":833,"x_min":92,"x_max":750,"o":"m 750 872 l 750 733 q 733 674 750 699 q 663 649 715 649 l 632 649 q 713 526 685 600 q 742 358 742 453 q 719 203 742 272 q 655 85 697 135 q 552 10 613 36 q 417 -17 492 -17 q 281 10 342 -17 q 178 85 221 36 q 114 203 136 135 q 92 358 92 272 q 114 513 92 443 q 178 631 136 582 q 281 707 221 681 q 417 733 342 733 q 526 717 476 733 l 651 717 l 651 872 l 750 872 m 417 79 q 567 135 510 79 q 624 307 624 190 l 624 410 q 567 582 624 526 q 417 638 510 638 q 267 582 324 638 q 210 410 210 526 l 210 307 q 267 135 210 190 q 417 79 324 79 m 504 856 q 449 866 472 856 q 407 886 426 876 q 364 907 381 900 q 328 914 347 914 q 287 904 306 914 q 249 876 268 894 l 203 932 q 253 983 222 960 q 329 1006 285 1006 q 384 995 361 1006 q 426 975 407 985 q 469 954 453 961 q 506 947 486 947 q 547 957 528 947 q 585 985 565 967 l 631 929 q 580 878 611 901 q 504 856 549 856 z "},"ố":{"ha":833,"x_min":92,"x_max":778,"o":"m 417 -17 q 281 10 342 -17 q 178 85 221 36 q 114 203 136 135 q 92 358 92 272 q 114 513 92 443 q 178 631 136 582 q 281 707 221 681 q 417 733 342 733 q 552 707 492 733 q 655 631 613 681 q 719 513 697 582 q 742 358 742 443 q 719 203 742 272 q 655 85 697 135 q 552 10 613 36 q 417 -17 492 -17 m 417 79 q 567 135 510 79 q 624 307 624 190 l 624 410 q 567 582 624 526 q 417 638 510 638 q 267 582 324 638 q 210 410 210 526 l 210 307 q 267 135 210 190 q 417 79 324 79 m 631 989 l 563 1021 l 681 1257 l 778 1210 l 631 989 m 486 1049 l 639 849 l 578 807 l 415 972 l 253 807 l 194 849 l 347 1049 l 486 1049 z "},"ộ":{"ha":833,"x_min":92,"x_max":742,"o":"m 417 -17 q 281 10 342 -17 q 178 85 221 36 q 114 203 136 135 q 92 358 92 272 q 114 513 92 443 q 178 631 136 582 q 281 707 221 681 q 417 733 342 733 q 552 707 492 733 q 655 631 613 681 q 719 513 697 582 q 742 358 742 443 q 719 203 742 272 q 655 85 697 135 q 552 10 613 36 q 417 -17 492 -17 m 417 79 q 567 135 510 79 q 624 307 624 190 l 624 410 q 567 582 624 526 q 417 638 510 638 q 267 582 324 638 q 210 410 210 526 l 210 307 q 267 135 210 190 q 417 79 324 79 m 486 1063 l 640 864 l 578 821 l 415 983 l 253 821 l 193 864 l 347 1063 l 486 1063 m 417 -239 q 356 -221 374 -239 q 338 -175 338 -203 l 338 -156 q 356 -110 338 -128 q 417 -92 374 -92 q 478 -110 460 -92 q 496 -156 496 -128 l 496 -175 q 478 -221 496 -203 q 417 -239 460 -239 z "},"ồ":{"ha":833,"x_min":56,"x_max":742,"o":"m 417 -17 q 281 10 342 -17 q 178 85 221 36 q 114 203 136 135 q 92 358 92 272 q 114 513 92 443 q 178 631 136 582 q 281 707 221 681 q 417 733 342 733 q 552 707 492 733 q 655 631 613 681 q 719 513 697 582 q 742 358 742 443 q 719 203 742 272 q 655 85 697 135 q 552 10 613 36 q 417 -17 492 -17 m 417 79 q 567 135 510 79 q 624 307 624 190 l 624 410 q 567 582 624 526 q 417 638 510 638 q 267 582 324 638 q 210 410 210 526 l 210 307 q 267 135 210 190 q 417 79 324 79 m 56 1210 l 153 1257 l 271 1021 l 203 989 l 56 1210 m 486 1049 l 639 849 l 578 807 l 415 972 l 253 807 l 194 849 l 347 1049 l 486 1049 z "},"ổ":{"ha":833,"x_min":92,"x_max":742,"o":"m 417 -17 q 281 10 342 -17 q 178 85 221 36 q 114 203 136 135 q 92 358 92 272 q 114 513 92 443 q 178 631 136 582 q 281 707 221 681 q 417 733 342 733 q 552 707 492 733 q 655 631 613 681 q 719 513 697 582 q 742 358 742 443 q 719 203 742 272 q 655 85 697 135 q 552 10 613 36 q 417 -17 492 -17 m 417 79 q 567 135 510 79 q 624 307 624 190 l 624 410 q 567 582 624 526 q 417 638 510 638 q 267 582 324 638 q 210 410 210 526 l 210 307 q 267 135 210 190 q 417 79 324 79 m 490 1242 l 642 1242 q 717 1219 694 1242 q 739 1165 739 1197 q 721 1099 739 1135 q 671 1022 703 1063 l 638 981 l 574 1013 l 654 1157 l 490 1157 l 490 1242 m 486 1049 l 639 849 l 578 807 l 415 972 l 253 807 l 194 849 l 347 1049 l 486 1049 z "},"ỗ":{"ha":833,"x_min":92,"x_max":742,"o":"m 417 -17 q 281 10 342 -17 q 178 85 221 36 q 114 203 136 135 q 92 358 92 272 q 114 513 92 443 q 178 631 136 582 q 281 707 221 681 q 417 733 342 733 q 552 707 492 733 q 655 631 613 681 q 719 513 697 582 q 742 358 742 443 q 719 203 742 272 q 655 85 697 135 q 552 10 613 36 q 417 -17 492 -17 m 417 79 q 567 135 510 79 q 624 307 624 190 l 624 410 q 567 582 624 526 q 417 638 510 638 q 267 582 324 638 q 210 410 210 526 l 210 307 q 267 135 210 190 q 417 79 324 79 m 317 1239 q 379 1226 353 1239 q 428 1203 406 1214 q 484 1177 461 1185 q 525 1169 507 1169 q 567 1179 549 1169 q 606 1207 585 1189 l 649 1157 q 597 1106 629 1129 q 517 1083 565 1083 q 454 1096 481 1083 q 406 1119 428 1108 q 349 1145 372 1138 q 308 1153 326 1153 q 267 1143 285 1153 q 228 1115 249 1133 l 185 1165 q 236 1216 204 1193 q 317 1239 268 1239 m 486 1035 l 639 849 l 578 807 l 415 961 l 253 807 l 194 849 l 347 1035 l 486 1035 z "},"œ":{"ha":833,"x_min":19,"x_max":808,"o":"m 244 67 q 331 116 300 67 q 363 285 363 165 l 363 432 q 331 601 363 551 q 244 650 300 650 q 158 601 189 650 q 126 432 126 551 l 126 285 q 158 116 126 165 q 244 67 189 67 m 717 410 l 717 457 q 684 605 717 557 q 590 653 651 653 q 497 605 529 653 q 464 457 464 557 l 464 410 l 717 410 m 593 -17 q 489 14 535 -17 q 411 101 443 44 l 407 101 q 236 -17 351 -17 q 140 10 181 -17 q 73 85 100 36 q 33 203 46 135 q 19 358 19 272 q 33 513 19 443 q 73 631 46 582 q 140 707 100 681 q 236 733 181 733 q 342 701 297 733 q 413 603 388 668 l 417 603 q 494 704 447 675 q 600 733 542 733 q 756 651 704 733 q 808 406 808 568 l 808 331 l 464 331 l 464 296 q 498 134 464 196 q 596 72 532 72 q 640 83 621 72 q 674 110 660 93 q 699 150 689 128 q 717 196 708 172 l 797 158 q 770 95 788 126 q 728 39 753 64 q 669 -1 703 14 q 593 -17 635 -17 z "},"ŕ":{"ha":833,"x_min":107,"x_max":776,"o":"m 107 94 l 317 94 l 317 622 l 107 622 l 107 717 l 428 717 l 428 536 l 435 536 q 519 669 457 621 q 676 717 581 717 l 776 717 l 776 606 l 642 606 q 487 550 546 606 q 428 404 428 494 l 428 94 l 706 94 l 706 0 l 107 0 l 107 94 m 500 813 l 428 846 l 546 1082 l 647 1033 l 500 813 z "},"ř":{"ha":833,"x_min":107,"x_max":776,"o":"m 107 94 l 317 94 l 317 622 l 107 622 l 107 717 l 428 717 l 428 536 l 435 536 q 519 669 457 621 q 676 717 581 717 l 776 717 l 776 606 l 642 606 q 487 550 546 606 q 428 404 428 494 l 428 94 l 706 94 l 706 0 l 107 0 l 107 94 m 421 832 l 267 1031 l 331 1074 l 493 911 l 656 1074 l 714 1031 l 560 832 l 421 832 z "},"ŗ":{"ha":833,"x_min":107,"x_max":776,"o":"m 107 94 l 317 94 l 317 622 l 107 622 l 107 717 l 428 717 l 428 536 l 435 536 q 519 669 457 621 q 676 717 581 717 l 776 717 l 776 606 l 642 606 q 487 550 546 606 q 428 404 428 494 l 428 94 l 706 94 l 706 0 l 107 0 l 107 94 m 300 -86 l 451 -86 l 346 -349 l 261 -349 l 300 -86 z "},"ś":{"ha":833,"x_min":93,"x_max":728,"o":"m 425 -17 q 231 22 313 -17 q 93 124 150 60 l 168 189 q 281 106 219 135 q 428 76 342 76 q 565 106 511 76 q 618 200 618 136 q 608 247 618 228 q 579 276 597 265 q 539 294 561 288 q 492 304 517 300 l 379 321 q 298 336 342 326 q 218 367 254 346 q 158 425 182 389 q 133 519 133 461 q 155 613 133 574 q 215 680 176 653 q 307 720 254 707 q 422 733 360 733 q 591 703 519 733 q 714 618 663 672 l 642 550 q 610 581 629 565 q 565 610 592 597 q 501 632 538 624 q 418 640 465 640 q 288 611 333 640 q 243 526 243 582 q 253 480 243 499 q 282 450 264 461 q 323 433 300 439 q 369 422 346 426 l 482 406 q 564 390 521 400 q 643 359 607 381 q 703 301 679 338 q 728 207 728 265 q 645 42 728 100 q 425 -17 563 -17 m 425 813 l 353 846 l 471 1082 l 572 1033 l 425 813 z "},"š":{"ha":833,"x_min":93,"x_max":728,"o":"m 425 -17 q 231 22 313 -17 q 93 124 150 60 l 168 189 q 281 106 219 135 q 428 76 342 76 q 565 106 511 76 q 618 200 618 136 q 608 247 618 228 q 579 276 597 265 q 539 294 561 288 q 492 304 517 300 l 379 321 q 298 336 342 326 q 218 367 254 346 q 158 425 182 389 q 133 519 133 461 q 155 613 133 574 q 215 680 176 653 q 307 720 254 707 q 422 733 360 733 q 591 703 519 733 q 714 618 663 672 l 642 550 q 610 581 629 565 q 565 610 592 597 q 501 632 538 624 q 418 640 465 640 q 288 611 333 640 q 243 526 243 582 q 253 480 243 499 q 282 450 264 461 q 323 433 300 439 q 369 422 346 426 l 482 406 q 564 390 521 400 q 643 359 607 381 q 703 301 679 338 q 728 207 728 265 q 645 42 728 100 q 425 -17 563 -17 m 346 832 l 192 1031 l 256 1074 l 418 911 l 581 1074 l 639 1031 l 485 832 l 346 832 z "},"ş":{"ha":833,"x_min":93,"x_max":728,"o":"m 431 -287 q 341 -269 374 -287 q 293 -231 308 -250 l 346 -174 q 379 -201 358 -189 q 431 -212 400 -212 q 474 -202 457 -212 q 492 -169 492 -192 q 474 -135 492 -150 q 397 -112 456 -121 l 358 -107 l 376 -14 q 213 30 282 -7 q 93 124 143 67 l 168 189 q 281 106 219 135 q 428 76 342 76 q 565 106 511 76 q 618 200 618 136 q 608 247 618 228 q 579 276 597 265 q 539 294 561 288 q 492 304 517 300 l 379 321 q 298 336 342 326 q 218 367 254 346 q 158 425 182 389 q 133 519 133 461 q 155 613 133 574 q 215 680 176 653 q 307 720 254 707 q 422 733 360 733 q 591 703 519 733 q 714 618 663 672 l 642 550 q 610 581 629 565 q 565 610 592 597 q 501 632 538 624 q 418 640 465 640 q 288 611 333 640 q 243 526 243 582 q 253 480 243 499 q 282 450 264 461 q 323 433 300 439 q 369 422 346 426 l 482 406 q 564 390 521 400 q 643 359 607 381 q 703 301 679 338 q 728 207 728 265 q 651 46 728 104 q 444 -17 575 -12 l 432 -85 l 436 -89 q 490 -81 463 -81 q 558 -104 531 -81 q 585 -172 585 -128 q 572 -224 585 -201 q 538 -260 560 -246 q 489 -281 517 -274 q 431 -287 461 -287 z "},"ŝ":{"ha":833,"x_min":93,"x_max":728,"o":"m 425 -17 q 231 22 313 -17 q 93 124 150 60 l 168 189 q 281 106 219 135 q 428 76 342 76 q 565 106 511 76 q 618 200 618 136 q 608 247 618 228 q 579 276 597 265 q 539 294 561 288 q 492 304 517 300 l 379 321 q 298 336 342 326 q 218 367 254 346 q 158 425 182 389 q 133 519 133 461 q 155 613 133 574 q 215 680 176 653 q 307 720 254 707 q 422 733 360 733 q 591 703 519 733 q 714 618 663 672 l 642 550 q 610 581 629 565 q 565 610 592 597 q 501 632 538 624 q 418 640 465 640 q 288 611 333 640 q 243 526 243 582 q 253 480 243 499 q 282 450 264 461 q 323 433 300 439 q 369 422 346 426 l 482 406 q 564 390 521 400 q 643 359 607 381 q 703 301 679 338 q 728 207 728 265 q 645 42 728 100 q 425 -17 563 -17 m 485 1063 l 639 864 l 576 821 l 414 983 l 251 821 l 192 864 l 346 1063 l 485 1063 z "},"ș":{"ha":833,"x_min":93,"x_max":728,"o":"m 425 -17 q 231 22 313 -17 q 93 124 150 60 l 168 189 q 281 106 219 135 q 428 76 342 76 q 565 106 511 76 q 618 200 618 136 q 608 247 618 228 q 579 276 597 265 q 539 294 561 288 q 492 304 517 300 l 379 321 q 298 336 342 326 q 218 367 254 346 q 158 425 182 389 q 133 519 133 461 q 155 613 133 574 q 215 680 176 653 q 307 720 254 707 q 422 733 360 733 q 591 703 519 733 q 714 618 663 672 l 642 550 q 610 581 629 565 q 565 610 592 597 q 501 632 538 624 q 418 640 465 640 q 288 611 333 640 q 243 526 243 582 q 253 480 243 499 q 282 450 264 461 q 323 433 300 439 q 369 422 346 426 l 482 406 q 564 390 521 400 q 643 359 607 381 q 703 301 679 338 q 728 207 728 265 q 645 42 728 100 q 425 -17 563 -17 m 336 -86 l 488 -86 l 382 -349 l 297 -349 l 336 -86 z "},"ß":{"ha":833,"x_min":142,"x_max":794,"o":"m 142 0 l 142 864 q 180 982 142 936 q 300 1028 218 1028 l 490 1028 l 490 932 l 253 932 l 253 717 l 729 717 l 729 607 l 489 294 q 713 218 632 285 q 794 19 794 151 q 769 -108 794 -53 q 696 -201 743 -164 q 581 -258 649 -239 q 431 -278 514 -278 l 339 -278 l 339 -183 l 431 -183 q 616 -139 556 -183 q 676 4 676 -94 l 676 39 q 612 172 676 132 q 406 211 547 211 l 383 211 l 383 306 l 628 622 l 253 622 l 253 0 l 142 0 z "},"ŧ":{"ha":833,"x_min":54,"x_max":731,"o":"m 728 0 l 451 0 q 331 46 369 0 q 293 164 293 92 l 293 343 l 142 343 l 142 429 l 293 429 l 293 622 l 54 622 l 54 717 l 232 717 q 283 731 268 717 q 297 782 297 746 l 297 969 l 404 969 l 404 717 l 731 717 l 731 622 l 404 622 l 404 429 l 644 429 l 644 343 l 404 343 l 404 94 l 728 94 l 728 0 z "},"ť":{"ha":833,"x_min":54,"x_max":731,"o":"m 451 0 q 331 46 369 0 q 293 164 293 92 l 293 622 l 54 622 l 54 717 l 232 717 q 283 731 268 717 q 297 782 297 746 l 297 969 l 404 969 l 404 717 l 731 717 l 731 622 l 404 622 l 404 94 l 731 94 l 731 0 l 451 0 m 622 793 l 538 793 l 547 1056 l 690 1056 l 622 793 z "},"ţ":{"ha":833,"x_min":54,"x_max":731,"o":"m 451 0 q 331 46 369 0 q 293 164 293 92 l 293 622 l 54 622 l 54 717 l 232 717 q 283 731 268 717 q 297 782 297 746 l 297 969 l 404 969 l 404 717 l 731 717 l 731 622 l 404 622 l 404 94 l 731 94 l 731 0 l 451 0 m 449 -86 l 600 -86 l 494 -349 l 410 -349 l 449 -86 z "},"ț":{"ha":833,"x_min":54,"x_max":731,"o":"m 451 0 q 331 46 369 0 q 293 164 293 92 l 293 622 l 54 622 l 54 717 l 232 717 q 283 731 268 717 q 297 782 297 746 l 297 969 l 404 969 l 404 717 l 731 717 l 731 622 l 404 622 l 404 94 l 731 94 l 731 0 l 451 0 m 449 -86 l 600 -86 l 494 -349 l 410 -349 l 449 -86 z "},"þ":{"ha":833,"x_min":132,"x_max":750,"o":"m 132 1028 l 243 1028 l 243 600 l 249 600 q 469 733 318 733 q 676 635 601 733 q 750 358 750 536 q 676 82 750 181 q 469 -17 601 -17 q 249 117 318 -17 l 243 117 l 243 -278 l 132 -278 l 132 1028 m 426 82 q 577 141 524 82 q 631 297 631 200 l 631 419 q 577 576 631 517 q 426 635 524 635 q 356 625 389 635 q 297 597 322 615 q 258 551 272 578 q 243 488 243 524 l 243 229 q 258 166 243 193 q 297 120 272 139 q 356 92 322 101 q 426 82 389 82 z "},"ú":{"ha":833,"x_min":128,"x_max":697,"o":"m 586 117 l 581 117 q 553 66 569 90 q 512 24 536 42 q 454 -6 488 6 q 376 -17 421 -17 q 196 55 264 -17 q 128 257 128 126 l 128 717 l 239 717 l 239 276 q 282 130 239 178 q 408 82 325 82 q 474 90 442 82 q 531 115 506 99 q 571 158 556 132 q 586 219 586 183 l 586 717 l 697 717 l 697 0 l 586 0 l 586 117 m 424 813 l 351 846 l 469 1082 l 571 1033 l 424 813 z "},"ŭ":{"ha":833,"x_min":128,"x_max":697,"o":"m 586 117 l 581 117 q 553 66 569 90 q 512 24 536 42 q 454 -6 488 6 q 376 -17 421 -17 q 196 55 264 -17 q 128 257 128 126 l 128 717 l 239 717 l 239 276 q 282 130 239 178 q 408 82 325 82 q 474 90 442 82 q 531 115 506 99 q 571 158 556 132 q 586 219 586 183 l 586 717 l 697 717 l 697 0 l 586 0 l 586 117 m 414 826 q 320 847 358 826 q 256 899 282 868 q 215 967 231 931 q 190 1036 200 1004 l 261 1067 l 290 1019 q 319 974 307 993 q 345 942 332 954 q 374 923 358 929 q 414 917 390 917 q 453 923 436 917 q 483 942 469 929 q 508 974 496 954 q 538 1019 521 993 l 567 1067 l 638 1036 q 613 967 628 1004 q 572 899 597 931 q 508 847 546 868 q 414 826 469 826 z "},"û":{"ha":833,"x_min":128,"x_max":697,"o":"m 586 117 l 581 117 q 553 66 569 90 q 512 24 536 42 q 454 -6 488 6 q 376 -17 421 -17 q 196 55 264 -17 q 128 257 128 126 l 128 717 l 239 717 l 239 276 q 282 130 239 178 q 408 82 325 82 q 474 90 442 82 q 531 115 506 99 q 571 158 556 132 q 586 219 586 183 l 586 717 l 697 717 l 697 0 l 586 0 l 586 117 m 483 1063 l 638 864 l 575 821 l 413 983 l 250 821 l 190 864 l 344 1063 l 483 1063 z "},"ü":{"ha":833,"x_min":128,"x_max":697,"o":"m 586 117 l 581 117 q 553 66 569 90 q 512 24 536 42 q 454 -6 488 6 q 376 -17 421 -17 q 196 55 264 -17 q 128 257 128 126 l 128 717 l 239 717 l 239 276 q 282 130 239 178 q 408 82 325 82 q 474 90 442 82 q 531 115 506 99 q 571 158 556 132 q 586 219 586 183 l 586 717 l 697 717 l 697 0 l 586 0 l 586 117 m 285 858 q 224 876 242 858 q 206 922 206 894 l 206 942 q 224 988 206 969 q 285 1006 242 1006 q 346 988 328 1006 q 364 942 364 969 l 364 922 q 346 876 364 894 q 285 858 328 858 m 543 858 q 482 876 500 858 q 464 922 464 894 l 464 942 q 482 988 464 969 q 543 1006 500 1006 q 604 988 586 1006 q 622 942 622 969 l 622 922 q 604 876 622 894 q 543 858 586 858 z "},"ụ":{"ha":833,"x_min":128,"x_max":697,"o":"m 586 117 l 581 117 q 553 66 569 90 q 512 24 536 42 q 454 -6 488 6 q 376 -17 421 -17 q 196 55 264 -17 q 128 257 128 126 l 128 717 l 239 717 l 239 276 q 282 130 239 178 q 408 82 325 82 q 474 90 442 82 q 531 115 506 99 q 571 158 556 132 q 586 219 586 183 l 586 717 l 697 717 l 697 0 l 586 0 l 586 117 m 413 -239 q 351 -221 369 -239 q 333 -175 333 -203 l 333 -156 q 351 -110 333 -128 q 413 -92 369 -92 q 474 -110 456 -92 q 492 -156 492 -128 l 492 -175 q 474 -221 492 -203 q 413 -239 456 -239 z "},"ù":{"ha":833,"x_min":128,"x_max":697,"o":"m 586 117 l 581 117 q 553 66 569 90 q 512 24 536 42 q 454 -6 488 6 q 376 -17 421 -17 q 196 55 264 -17 q 128 257 128 126 l 128 717 l 239 717 l 239 276 q 282 130 239 178 q 408 82 325 82 q 474 90 442 82 q 531 115 506 99 q 571 158 556 132 q 586 219 586 183 l 586 717 l 697 717 l 697 0 l 586 0 l 586 117 m 257 1033 l 358 1082 l 476 846 l 404 813 l 257 1033 z "},"ủ":{"ha":833,"x_min":128,"x_max":697,"o":"m 586 117 l 581 117 q 553 66 569 90 q 512 24 536 42 q 454 -6 488 6 q 376 -17 421 -17 q 196 55 264 -17 q 128 257 128 126 l 128 717 l 239 717 l 239 276 q 282 130 239 178 q 408 82 325 82 q 474 90 442 82 q 531 115 506 99 q 571 158 556 132 q 586 219 586 183 l 586 717 l 697 717 l 697 0 l 586 0 l 586 117 m 296 1063 l 447 1063 q 522 1040 500 1063 q 544 986 544 1018 q 526 919 544 956 q 476 843 508 883 l 443 801 l 379 833 l 460 978 l 296 978 l 296 1063 z "},"ű":{"ha":833,"x_min":128,"x_max":697,"o":"m 586 117 l 581 117 q 553 66 569 90 q 512 24 536 42 q 454 -6 488 6 q 376 -17 421 -17 q 196 55 264 -17 q 128 257 128 126 l 128 717 l 239 717 l 239 276 q 282 130 239 178 q 408 82 325 82 q 474 90 442 82 q 531 115 506 99 q 571 158 556 132 q 586 219 586 183 l 586 717 l 697 717 l 697 0 l 586 0 l 586 117 m 313 814 l 246 844 l 364 1081 l 460 1035 l 313 814 m 535 814 l 468 844 l 586 1081 l 682 1035 l 535 814 z "},"ū":{"ha":833,"x_min":128,"x_max":697,"o":"m 586 117 l 581 117 q 553 66 569 90 q 512 24 536 42 q 454 -6 488 6 q 376 -17 421 -17 q 196 55 264 -17 q 128 257 128 126 l 128 717 l 239 717 l 239 276 q 282 130 239 178 q 408 82 325 82 q 474 90 442 82 q 531 115 506 99 q 571 158 556 132 q 586 219 586 183 l 586 717 l 697 717 l 697 0 l 586 0 l 586 117 m 219 979 l 608 979 l 608 885 l 219 885 l 219 979 z "},"ų":{"ha":833,"x_min":128,"x_max":726,"o":"m 697 0 q 612 -58 643 -33 q 565 -102 581 -83 q 544 -135 549 -121 q 540 -158 540 -149 q 558 -199 540 -187 q 599 -210 576 -210 q 671 -174 642 -210 l 726 -231 q 681 -271 713 -254 q 597 -287 650 -287 q 490 -260 533 -287 q 446 -176 446 -232 q 486 -84 446 -126 q 606 -4 526 -42 l 604 0 l 586 0 l 586 117 l 581 117 q 553 66 569 90 q 512 24 536 42 q 454 -6 488 6 q 376 -17 421 -17 q 196 55 264 -17 q 128 257 128 126 l 128 717 l 239 717 l 239 276 q 282 130 239 178 q 408 82 325 82 q 474 90 442 82 q 531 115 506 99 q 571 158 556 132 q 586 219 586 183 l 586 717 l 697 717 l 697 0 z "},"ů":{"ha":833,"x_min":128,"x_max":697,"o":"m 586 117 l 581 117 q 553 66 569 90 q 512 24 536 42 q 454 -6 488 6 q 376 -17 421 -17 q 196 55 264 -17 q 128 257 128 126 l 128 717 l 239 717 l 239 276 q 282 130 239 178 q 408 82 325 82 q 474 90 442 82 q 531 115 506 99 q 571 158 556 132 q 586 219 586 183 l 586 717 l 697 717 l 697 0 l 586 0 l 586 117 m 414 800 q 351 812 381 800 q 299 845 321 824 q 265 896 278 867 q 253 960 253 925 q 265 1024 253 994 q 299 1074 278 1053 q 351 1108 321 1096 q 414 1119 381 1119 q 477 1108 447 1119 q 528 1074 507 1096 q 563 1024 550 1053 q 575 960 575 994 q 563 896 575 925 q 528 845 550 867 q 477 812 507 824 q 414 800 447 800 m 414 868 q 473 888 451 868 q 494 944 494 908 l 494 975 q 473 1031 494 1011 q 414 1051 451 1051 q 355 1031 376 1051 q 333 975 333 1011 l 333 944 q 355 888 333 908 q 414 868 376 868 z "},"ũ":{"ha":833,"x_min":128,"x_max":697,"o":"m 586 117 l 581 117 q 553 66 569 90 q 512 24 536 42 q 454 -6 488 6 q 376 -17 421 -17 q 196 55 264 -17 q 128 257 128 126 l 128 717 l 239 717 l 239 276 q 282 130 239 178 q 408 82 325 82 q 474 90 442 82 q 531 115 506 99 q 571 158 556 132 q 586 219 586 183 l 586 717 l 697 717 l 697 0 l 586 0 l 586 117 m 515 850 q 453 863 479 850 q 404 886 426 875 q 348 912 371 904 q 307 919 325 919 q 265 910 283 919 q 226 882 247 900 l 181 938 q 232 988 200 965 q 313 1011 264 1011 q 375 999 349 1011 q 424 975 401 986 q 480 949 457 957 q 521 942 503 942 q 563 951 544 942 q 601 979 581 961 l 647 924 q 596 873 628 896 q 515 850 564 850 z "},"ư":{"ha":833,"x_min":128,"x_max":815,"o":"m 815 731 q 798 669 815 694 q 728 643 781 643 l 697 643 l 697 0 l 586 0 l 586 117 l 581 117 q 553 66 569 90 q 512 24 536 42 q 454 -6 488 6 q 376 -17 421 -17 q 196 55 264 -17 q 128 257 128 126 l 128 717 l 239 717 l 239 276 q 282 130 239 178 q 408 82 325 82 q 474 90 442 82 q 531 115 506 99 q 571 158 556 132 q 586 219 586 183 l 586 717 l 717 717 l 717 872 l 815 872 l 815 731 z "},"ứ":{"ha":833,"x_min":128,"x_max":815,"o":"m 815 731 q 798 669 815 694 q 728 643 781 643 l 697 643 l 697 0 l 586 0 l 586 117 l 581 117 q 553 66 569 90 q 512 24 536 42 q 454 -6 488 6 q 376 -17 421 -17 q 196 55 264 -17 q 128 257 128 126 l 128 717 l 239 717 l 239 276 q 282 130 239 178 q 408 82 325 82 q 474 90 442 82 q 531 115 506 99 q 571 158 556 132 q 586 219 586 183 l 586 717 l 717 717 l 717 872 l 815 872 l 815 731 m 424 813 l 351 846 l 469 1082 l 571 1033 l 424 813 z "},"ự":{"ha":833,"x_min":128,"x_max":815,"o":"m 815 731 q 798 669 815 694 q 728 643 781 643 l 697 643 l 697 0 l 586 0 l 586 117 l 581 117 q 553 66 569 90 q 512 24 536 42 q 454 -6 488 6 q 376 -17 421 -17 q 196 55 264 -17 q 128 257 128 126 l 128 717 l 239 717 l 239 276 q 282 130 239 178 q 408 82 325 82 q 474 90 442 82 q 531 115 506 99 q 571 158 556 132 q 586 219 586 183 l 586 717 l 717 717 l 717 872 l 815 872 l 815 731 m 413 -239 q 351 -221 369 -239 q 333 -175 333 -203 l 333 -156 q 351 -110 333 -128 q 413 -92 369 -92 q 474 -110 456 -92 q 492 -156 492 -128 l 492 -175 q 474 -221 492 -203 q 413 -239 456 -239 z "},"ừ":{"ha":833,"x_min":128,"x_max":815,"o":"m 815 731 q 798 669 815 694 q 728 643 781 643 l 697 643 l 697 0 l 586 0 l 586 117 l 581 117 q 553 66 569 90 q 512 24 536 42 q 454 -6 488 6 q 376 -17 421 -17 q 196 55 264 -17 q 128 257 128 126 l 128 717 l 239 717 l 239 276 q 282 130 239 178 q 408 82 325 82 q 474 90 442 82 q 531 115 506 99 q 571 158 556 132 q 586 219 586 183 l 586 717 l 717 717 l 717 872 l 815 872 l 815 731 m 257 1033 l 358 1082 l 476 846 l 404 813 l 257 1033 z "},"ử":{"ha":833,"x_min":128,"x_max":815,"o":"m 815 731 q 798 669 815 694 q 728 643 781 643 l 697 643 l 697 0 l 586 0 l 586 117 l 581 117 q 553 66 569 90 q 512 24 536 42 q 454 -6 488 6 q 376 -17 421 -17 q 196 55 264 -17 q 128 257 128 126 l 128 717 l 239 717 l 239 276 q 282 130 239 178 q 408 82 325 82 q 474 90 442 82 q 531 115 506 99 q 571 158 556 132 q 586 219 586 183 l 586 717 l 717 717 l 717 872 l 815 872 l 815 731 m 296 1063 l 447 1063 q 522 1040 500 1063 q 544 986 544 1018 q 526 919 544 956 q 476 843 508 883 l 443 801 l 379 833 l 460 978 l 296 978 l 296 1063 z "},"ữ":{"ha":833,"x_min":128,"x_max":815,"o":"m 815 731 q 798 669 815 694 q 728 643 781 643 l 697 643 l 697 0 l 586 0 l 586 117 l 581 117 q 553 66 569 90 q 512 24 536 42 q 454 -6 488 6 q 376 -17 421 -17 q 196 55 264 -17 q 128 257 128 126 l 128 717 l 239 717 l 239 276 q 282 130 239 178 q 408 82 325 82 q 474 90 442 82 q 531 115 506 99 q 571 158 556 132 q 586 219 586 183 l 586 717 l 717 717 l 717 872 l 815 872 l 815 731 m 501 856 q 447 866 469 856 q 404 886 424 876 q 361 907 378 900 q 325 914 344 914 q 284 904 303 914 q 246 876 265 894 l 200 932 q 251 983 219 960 q 326 1006 282 1006 q 381 995 358 1006 q 424 975 404 985 q 467 954 450 961 q 503 947 483 947 q 544 957 525 947 q 582 985 563 967 l 628 929 q 577 878 608 901 q 501 856 546 856 z "},"ẃ":{"ha":833,"x_min":42,"x_max":792,"o":"m 42 717 l 140 717 l 222 97 l 235 97 l 357 717 l 479 717 l 601 97 l 614 97 l 696 717 l 792 717 l 682 0 l 538 0 l 424 600 l 413 600 l 296 0 l 151 0 l 42 717 m 426 813 l 354 846 l 472 1082 l 574 1033 l 426 813 z "},"ŵ":{"ha":833,"x_min":42,"x_max":792,"o":"m 42 717 l 140 717 l 222 97 l 235 97 l 357 717 l 479 717 l 601 97 l 614 97 l 696 717 l 792 717 l 682 0 l 538 0 l 424 600 l 413 600 l 296 0 l 151 0 l 42 717 m 486 1063 l 640 864 l 578 821 l 415 983 l 253 821 l 193 864 l 347 1063 l 486 1063 z "},"ẅ":{"ha":833,"x_min":42,"x_max":792,"o":"m 42 717 l 140 717 l 222 97 l 235 97 l 357 717 l 479 717 l 601 97 l 614 97 l 696 717 l 792 717 l 682 0 l 538 0 l 424 600 l 413 600 l 296 0 l 151 0 l 42 717 m 288 858 q 226 876 244 858 q 208 922 208 894 l 208 942 q 226 988 208 969 q 288 1006 244 1006 q 349 988 331 1006 q 367 942 367 969 l 367 922 q 349 876 367 894 q 288 858 331 858 m 546 858 q 485 876 503 858 q 467 922 467 894 l 467 942 q 485 988 467 969 q 546 1006 503 1006 q 607 988 589 1006 q 625 942 625 969 l 625 922 q 607 876 625 894 q 546 858 589 858 z "},"ẁ":{"ha":833,"x_min":42,"x_max":792,"o":"m 42 717 l 140 717 l 222 97 l 235 97 l 357 717 l 479 717 l 601 97 l 614 97 l 696 717 l 792 717 l 682 0 l 538 0 l 424 600 l 413 600 l 296 0 l 151 0 l 42 717 m 260 1033 l 361 1082 l 479 846 l 407 813 l 260 1033 z "},"ý":{"ha":833,"x_min":74,"x_max":760,"o":"m 649 717 l 760 717 l 404 -157 q 376 -210 392 -187 q 340 -248 361 -233 q 290 -270 319 -262 q 221 -278 261 -278 l 115 -278 l 115 -183 l 282 -183 l 363 14 l 74 717 l 188 717 l 308 417 l 415 144 l 421 144 l 528 417 l 649 717 m 426 813 l 354 846 l 472 1082 l 574 1033 l 426 813 z "},"ŷ":{"ha":833,"x_min":74,"x_max":760,"o":"m 649 717 l 760 717 l 404 -157 q 376 -210 392 -187 q 340 -248 361 -233 q 290 -270 319 -262 q 221 -278 261 -278 l 115 -278 l 115 -183 l 282 -183 l 363 14 l 74 717 l 188 717 l 308 417 l 415 144 l 421 144 l 528 417 l 649 717 m 486 1063 l 640 864 l 578 821 l 415 983 l 253 821 l 193 864 l 347 1063 l 486 1063 z "},"ÿ":{"ha":833,"x_min":74,"x_max":760,"o":"m 649 717 l 760 717 l 404 -157 q 376 -210 392 -187 q 340 -248 361 -233 q 290 -270 319 -262 q 221 -278 261 -278 l 115 -278 l 115 -183 l 282 -183 l 363 14 l 74 717 l 188 717 l 308 417 l 415 144 l 421 144 l 528 417 l 649 717 m 288 858 q 226 876 244 858 q 208 922 208 894 l 208 942 q 226 988 208 969 q 288 1006 244 1006 q 349 988 331 1006 q 367 942 367 969 l 367 922 q 349 876 367 894 q 288 858 331 858 m 546 858 q 485 876 503 858 q 467 922 467 894 l 467 942 q 485 988 467 969 q 546 1006 503 1006 q 607 988 589 1006 q 625 942 625 969 l 625 922 q 607 876 625 894 q 546 858 589 858 z "},"ỵ":{"ha":833,"x_min":74,"x_max":760,"o":"m 649 717 l 760 717 l 404 -157 q 376 -210 392 -187 q 340 -248 361 -233 q 290 -270 319 -262 q 221 -278 261 -278 l 115 -278 l 115 -183 l 282 -183 l 363 14 l 74 717 l 188 717 l 308 417 l 415 144 l 421 144 l 528 417 l 649 717 m 639 -239 q 578 -221 596 -239 q 560 -175 560 -203 l 560 -156 q 578 -110 560 -128 q 639 -92 596 -92 q 700 -110 682 -92 q 718 -156 718 -128 l 718 -175 q 700 -221 718 -203 q 639 -239 682 -239 z "},"ỳ":{"ha":833,"x_min":74,"x_max":760,"o":"m 649 717 l 760 717 l 404 -157 q 376 -210 392 -187 q 340 -248 361 -233 q 290 -270 319 -262 q 221 -278 261 -278 l 115 -278 l 115 -183 l 282 -183 l 363 14 l 74 717 l 188 717 l 308 417 l 415 144 l 421 144 l 528 417 l 649 717 m 260 1033 l 361 1082 l 479 846 l 407 813 l 260 1033 z "},"ỷ":{"ha":833,"x_min":74,"x_max":760,"o":"m 649 717 l 760 717 l 404 -157 q 376 -210 392 -187 q 340 -248 361 -233 q 290 -270 319 -262 q 221 -278 261 -278 l 115 -278 l 115 -183 l 282 -183 l 363 14 l 74 717 l 188 717 l 308 417 l 415 144 l 421 144 l 528 417 l 649 717 m 300 1063 l 451 1063 q 526 1040 504 1063 q 549 986 549 1018 q 531 919 549 956 q 481 843 513 883 l 447 801 l 383 833 l 464 978 l 300 978 l 300 1063 z "},"ỹ":{"ha":833,"x_min":74,"x_max":760,"o":"m 649 717 l 760 717 l 404 -157 q 376 -210 392 -187 q 340 -248 361 -233 q 290 -270 319 -262 q 221 -278 261 -278 l 115 -278 l 115 -183 l 282 -183 l 363 14 l 74 717 l 188 717 l 308 417 l 415 144 l 421 144 l 528 417 l 649 717 m 518 850 q 456 863 482 850 q 407 886 429 875 q 351 912 374 904 q 310 919 328 919 q 268 910 286 919 q 229 882 250 900 l 183 938 q 235 988 203 965 q 315 1011 267 1011 q 378 999 351 1011 q 426 975 404 986 q 483 949 460 957 q 524 942 506 942 q 565 951 547 942 q 604 979 583 961 l 650 924 q 599 873 631 896 q 518 850 567 850 z "},"ź":{"ha":833,"x_min":118,"x_max":715,"o":"m 118 0 l 118 107 l 581 622 l 133 622 l 133 717 l 701 717 l 701 610 l 239 94 l 715 94 l 715 0 l 118 0 m 426 813 l 354 846 l 472 1082 l 574 1033 l 426 813 z "},"ž":{"ha":833,"x_min":118,"x_max":715,"o":"m 118 0 l 118 107 l 581 622 l 133 622 l 133 717 l 701 717 l 701 610 l 239 94 l 715 94 l 715 0 l 118 0 m 347 832 l 193 1031 l 257 1074 l 419 911 l 582 1074 l 640 1031 l 486 832 l 347 832 z "},"ż":{"ha":833,"x_min":118,"x_max":715,"o":"m 118 0 l 118 107 l 581 622 l 133 622 l 133 717 l 701 717 l 701 610 l 239 94 l 715 94 l 715 0 l 118 0 m 417 850 q 349 870 368 850 q 329 921 329 890 l 329 943 q 349 994 329 974 q 417 1014 368 1014 q 485 994 465 1014 q 504 943 504 974 l 504 921 q 485 870 504 890 q 417 850 465 850 z "},"Á":{"ha":833,"x_min":43,"x_max":792,"o":"m 668 0 l 586 276 l 246 276 l 164 0 l 43 0 l 340 969 l 494 969 l 792 0 l 668 0 m 422 846 l 410 846 l 274 378 l 558 378 l 422 846 m 426 1049 l 354 1082 l 472 1318 l 574 1269 l 426 1049 z "},"Ă":{"ha":833,"x_min":43,"x_max":792,"o":"m 668 0 l 586 276 l 246 276 l 164 0 l 43 0 l 340 969 l 494 969 l 792 0 l 668 0 m 422 846 l 410 846 l 274 378 l 558 378 l 422 846 m 417 1063 q 323 1083 361 1063 q 259 1135 285 1104 q 218 1203 233 1167 q 193 1272 203 1240 l 264 1303 l 293 1256 q 322 1210 310 1229 q 348 1178 335 1190 q 377 1159 361 1165 q 417 1153 393 1153 q 456 1159 439 1153 q 485 1178 472 1165 q 511 1210 499 1190 q 540 1256 524 1229 l 569 1303 l 640 1272 q 615 1203 631 1240 q 574 1135 600 1167 q 510 1083 549 1104 q 417 1063 472 1063 z "},"Â":{"ha":833,"x_min":43,"x_max":792,"o":"m 668 0 l 586 276 l 246 276 l 164 0 l 43 0 l 340 969 l 494 969 l 792 0 l 668 0 m 422 846 l 410 846 l 274 378 l 558 378 l 422 846 m 486 1299 l 640 1100 l 578 1057 l 415 1219 l 253 1057 l 193 1100 l 347 1299 l 486 1299 z "},"Ä":{"ha":833,"x_min":43,"x_max":792,"o":"m 668 0 l 586 276 l 246 276 l 164 0 l 43 0 l 340 969 l 494 969 l 792 0 l 668 0 m 422 846 l 410 846 l 274 378 l 558 378 l 422 846 m 288 1094 q 226 1113 244 1094 q 208 1158 208 1131 l 208 1178 q 226 1224 208 1206 q 288 1242 244 1242 q 349 1224 331 1242 q 367 1178 367 1206 l 367 1158 q 349 1113 367 1131 q 288 1094 331 1094 m 546 1094 q 485 1113 503 1094 q 467 1158 467 1131 l 467 1178 q 485 1224 467 1206 q 546 1242 503 1242 q 607 1224 589 1242 q 625 1178 625 1206 l 625 1158 q 607 1113 625 1131 q 546 1094 589 1094 z "},"Ạ":{"ha":833,"x_min":43,"x_max":792,"o":"m 668 0 l 586 276 l 246 276 l 164 0 l 43 0 l 340 969 l 494 969 l 792 0 l 668 0 m 422 846 l 410 846 l 274 378 l 558 378 l 422 846 m 417 -239 q 356 -221 374 -239 q 338 -175 338 -203 l 338 -156 q 356 -110 338 -128 q 417 -92 374 -92 q 478 -110 460 -92 q 496 -156 496 -128 l 496 -175 q 478 -221 496 -203 q 417 -239 460 -239 z "},"À":{"ha":833,"x_min":43,"x_max":792,"o":"m 668 0 l 586 276 l 246 276 l 164 0 l 43 0 l 340 969 l 494 969 l 792 0 l 668 0 m 422 846 l 410 846 l 274 378 l 558 378 l 422 846 m 260 1269 l 361 1318 l 479 1082 l 407 1049 l 260 1269 z "},"Ả":{"ha":833,"x_min":43,"x_max":792,"o":"m 668 0 l 586 276 l 246 276 l 164 0 l 43 0 l 340 969 l 494 969 l 792 0 l 668 0 m 422 846 l 410 846 l 274 378 l 558 378 l 422 846 m 300 1299 l 451 1299 q 526 1276 504 1299 q 549 1222 549 1254 q 531 1156 549 1192 q 481 1079 513 1119 l 447 1038 l 383 1069 l 464 1214 l 300 1214 l 300 1299 z "},"Ā":{"ha":833,"x_min":43,"x_max":792,"o":"m 668 0 l 586 276 l 246 276 l 164 0 l 43 0 l 340 969 l 494 969 l 792 0 l 668 0 m 422 846 l 410 846 l 274 378 l 558 378 l 422 846 m 222 1215 l 611 1215 l 611 1121 l 222 1121 l 222 1215 z "},"Ą":{"ha":833,"x_min":43,"x_max":821,"o":"m 340 969 l 494 969 l 792 0 q 706 -58 738 -33 q 659 -102 675 -83 q 639 -135 643 -121 q 635 -158 635 -149 q 653 -199 635 -187 q 693 -210 671 -210 q 765 -174 736 -210 l 821 -231 q 776 -271 807 -254 q 692 -287 744 -287 q 584 -260 628 -287 q 540 -176 540 -232 q 581 -84 540 -126 q 700 -4 621 -42 l 699 0 l 668 0 l 586 276 l 246 276 l 164 0 l 43 0 l 340 969 m 422 846 l 410 846 l 274 378 l 558 378 l 422 846 z "},"Å":{"ha":833,"x_min":43,"x_max":792,"o":"m 668 0 l 586 276 l 246 276 l 164 0 l 43 0 l 340 969 l 494 969 l 792 0 l 668 0 m 422 846 l 410 846 l 274 378 l 558 378 l 422 846 m 417 1036 q 353 1048 383 1036 q 302 1081 324 1060 q 268 1132 281 1103 q 256 1196 256 1161 q 268 1260 256 1231 q 302 1310 281 1289 q 353 1344 324 1332 q 417 1356 383 1356 q 480 1344 450 1356 q 531 1310 510 1332 q 565 1260 553 1289 q 578 1196 578 1231 q 565 1132 578 1161 q 531 1081 553 1103 q 480 1048 510 1060 q 417 1036 450 1036 m 417 1104 q 476 1124 454 1104 q 497 1181 497 1144 l 497 1211 q 476 1267 497 1247 q 417 1288 454 1288 q 358 1267 379 1288 q 336 1211 336 1247 l 336 1181 q 358 1124 336 1144 q 417 1104 379 1104 z "},"Ǻ":{"ha":833,"x_min":43,"x_max":792,"o":"m 668 0 l 586 276 l 246 276 l 164 0 l 43 0 l 340 969 l 494 969 l 792 0 l 668 0 m 422 846 l 410 846 l 274 378 l 558 378 l 422 846 m 436 1371 l 371 1397 l 472 1554 l 569 1519 l 436 1371 m 417 1022 q 353 1034 383 1022 q 302 1067 324 1046 q 268 1118 281 1089 q 256 1182 256 1147 q 268 1246 256 1217 q 302 1297 281 1275 q 353 1330 324 1318 q 417 1342 383 1342 q 480 1330 450 1342 q 531 1297 510 1318 q 565 1246 553 1275 q 578 1182 578 1217 q 565 1118 578 1147 q 531 1067 553 1089 q 480 1034 510 1046 q 417 1022 450 1022 m 417 1090 q 476 1110 454 1090 q 497 1167 497 1131 l 497 1197 q 476 1253 497 1233 q 417 1274 454 1274 q 358 1253 379 1274 q 336 1197 336 1233 l 336 1167 q 358 1110 336 1131 q 417 1090 379 1090 z "},"Ã":{"ha":833,"x_min":43,"x_max":792,"o":"m 668 0 l 586 276 l 246 276 l 164 0 l 43 0 l 340 969 l 494 969 l 792 0 l 668 0 m 422 846 l 410 846 l 274 378 l 558 378 l 422 846 m 518 1086 q 456 1099 482 1086 q 407 1122 429 1111 q 351 1148 374 1140 q 310 1156 328 1156 q 268 1146 286 1156 q 229 1118 250 1136 l 183 1174 q 235 1224 203 1201 q 315 1247 267 1247 q 378 1235 351 1247 q 426 1211 404 1222 q 483 1185 460 1193 q 524 1178 506 1178 q 565 1188 547 1178 q 604 1215 583 1197 l 650 1160 q 599 1109 631 1132 q 518 1086 567 1086 z "},"Ắ":{"ha":833,"x_min":43,"x_max":792,"o":"m 668 0 l 586 276 l 246 276 l 164 0 l 43 0 l 340 969 l 494 969 l 792 0 l 668 0 m 422 846 l 410 846 l 274 378 l 558 378 l 422 846 m 415 1049 q 321 1067 360 1049 q 255 1115 282 1086 q 212 1177 228 1143 q 186 1242 196 1211 l 251 1274 l 281 1229 q 342 1158 314 1179 q 417 1138 371 1138 q 491 1158 463 1138 q 553 1229 519 1179 l 582 1274 l 647 1242 q 619 1174 636 1208 q 574 1111 601 1139 q 508 1066 547 1083 q 415 1049 469 1049 m 426 1219 l 358 1251 l 476 1488 l 574 1440 l 426 1219 z "},"Ặ":{"ha":833,"x_min":43,"x_max":792,"o":"m 668 0 l 586 276 l 246 276 l 164 0 l 43 0 l 340 969 l 494 969 l 792 0 l 668 0 m 422 846 l 410 846 l 274 378 l 558 378 l 422 846 m 417 1063 q 323 1083 361 1063 q 259 1135 285 1104 q 218 1203 233 1167 q 193 1272 203 1240 l 264 1303 l 293 1256 q 322 1210 310 1229 q 348 1178 335 1190 q 377 1159 361 1165 q 417 1153 393 1153 q 456 1159 439 1153 q 485 1178 472 1165 q 511 1210 499 1190 q 540 1256 524 1229 l 569 1303 l 640 1272 q 615 1203 631 1240 q 574 1135 600 1167 q 510 1083 549 1104 q 417 1063 472 1063 m 417 -239 q 356 -221 374 -239 q 338 -175 338 -203 l 338 -156 q 356 -110 338 -128 q 417 -92 374 -92 q 478 -110 460 -92 q 496 -156 496 -128 l 496 -175 q 478 -221 496 -203 q 417 -239 460 -239 z "},"Ằ":{"ha":833,"x_min":43,"x_max":792,"o":"m 668 0 l 586 276 l 246 276 l 164 0 l 43 0 l 340 969 l 494 969 l 792 0 l 668 0 m 422 846 l 410 846 l 274 378 l 558 378 l 422 846 m 418 1049 q 325 1066 364 1049 q 259 1111 286 1083 q 215 1174 232 1139 q 186 1242 197 1208 l 251 1274 l 281 1229 q 342 1158 314 1179 q 417 1138 371 1138 q 491 1158 463 1138 q 553 1229 519 1179 l 582 1274 l 647 1242 q 622 1177 638 1211 q 578 1115 606 1143 q 513 1067 551 1086 q 418 1049 474 1049 m 260 1440 l 357 1488 l 475 1251 l 407 1219 l 260 1440 z "},"Ẳ":{"ha":833,"x_min":43,"x_max":792,"o":"m 668 0 l 586 276 l 246 276 l 164 0 l 43 0 l 340 969 l 494 969 l 792 0 l 668 0 m 422 846 l 410 846 l 274 378 l 558 378 l 422 846 m 299 1472 l 429 1472 q 504 1450 482 1472 q 526 1396 526 1428 q 508 1329 526 1365 q 458 1253 490 1293 l 425 1211 l 361 1243 l 442 1388 l 299 1388 l 299 1472 m 418 1049 q 325 1066 364 1049 q 259 1111 286 1083 q 215 1174 232 1139 q 186 1242 197 1208 l 251 1274 l 281 1229 q 342 1158 314 1179 q 417 1138 371 1138 q 491 1158 463 1138 q 553 1229 519 1179 l 582 1274 l 647 1242 q 622 1177 638 1211 q 578 1115 606 1143 q 513 1067 551 1086 q 418 1049 474 1049 z "},"Ẵ":{"ha":833,"x_min":43,"x_max":792,"o":"m 668 0 l 586 276 l 246 276 l 164 0 l 43 0 l 340 969 l 494 969 l 792 0 l 668 0 m 422 846 l 410 846 l 274 378 l 558 378 l 422 846 m 517 1304 q 454 1317 481 1304 q 406 1340 428 1329 q 349 1366 372 1358 q 308 1374 326 1374 q 267 1364 285 1374 q 228 1336 249 1354 l 185 1386 q 236 1437 204 1414 q 317 1460 268 1460 q 379 1447 353 1460 q 428 1424 406 1435 q 484 1398 461 1406 q 525 1390 507 1390 q 567 1400 549 1390 q 606 1428 585 1410 l 649 1378 q 597 1327 629 1350 q 517 1304 565 1304 m 418 1049 q 325 1066 364 1049 q 259 1111 286 1083 q 215 1174 232 1139 q 186 1242 197 1208 l 251 1274 l 281 1229 q 342 1158 314 1179 q 417 1138 371 1138 q 491 1158 463 1138 q 553 1229 519 1179 l 582 1274 l 647 1242 q 622 1177 638 1211 q 578 1115 606 1143 q 513 1067 551 1086 q 418 1049 474 1049 z "},"Ấ":{"ha":833,"x_min":43,"x_max":792,"o":"m 668 0 l 586 276 l 246 276 l 164 0 l 43 0 l 340 969 l 494 969 l 792 0 l 668 0 m 422 846 l 410 846 l 274 378 l 558 378 l 422 846 m 631 1225 l 563 1257 l 681 1493 l 778 1446 l 631 1225 m 486 1285 l 639 1085 l 578 1043 l 415 1208 l 253 1043 l 194 1085 l 347 1285 l 486 1285 z "},"Ậ":{"ha":833,"x_min":43,"x_max":792,"o":"m 668 0 l 586 276 l 246 276 l 164 0 l 43 0 l 340 969 l 494 969 l 792 0 l 668 0 m 422 846 l 410 846 l 274 378 l 558 378 l 422 846 m 486 1299 l 640 1100 l 578 1057 l 415 1219 l 253 1057 l 193 1100 l 347 1299 l 486 1299 m 417 -239 q 356 -221 374 -239 q 338 -175 338 -203 l 338 -156 q 356 -110 338 -128 q 417 -92 374 -92 q 478 -110 460 -92 q 496 -156 496 -128 l 496 -175 q 478 -221 496 -203 q 417 -239 460 -239 z "},"Ầ":{"ha":833,"x_min":43,"x_max":792,"o":"m 668 0 l 586 276 l 246 276 l 164 0 l 43 0 l 340 969 l 494 969 l 792 0 l 668 0 m 422 846 l 410 846 l 274 378 l 558 378 l 422 846 m 56 1446 l 153 1493 l 271 1257 l 203 1225 l 56 1446 m 486 1285 l 639 1085 l 578 1043 l 415 1208 l 253 1043 l 194 1085 l 347 1285 l 486 1285 z "},"Ẩ":{"ha":833,"x_min":43,"x_max":792,"o":"m 668 0 l 586 276 l 246 276 l 164 0 l 43 0 l 340 969 l 494 969 l 792 0 l 668 0 m 422 846 l 410 846 l 274 378 l 558 378 l 422 846 m 490 1478 l 642 1478 q 717 1456 694 1478 q 739 1401 739 1433 q 721 1335 739 1371 q 671 1258 703 1299 l 638 1217 l 574 1249 l 654 1393 l 490 1393 l 490 1478 m 486 1285 l 639 1085 l 578 1043 l 415 1208 l 253 1043 l 194 1085 l 347 1285 l 486 1285 z "},"Ẫ":{"ha":833,"x_min":43,"x_max":792,"o":"m 668 0 l 586 276 l 246 276 l 164 0 l 43 0 l 340 969 l 494 969 l 792 0 l 668 0 m 422 846 l 410 846 l 274 378 l 558 378 l 422 846 m 317 1475 q 379 1463 353 1475 q 428 1439 406 1450 q 484 1413 461 1421 q 525 1406 507 1406 q 567 1415 549 1406 q 606 1443 585 1425 l 649 1393 q 597 1342 629 1365 q 517 1319 565 1319 q 454 1332 481 1319 q 406 1356 428 1344 q 349 1381 372 1374 q 308 1389 326 1389 q 267 1379 285 1389 q 228 1351 249 1369 l 185 1401 q 236 1452 204 1429 q 317 1475 268 1475 m 486 1271 l 639 1085 l 578 1043 l 415 1197 l 253 1043 l 194 1085 l 347 1271 l 486 1271 z "},"Æ":{"ha":833,"x_min":28,"x_max":778,"o":"m 433 279 l 222 279 l 144 0 l 28 0 l 314 969 l 778 969 l 778 874 l 544 874 l 544 539 l 761 539 l 761 443 l 544 443 l 544 96 l 778 96 l 778 0 l 433 0 l 433 279 m 390 886 l 247 375 l 433 375 l 433 886 l 390 886 z "},"Ǽ":{"ha":833,"x_min":28,"x_max":778,"o":"m 433 279 l 222 279 l 144 0 l 28 0 l 314 969 l 778 969 l 778 874 l 544 874 l 544 539 l 761 539 l 761 443 l 544 443 l 544 96 l 778 96 l 778 0 l 433 0 l 433 279 m 390 886 l 247 375 l 433 375 l 433 886 l 390 886 m 556 1049 l 483 1082 l 601 1318 l 703 1269 l 556 1049 z "},"Ć":{"ha":833,"x_min":97,"x_max":747,"o":"m 449 -17 q 184 113 271 -17 q 97 485 97 242 q 184 857 97 728 q 449 986 271 986 q 564 968 515 986 q 647 919 613 950 q 706 851 682 889 q 747 774 729 813 l 647 728 q 618 788 635 760 q 578 838 601 817 q 524 872 556 860 q 449 885 493 885 q 277 797 333 885 q 221 564 221 710 l 221 406 q 277 172 221 260 q 449 85 333 85 q 524 97 493 85 q 578 131 556 110 q 618 181 601 153 q 647 242 635 210 l 747 196 q 706 118 729 156 q 647 50 682 81 q 564 1 613 19 q 449 -17 515 -17 m 465 1049 l 393 1082 l 511 1318 l 613 1269 l 465 1049 z "},"Č":{"ha":833,"x_min":97,"x_max":747,"o":"m 449 -17 q 184 113 271 -17 q 97 485 97 242 q 184 857 97 728 q 449 986 271 986 q 564 968 515 986 q 647 919 613 950 q 706 851 682 889 q 747 774 729 813 l 647 728 q 618 788 635 760 q 578 838 601 817 q 524 872 556 860 q 449 885 493 885 q 277 797 333 885 q 221 564 221 710 l 221 406 q 277 172 221 260 q 449 85 333 85 q 524 97 493 85 q 578 131 556 110 q 618 181 601 153 q 647 242 635 210 l 747 196 q 706 118 729 156 q 647 50 682 81 q 564 1 613 19 q 449 -17 515 -17 m 386 1068 l 232 1267 l 294 1310 l 457 1147 l 619 1310 l 679 1267 l 525 1068 l 386 1068 z "},"Ç":{"ha":833,"x_min":97,"x_max":747,"o":"m 449 885 q 277 797 333 885 q 221 564 221 710 l 221 406 q 277 172 221 260 q 449 85 333 85 q 524 97 493 85 q 578 131 556 110 q 618 181 601 153 q 647 242 635 210 l 747 196 q 706 119 729 157 q 649 52 683 82 q 569 3 615 22 q 458 -17 522 -15 l 446 -85 l 450 -89 q 504 -81 476 -81 q 572 -104 544 -81 q 599 -172 599 -128 q 586 -224 599 -201 q 552 -260 574 -246 q 503 -281 531 -274 q 444 -287 475 -287 q 355 -269 388 -287 q 307 -231 322 -250 l 360 -174 q 393 -201 372 -189 q 444 -212 414 -212 q 488 -202 471 -212 q 506 -169 506 -192 q 488 -135 506 -150 q 411 -112 469 -121 l 372 -107 l 390 -12 q 169 135 242 8 q 97 485 97 261 q 184 857 97 728 q 449 986 271 986 q 564 968 515 986 q 647 919 613 950 q 706 851 682 889 q 747 774 729 813 l 647 728 q 618 788 635 760 q 578 838 601 817 q 524 872 556 860 q 449 885 493 885 z "},"Ĉ":{"ha":833,"x_min":97,"x_max":747,"o":"m 449 -17 q 184 113 271 -17 q 97 485 97 242 q 184 857 97 728 q 449 986 271 986 q 564 968 515 986 q 647 919 613 950 q 706 851 682 889 q 747 774 729 813 l 647 728 q 618 788 635 760 q 578 838 601 817 q 524 872 556 860 q 449 885 493 885 q 277 797 333 885 q 221 564 221 710 l 221 406 q 277 172 221 260 q 449 85 333 85 q 524 97 493 85 q 578 131 556 110 q 618 181 601 153 q 647 242 635 210 l 747 196 q 706 118 729 156 q 647 50 682 81 q 564 1 613 19 q 449 -17 515 -17 m 525 1299 l 679 1100 l 617 1057 l 454 1219 l 292 1057 l 232 1100 l 386 1299 l 525 1299 z "},"Ċ":{"ha":833,"x_min":97,"x_max":747,"o":"m 449 -17 q 184 113 271 -17 q 97 485 97 242 q 184 857 97 728 q 449 986 271 986 q 564 968 515 986 q 647 919 613 950 q 706 851 682 889 q 747 774 729 813 l 647 728 q 618 788 635 760 q 578 838 601 817 q 524 872 556 860 q 449 885 493 885 q 277 797 333 885 q 221 564 221 710 l 221 406 q 277 172 221 260 q 449 85 333 85 q 524 97 493 85 q 578 131 556 110 q 618 181 601 153 q 647 242 635 210 l 747 196 q 706 118 729 156 q 647 50 682 81 q 564 1 613 19 q 449 -17 515 -17 m 456 1086 q 388 1106 407 1086 q 368 1157 368 1126 l 368 1179 q 388 1230 368 1210 q 456 1250 407 1250 q 524 1230 504 1250 q 543 1179 543 1210 l 543 1157 q 524 1106 543 1126 q 456 1086 504 1086 z "},"Ď":{"ha":833,"x_min":132,"x_max":756,"o":"m 132 969 l 403 969 q 668 847 581 969 q 756 485 756 725 q 668 122 756 244 q 403 0 581 0 l 132 0 l 132 969 m 397 101 q 573 182 514 101 q 632 410 632 263 l 632 560 q 573 788 632 707 q 397 868 514 868 l 249 868 l 249 101 l 397 101 m 317 1068 l 163 1267 l 225 1310 l 388 1147 l 550 1310 l 610 1267 l 456 1068 l 317 1068 z "},"Đ":{"ha":833,"x_min":31,"x_max":756,"o":"m 142 467 l 31 467 l 31 556 l 142 556 l 142 969 l 403 969 q 668 847 581 969 q 756 485 756 725 q 668 122 756 244 q 403 0 581 0 l 142 0 l 142 467 m 397 101 q 573 182 514 101 q 632 410 632 263 l 632 560 q 573 788 632 707 q 397 868 514 868 l 258 868 l 258 556 l 454 556 l 454 467 l 258 467 l 258 101 l 397 101 z "},"Ð":{"ha":833,"x_min":31,"x_max":756,"o":"m 142 467 l 31 467 l 31 556 l 142 556 l 142 969 l 403 969 q 668 847 581 969 q 756 485 756 725 q 668 122 756 244 q 403 0 581 0 l 142 0 l 142 467 m 397 101 q 573 182 514 101 q 632 410 632 263 l 632 560 q 573 788 632 707 q 397 868 514 868 l 258 868 l 258 556 l 454 556 l 454 467 l 258 467 l 258 101 l 397 101 z "},"É":{"ha":833,"x_min":125,"x_max":722,"o":"m 125 0 l 125 969 l 722 969 l 722 868 l 242 868 l 242 542 l 706 542 l 706 440 l 242 440 l 242 101 l 722 101 l 722 0 l 125 0 m 433 1049 l 361 1082 l 479 1318 l 581 1269 l 433 1049 z "},"Ĕ":{"ha":833,"x_min":125,"x_max":722,"o":"m 125 0 l 125 969 l 722 969 l 722 868 l 242 868 l 242 542 l 706 542 l 706 440 l 242 440 l 242 101 l 722 101 l 722 0 l 125 0 m 424 1063 q 330 1083 368 1063 q 266 1135 292 1104 q 225 1203 240 1167 q 200 1272 210 1240 l 271 1303 l 300 1256 q 329 1210 317 1229 q 355 1178 342 1190 q 384 1159 368 1165 q 424 1153 400 1153 q 463 1159 446 1153 q 492 1178 479 1165 q 518 1210 506 1190 q 547 1256 531 1229 l 576 1303 l 647 1272 q 622 1203 638 1240 q 581 1135 607 1167 q 517 1083 556 1104 q 424 1063 479 1063 z "},"Ě":{"ha":833,"x_min":125,"x_max":722,"o":"m 125 0 l 125 969 l 722 969 l 722 868 l 242 868 l 242 542 l 706 542 l 706 440 l 242 440 l 242 101 l 722 101 l 722 0 l 125 0 m 354 1068 l 200 1267 l 263 1310 l 425 1147 l 588 1310 l 647 1267 l 493 1068 l 354 1068 z "},"Ê":{"ha":833,"x_min":125,"x_max":722,"o":"m 125 0 l 125 969 l 722 969 l 722 868 l 242 868 l 242 542 l 706 542 l 706 440 l 242 440 l 242 101 l 722 101 l 722 0 l 125 0 m 493 1299 l 647 1100 l 585 1057 l 422 1219 l 260 1057 l 200 1100 l 354 1299 l 493 1299 z "},"Ë":{"ha":833,"x_min":125,"x_max":722,"o":"m 125 0 l 125 969 l 722 969 l 722 868 l 242 868 l 242 542 l 706 542 l 706 440 l 242 440 l 242 101 l 722 101 l 722 0 l 125 0 m 294 1094 q 233 1113 251 1094 q 215 1158 215 1131 l 215 1178 q 233 1224 215 1206 q 294 1242 251 1242 q 356 1224 338 1242 q 374 1178 374 1206 l 374 1158 q 356 1113 374 1131 q 294 1094 338 1094 m 553 1094 q 492 1113 510 1094 q 474 1158 474 1131 l 474 1178 q 492 1224 474 1206 q 553 1242 510 1242 q 614 1224 596 1242 q 632 1178 632 1206 l 632 1158 q 614 1113 632 1131 q 553 1094 596 1094 z "},"Ė":{"ha":833,"x_min":125,"x_max":722,"o":"m 125 0 l 125 969 l 722 969 l 722 868 l 242 868 l 242 542 l 706 542 l 706 440 l 242 440 l 242 101 l 722 101 l 722 0 l 125 0 m 424 1086 q 356 1106 375 1086 q 336 1157 336 1126 l 336 1179 q 356 1230 336 1210 q 424 1250 375 1250 q 492 1230 472 1250 q 511 1179 511 1210 l 511 1157 q 492 1106 511 1126 q 424 1086 472 1086 z "},"Ẹ":{"ha":833,"x_min":125,"x_max":722,"o":"m 125 0 l 125 969 l 722 969 l 722 868 l 242 868 l 242 542 l 706 542 l 706 440 l 242 440 l 242 101 l 722 101 l 722 0 l 125 0 m 424 -239 q 363 -221 381 -239 q 344 -175 344 -203 l 344 -156 q 363 -110 344 -128 q 424 -92 381 -92 q 485 -110 467 -92 q 503 -156 503 -128 l 503 -175 q 485 -221 503 -203 q 424 -239 467 -239 z "},"È":{"ha":833,"x_min":125,"x_max":722,"o":"m 125 0 l 125 969 l 722 969 l 722 868 l 242 868 l 242 542 l 706 542 l 706 440 l 242 440 l 242 101 l 722 101 l 722 0 l 125 0 m 267 1269 l 368 1318 l 486 1082 l 414 1049 l 267 1269 z "},"Ẻ":{"ha":833,"x_min":125,"x_max":722,"o":"m 125 0 l 125 969 l 722 969 l 722 868 l 242 868 l 242 542 l 706 542 l 706 440 l 242 440 l 242 101 l 722 101 l 722 0 l 125 0 m 307 1299 l 458 1299 q 533 1276 511 1299 q 556 1222 556 1254 q 538 1156 556 1192 q 488 1079 519 1119 l 454 1038 l 390 1069 l 471 1214 l 307 1214 l 307 1299 z "},"Ē":{"ha":833,"x_min":125,"x_max":722,"o":"m 125 0 l 125 969 l 722 969 l 722 868 l 242 868 l 242 542 l 706 542 l 706 440 l 242 440 l 242 101 l 722 101 l 722 0 l 125 0 m 229 1215 l 618 1215 l 618 1121 l 229 1121 l 229 1215 z "},"Ę":{"ha":833,"x_min":125,"x_max":751,"o":"m 125 969 l 722 969 l 722 868 l 242 868 l 242 542 l 706 542 l 706 440 l 242 440 l 242 101 l 722 101 l 722 0 q 637 -58 668 -33 q 590 -102 606 -83 q 569 -135 574 -121 q 565 -158 565 -149 q 583 -199 565 -187 q 624 -210 601 -210 q 696 -174 667 -210 l 751 -231 q 706 -271 738 -254 q 622 -287 675 -287 q 515 -260 558 -287 q 471 -176 471 -232 q 511 -84 471 -126 q 631 -4 551 -42 l 629 0 l 125 0 l 125 969 z "},"Ẽ":{"ha":833,"x_min":125,"x_max":722,"o":"m 125 0 l 125 969 l 722 969 l 722 868 l 242 868 l 242 542 l 706 542 l 706 440 l 242 440 l 242 101 l 722 101 l 722 0 l 125 0 m 525 1086 q 463 1099 489 1086 q 414 1122 436 1111 q 358 1148 381 1140 q 317 1156 335 1156 q 275 1146 293 1156 q 236 1118 257 1136 l 190 1174 q 242 1224 210 1201 q 322 1247 274 1247 q 385 1235 358 1247 q 433 1211 411 1222 q 490 1185 467 1193 q 531 1178 513 1178 q 572 1188 554 1178 q 611 1215 590 1197 l 657 1160 q 606 1109 638 1132 q 525 1086 574 1086 z "},"Ế":{"ha":833,"x_min":125,"x_max":785,"o":"m 125 0 l 125 969 l 722 969 l 722 868 l 242 868 l 242 542 l 706 542 l 706 440 l 242 440 l 242 101 l 722 101 l 722 0 l 125 0 m 638 1225 l 569 1257 l 688 1493 l 785 1446 l 638 1225 m 493 1285 l 646 1085 l 585 1043 l 422 1208 l 260 1043 l 201 1085 l 354 1285 l 493 1285 z "},"Ệ":{"ha":833,"x_min":125,"x_max":722,"o":"m 125 0 l 125 969 l 722 969 l 722 868 l 242 868 l 242 542 l 706 542 l 706 440 l 242 440 l 242 101 l 722 101 l 722 0 l 125 0 m 493 1299 l 647 1100 l 585 1057 l 422 1219 l 260 1057 l 200 1100 l 354 1299 l 493 1299 m 424 -239 q 363 -221 381 -239 q 344 -175 344 -203 l 344 -156 q 363 -110 344 -128 q 424 -92 381 -92 q 485 -110 467 -92 q 503 -156 503 -128 l 503 -175 q 485 -221 503 -203 q 424 -239 467 -239 z "},"Ề":{"ha":833,"x_min":63,"x_max":722,"o":"m 125 0 l 125 969 l 722 969 l 722 868 l 242 868 l 242 542 l 706 542 l 706 440 l 242 440 l 242 101 l 722 101 l 722 0 l 125 0 m 63 1446 l 160 1493 l 278 1257 l 210 1225 l 63 1446 m 493 1285 l 646 1085 l 585 1043 l 422 1208 l 260 1043 l 201 1085 l 354 1285 l 493 1285 z "},"Ể":{"ha":833,"x_min":125,"x_max":746,"o":"m 125 0 l 125 969 l 722 969 l 722 868 l 242 868 l 242 542 l 706 542 l 706 440 l 242 440 l 242 101 l 722 101 l 722 0 l 125 0 m 497 1478 l 649 1478 q 724 1456 701 1478 q 746 1401 746 1433 q 728 1335 746 1371 q 678 1258 710 1299 l 644 1217 l 581 1249 l 661 1393 l 497 1393 l 497 1478 m 493 1285 l 646 1085 l 585 1043 l 422 1208 l 260 1043 l 201 1085 l 354 1285 l 493 1285 z "},"Ễ":{"ha":833,"x_min":125,"x_max":722,"o":"m 125 0 l 125 969 l 722 969 l 722 868 l 242 868 l 242 542 l 706 542 l 706 440 l 242 440 l 242 101 l 722 101 l 722 0 l 125 0 m 324 1475 q 386 1463 360 1475 q 435 1439 413 1450 q 491 1413 468 1421 q 532 1406 514 1406 q 574 1415 556 1406 q 613 1443 592 1425 l 656 1393 q 604 1342 636 1365 q 524 1319 572 1319 q 461 1332 488 1319 q 413 1356 435 1344 q 356 1381 379 1374 q 315 1389 333 1389 q 274 1379 292 1389 q 235 1351 256 1369 l 192 1401 q 243 1452 211 1429 q 324 1475 275 1475 m 493 1271 l 646 1085 l 585 1043 l 422 1197 l 260 1043 l 201 1085 l 354 1271 l 493 1271 z "},"Ə":{"ha":833,"x_min":78,"x_max":756,"o":"m 417 -17 q 264 17 328 -17 q 158 115 200 51 q 97 272 117 179 q 78 485 78 365 l 78 515 l 632 515 l 632 561 q 620 693 632 633 q 581 796 608 753 q 510 862 554 839 q 401 885 465 885 q 342 878 372 885 q 283 851 311 871 q 229 793 254 831 q 185 693 204 756 l 88 739 q 201 923 119 860 q 410 986 283 986 q 569 951 503 986 q 676 852 635 917 q 737 695 718 788 q 756 486 756 603 q 674 115 756 247 q 417 -17 593 -17 m 415 85 q 515 108 474 85 q 581 172 556 131 q 619 273 607 214 q 632 406 632 332 l 632 419 l 199 419 l 199 406 q 211 273 199 332 q 249 172 224 214 q 316 108 275 131 q 415 85 357 85 z "},"Ğ":{"ha":833,"x_min":78,"x_max":725,"o":"m 617 129 l 610 129 q 581 75 597 101 q 538 28 564 49 q 476 -4 513 8 q 390 -17 440 -17 q 155 111 232 -17 q 78 478 78 239 q 163 857 78 728 q 424 986 247 986 q 542 968 492 986 q 627 919 592 950 q 686 851 663 889 q 725 774 710 813 l 625 728 q 597 788 613 760 q 558 838 581 817 q 503 872 535 860 q 428 885 471 885 q 256 797 311 885 q 201 564 201 710 l 201 414 q 213 280 201 340 q 249 175 224 219 q 316 106 275 131 q 417 82 357 82 q 564 139 511 82 q 617 286 617 196 l 617 386 l 413 386 l 413 479 l 725 479 l 725 0 l 617 0 l 617 129 m 425 1063 q 331 1083 369 1063 q 267 1135 293 1104 q 226 1203 242 1167 q 201 1272 211 1240 l 272 1303 l 301 1256 q 331 1210 318 1229 q 356 1178 343 1190 q 385 1159 369 1165 q 425 1153 401 1153 q 464 1159 447 1153 q 494 1178 481 1165 q 519 1210 507 1190 q 549 1256 532 1229 l 578 1303 l 649 1272 q 624 1203 639 1240 q 583 1135 608 1167 q 519 1083 557 1104 q 425 1063 481 1063 z "},"Ĝ":{"ha":833,"x_min":78,"x_max":725,"o":"m 617 129 l 610 129 q 581 75 597 101 q 538 28 564 49 q 476 -4 513 8 q 390 -17 440 -17 q 155 111 232 -17 q 78 478 78 239 q 163 857 78 728 q 424 986 247 986 q 542 968 492 986 q 627 919 592 950 q 686 851 663 889 q 725 774 710 813 l 625 728 q 597 788 613 760 q 558 838 581 817 q 503 872 535 860 q 428 885 471 885 q 256 797 311 885 q 201 564 201 710 l 201 414 q 213 280 201 340 q 249 175 224 219 q 316 106 275 131 q 417 82 357 82 q 564 139 511 82 q 617 286 617 196 l 617 386 l 413 386 l 413 479 l 725 479 l 725 0 l 617 0 l 617 129 m 494 1299 l 649 1100 l 586 1057 l 424 1219 l 261 1057 l 201 1100 l 356 1299 l 494 1299 z "},"Ģ":{"ha":833,"x_min":78,"x_max":725,"o":"m 617 129 l 610 129 q 581 75 597 101 q 538 28 564 49 q 476 -4 513 8 q 390 -17 440 -17 q 155 111 232 -17 q 78 478 78 239 q 163 857 78 728 q 424 986 247 986 q 542 968 492 986 q 627 919 592 950 q 686 851 663 889 q 725 774 710 813 l 625 728 q 597 788 613 760 q 558 838 581 817 q 503 872 535 860 q 428 885 471 885 q 256 797 311 885 q 201 564 201 710 l 201 414 q 213 280 201 340 q 249 175 224 219 q 316 106 275 131 q 417 82 357 82 q 564 139 511 82 q 617 286 617 196 l 617 386 l 413 386 l 413 479 l 725 479 l 725 0 l 617 0 l 617 129 m 344 -86 l 496 -86 l 390 -349 l 306 -349 l 344 -86 z "},"Ġ":{"ha":833,"x_min":78,"x_max":725,"o":"m 617 129 l 610 129 q 581 75 597 101 q 538 28 564 49 q 476 -4 513 8 q 390 -17 440 -17 q 155 111 232 -17 q 78 478 78 239 q 163 857 78 728 q 424 986 247 986 q 542 968 492 986 q 627 919 592 950 q 686 851 663 889 q 725 774 710 813 l 625 728 q 597 788 613 760 q 558 838 581 817 q 503 872 535 860 q 428 885 471 885 q 256 797 311 885 q 201 564 201 710 l 201 414 q 213 280 201 340 q 249 175 224 219 q 316 106 275 131 q 417 82 357 82 q 564 139 511 82 q 617 286 617 196 l 617 386 l 413 386 l 413 479 l 725 479 l 725 0 l 617 0 l 617 129 m 425 1086 q 357 1106 376 1086 q 338 1157 338 1126 l 338 1179 q 357 1230 338 1210 q 425 1250 376 1250 q 493 1230 474 1250 q 513 1179 513 1210 l 513 1157 q 493 1106 513 1126 q 425 1086 474 1086 z "},"Ħ":{"ha":833,"x_min":14,"x_max":819,"o":"m 606 440 l 228 440 l 228 0 l 111 0 l 111 719 l 14 719 l 14 808 l 111 808 l 111 969 l 228 969 l 228 808 l 606 808 l 606 969 l 722 969 l 722 808 l 819 808 l 819 719 l 722 719 l 722 0 l 606 0 l 606 440 m 606 542 l 606 719 l 228 719 l 228 542 l 606 542 z "},"Ĥ":{"ha":833,"x_min":111,"x_max":722,"o":"m 606 440 l 228 440 l 228 0 l 111 0 l 111 969 l 228 969 l 228 542 l 606 542 l 606 969 l 722 969 l 722 0 l 606 0 l 606 440 m 486 1299 l 640 1100 l 578 1057 l 415 1219 l 253 1057 l 193 1100 l 347 1299 l 486 1299 z "},"Í":{"ha":833,"x_min":117,"x_max":717,"o":"m 117 0 l 117 93 l 358 93 l 358 876 l 117 876 l 117 969 l 717 969 l 717 876 l 475 876 l 475 93 l 717 93 l 717 0 l 117 0 m 426 1049 l 354 1082 l 472 1318 l 574 1269 l 426 1049 z "},"Ĭ":{"ha":833,"x_min":117,"x_max":717,"o":"m 117 0 l 117 93 l 358 93 l 358 876 l 117 876 l 117 969 l 717 969 l 717 876 l 475 876 l 475 93 l 717 93 l 717 0 l 117 0 m 417 1063 q 323 1083 361 1063 q 259 1135 285 1104 q 218 1203 233 1167 q 193 1272 203 1240 l 264 1303 l 293 1256 q 322 1210 310 1229 q 348 1178 335 1190 q 377 1159 361 1165 q 417 1153 393 1153 q 456 1159 439 1153 q 485 1178 472 1165 q 511 1210 499 1190 q 540 1256 524 1229 l 569 1303 l 640 1272 q 615 1203 631 1240 q 574 1135 600 1167 q 510 1083 549 1104 q 417 1063 472 1063 z "},"Î":{"ha":833,"x_min":117,"x_max":717,"o":"m 117 0 l 117 93 l 358 93 l 358 876 l 117 876 l 117 969 l 717 969 l 717 876 l 475 876 l 475 93 l 717 93 l 717 0 l 117 0 m 486 1299 l 640 1100 l 578 1057 l 415 1219 l 253 1057 l 193 1100 l 347 1299 l 486 1299 z "},"Ï":{"ha":833,"x_min":117,"x_max":717,"o":"m 117 0 l 117 93 l 358 93 l 358 876 l 117 876 l 117 969 l 717 969 l 717 876 l 475 876 l 475 93 l 717 93 l 717 0 l 117 0 m 288 1094 q 226 1113 244 1094 q 208 1158 208 1131 l 208 1178 q 226 1224 208 1206 q 288 1242 244 1242 q 349 1224 331 1242 q 367 1178 367 1206 l 367 1158 q 349 1113 367 1131 q 288 1094 331 1094 m 546 1094 q 485 1113 503 1094 q 467 1158 467 1131 l 467 1178 q 485 1224 467 1206 q 546 1242 503 1242 q 607 1224 589 1242 q 625 1178 625 1206 l 625 1158 q 607 1113 625 1131 q 546 1094 589 1094 z "},"İ":{"ha":833,"x_min":117,"x_max":717,"o":"m 117 0 l 117 93 l 358 93 l 358 876 l 117 876 l 117 969 l 717 969 l 717 876 l 475 876 l 475 93 l 717 93 l 717 0 l 117 0 m 417 1086 q 349 1106 368 1086 q 329 1157 329 1126 l 329 1179 q 349 1230 329 1210 q 417 1250 368 1250 q 485 1230 465 1250 q 504 1179 504 1210 l 504 1157 q 485 1106 504 1126 q 417 1086 465 1086 z "},"Ị":{"ha":833,"x_min":117,"x_max":717,"o":"m 117 0 l 117 93 l 358 93 l 358 876 l 117 876 l 117 969 l 717 969 l 717 876 l 475 876 l 475 93 l 717 93 l 717 0 l 117 0 m 417 -239 q 356 -221 374 -239 q 338 -175 338 -203 l 338 -156 q 356 -110 338 -128 q 417 -92 374 -92 q 478 -110 460 -92 q 496 -156 496 -128 l 496 -175 q 478 -221 496 -203 q 417 -239 460 -239 z "},"Ì":{"ha":833,"x_min":117,"x_max":717,"o":"m 117 0 l 117 93 l 358 93 l 358 876 l 117 876 l 117 969 l 717 969 l 717 876 l 475 876 l 475 93 l 717 93 l 717 0 l 117 0 m 260 1269 l 361 1318 l 479 1082 l 407 1049 l 260 1269 z "},"Ỉ":{"ha":833,"x_min":117,"x_max":717,"o":"m 117 0 l 117 93 l 358 93 l 358 876 l 117 876 l 117 969 l 717 969 l 717 876 l 475 876 l 475 93 l 717 93 l 717 0 l 117 0 m 300 1299 l 451 1299 q 526 1276 504 1299 q 549 1222 549 1254 q 531 1156 549 1192 q 481 1079 513 1119 l 447 1038 l 383 1069 l 464 1214 l 300 1214 l 300 1299 z "},"Ī":{"ha":833,"x_min":117,"x_max":717,"o":"m 117 0 l 117 93 l 358 93 l 358 876 l 117 876 l 117 969 l 717 969 l 717 876 l 475 876 l 475 93 l 717 93 l 717 0 l 117 0 m 222 1215 l 611 1215 l 611 1121 l 222 1121 l 222 1215 z "},"Į":{"ha":833,"x_min":117,"x_max":746,"o":"m 117 93 l 358 93 l 358 876 l 117 876 l 117 969 l 717 969 l 717 876 l 475 876 l 475 93 l 717 93 l 717 0 q 631 -58 663 -33 q 584 -102 600 -83 q 564 -135 568 -121 q 560 -158 560 -149 q 578 -199 560 -187 q 618 -210 596 -210 q 690 -174 661 -210 l 746 -231 q 701 -271 732 -254 q 617 -287 669 -287 q 509 -260 553 -287 q 465 -176 465 -232 q 506 -84 465 -126 q 625 -4 546 -42 l 624 0 l 117 0 l 117 93 z "},"Ĩ":{"ha":833,"x_min":117,"x_max":717,"o":"m 117 0 l 117 93 l 358 93 l 358 876 l 117 876 l 117 969 l 717 969 l 717 876 l 475 876 l 475 93 l 717 93 l 717 0 l 117 0 m 518 1086 q 456 1099 482 1086 q 407 1122 429 1111 q 351 1148 374 1140 q 310 1156 328 1156 q 268 1146 286 1156 q 229 1118 250 1136 l 183 1174 q 235 1224 203 1201 q 315 1247 267 1247 q 378 1235 351 1247 q 426 1211 404 1222 q 483 1185 460 1193 q 524 1178 506 1178 q 565 1188 547 1178 q 604 1215 583 1197 l 650 1160 q 599 1109 631 1132 q 518 1086 567 1086 z "},"Ĳ":{"ha":833,"x_min":118,"x_max":708,"o":"m 708 969 l 708 265 q 686 148 708 200 q 624 60 664 96 q 529 3 585 24 q 407 -17 474 -17 q 217 40 293 -17 q 118 201 140 97 l 235 231 q 252 177 240 203 q 284 131 264 151 q 335 99 304 111 q 411 86 365 86 q 544 135 497 86 q 592 286 592 183 l 592 969 l 708 969 m 125 969 l 242 969 l 242 403 l 125 403 l 125 969 z "},"Ĵ":{"ha":833,"x_min":103,"x_max":667,"o":"m 667 969 l 667 251 q 646 140 667 190 q 587 56 625 90 q 496 2 549 21 q 381 -17 443 -17 q 197 41 269 -17 q 103 203 125 99 l 214 226 q 233 172 221 197 q 265 127 244 146 q 314 97 285 108 q 383 86 343 86 q 506 131 463 86 q 550 272 550 176 l 550 868 l 200 868 l 200 969 l 667 969 m 504 1299 l 658 1100 l 596 1057 l 433 1219 l 271 1057 l 211 1100 l 365 1299 l 504 1299 z "},"Ķ":{"ha":833,"x_min":118,"x_max":803,"o":"m 374 475 l 235 311 l 235 0 l 118 0 l 118 969 l 235 969 l 235 464 l 239 464 l 367 625 l 653 969 l 793 969 l 453 561 l 803 0 l 667 0 l 374 475 m 375 -86 l 526 -86 l 421 -349 l 336 -349 l 375 -86 z "},"Ĺ":{"ha":833,"x_min":164,"x_max":743,"o":"m 167 0 l 167 969 l 283 969 l 283 101 l 743 101 l 743 0 l 167 0 m 236 1049 l 164 1082 l 282 1318 l 383 1269 l 236 1049 z "},"Ľ":{"ha":833,"x_min":167,"x_max":743,"o":"m 167 0 l 167 969 l 283 969 l 283 101 l 743 101 l 743 0 l 167 0 m 488 765 l 403 765 l 413 1028 l 556 1028 l 488 765 z "},"Ļ":{"ha":833,"x_min":167,"x_max":743,"o":"m 167 0 l 167 969 l 283 969 l 283 101 l 743 101 l 743 0 l 167 0 m 382 -86 l 533 -86 l 428 -349 l 343 -349 l 382 -86 z "},"Ŀ":{"ha":833,"x_min":167,"x_max":743,"o":"m 167 0 l 167 969 l 283 969 l 283 101 l 743 101 l 743 0 l 167 0 m 604 371 q 536 391 556 371 q 517 442 517 411 l 517 464 q 536 515 517 494 q 604 535 556 535 q 672 515 653 535 q 692 464 692 494 l 692 442 q 672 391 692 411 q 604 371 653 371 z "},"Ł":{"ha":833,"x_min":56,"x_max":743,"o":"m 743 0 l 167 0 l 167 376 l 56 340 l 56 436 l 167 472 l 167 969 l 283 969 l 283 506 l 576 601 l 576 506 l 283 410 l 283 101 l 743 101 l 743 0 z "},"Ń":{"ha":833,"x_min":111,"x_max":722,"o":"m 226 821 l 217 821 l 217 0 l 111 0 l 111 969 l 276 969 l 607 157 l 617 157 l 617 969 l 722 969 l 722 0 l 557 0 l 226 821 m 426 1049 l 354 1082 l 472 1318 l 574 1269 l 426 1049 z "},"Ň":{"ha":833,"x_min":111,"x_max":722,"o":"m 226 821 l 217 821 l 217 0 l 111 0 l 111 969 l 276 969 l 607 157 l 617 157 l 617 969 l 722 969 l 722 0 l 557 0 l 226 821 m 347 1068 l 193 1267 l 256 1310 l 418 1147 l 581 1310 l 640 1267 l 486 1068 l 347 1068 z "},"Ņ":{"ha":833,"x_min":111,"x_max":722,"o":"m 226 821 l 217 821 l 217 0 l 111 0 l 111 969 l 276 969 l 607 157 l 617 157 l 617 969 l 722 969 l 722 0 l 557 0 l 226 821 m 344 -86 l 496 -86 l 390 -349 l 306 -349 l 344 -86 z "},"Ñ":{"ha":833,"x_min":111,"x_max":722,"o":"m 226 821 l 217 821 l 217 0 l 111 0 l 111 969 l 276 969 l 607 157 l 617 157 l 617 969 l 722 969 l 722 0 l 557 0 l 226 821 m 518 1086 q 456 1099 482 1086 q 407 1122 429 1111 q 351 1148 374 1140 q 310 1156 328 1156 q 268 1146 286 1156 q 229 1118 250 1136 l 183 1174 q 235 1224 203 1201 q 315 1247 267 1247 q 378 1235 351 1247 q 426 1211 404 1222 q 483 1185 460 1193 q 524 1178 506 1178 q 565 1188 547 1178 q 604 1215 583 1197 l 650 1160 q 599 1109 631 1132 q 518 1086 567 1086 z "},"Ŋ":{"ha":833,"x_min":111,"x_max":722,"o":"m 111 0 l 111 969 l 276 969 l 607 157 l 617 157 l 617 969 l 722 969 l 722 -114 q 684 -232 722 -186 q 564 -278 646 -278 l 218 -278 l 218 -183 l 617 -183 l 617 0 l 557 0 l 226 821 l 217 821 l 217 0 l 111 0 z "},"Ó":{"ha":833,"x_min":78,"x_max":756,"o":"m 417 -17 q 264 17 328 -17 q 158 115 200 51 q 97 272 117 179 q 78 485 78 365 q 97 697 78 603 q 158 854 117 790 q 264 952 200 918 q 417 986 328 986 q 569 952 506 986 q 675 854 633 918 q 736 697 717 790 q 756 485 756 603 q 736 272 756 365 q 675 115 717 179 q 569 17 633 51 q 417 -17 506 -17 m 417 85 q 515 108 475 85 q 582 172 556 131 q 620 273 608 214 q 632 406 632 332 l 632 564 q 620 696 632 636 q 582 797 608 756 q 515 862 556 839 q 417 885 475 885 q 318 862 358 885 q 251 797 278 839 q 213 696 225 756 q 201 564 201 636 l 201 406 q 213 273 201 332 q 251 172 225 214 q 318 108 278 131 q 417 85 358 85 m 426 1049 l 354 1082 l 472 1318 l 574 1269 l 426 1049 z "},"Ŏ":{"ha":833,"x_min":78,"x_max":756,"o":"m 417 -17 q 264 17 328 -17 q 158 115 200 51 q 97 272 117 179 q 78 485 78 365 q 97 697 78 603 q 158 854 117 790 q 264 952 200 918 q 417 986 328 986 q 569 952 506 986 q 675 854 633 918 q 736 697 717 790 q 756 485 756 603 q 736 272 756 365 q 675 115 717 179 q 569 17 633 51 q 417 -17 506 -17 m 417 85 q 515 108 475 85 q 582 172 556 131 q 620 273 608 214 q 632 406 632 332 l 632 564 q 620 696 632 636 q 582 797 608 756 q 515 862 556 839 q 417 885 475 885 q 318 862 358 885 q 251 797 278 839 q 213 696 225 756 q 201 564 201 636 l 201 406 q 213 273 201 332 q 251 172 225 214 q 318 108 278 131 q 417 85 358 85 m 417 1063 q 323 1083 361 1063 q 259 1135 285 1104 q 218 1203 233 1167 q 193 1272 203 1240 l 264 1303 l 293 1256 q 322 1210 310 1229 q 348 1178 335 1190 q 377 1159 361 1165 q 417 1153 393 1153 q 456 1159 439 1153 q 485 1178 472 1165 q 511 1210 499 1190 q 540 1256 524 1229 l 569 1303 l 640 1272 q 615 1203 631 1240 q 574 1135 600 1167 q 510 1083 549 1104 q 417 1063 472 1063 z "},"Ô":{"ha":833,"x_min":78,"x_max":756,"o":"m 417 -17 q 264 17 328 -17 q 158 115 200 51 q 97 272 117 179 q 78 485 78 365 q 97 697 78 603 q 158 854 117 790 q 264 952 200 918 q 417 986 328 986 q 569 952 506 986 q 675 854 633 918 q 736 697 717 790 q 756 485 756 603 q 736 272 756 365 q 675 115 717 179 q 569 17 633 51 q 417 -17 506 -17 m 417 85 q 515 108 475 85 q 582 172 556 131 q 620 273 608 214 q 632 406 632 332 l 632 564 q 620 696 632 636 q 582 797 608 756 q 515 862 556 839 q 417 885 475 885 q 318 862 358 885 q 251 797 278 839 q 213 696 225 756 q 201 564 201 636 l 201 406 q 213 273 201 332 q 251 172 225 214 q 318 108 278 131 q 417 85 358 85 m 486 1299 l 640 1100 l 578 1057 l 415 1219 l 253 1057 l 193 1100 l 347 1299 l 486 1299 z "},"Ö":{"ha":833,"x_min":78,"x_max":756,"o":"m 417 -17 q 264 17 328 -17 q 158 115 200 51 q 97 272 117 179 q 78 485 78 365 q 97 697 78 603 q 158 854 117 790 q 264 952 200 918 q 417 986 328 986 q 569 952 506 986 q 675 854 633 918 q 736 697 717 790 q 756 485 756 603 q 736 272 756 365 q 675 115 717 179 q 569 17 633 51 q 417 -17 506 -17 m 417 85 q 515 108 475 85 q 582 172 556 131 q 620 273 608 214 q 632 406 632 332 l 632 564 q 620 696 632 636 q 582 797 608 756 q 515 862 556 839 q 417 885 475 885 q 318 862 358 885 q 251 797 278 839 q 213 696 225 756 q 201 564 201 636 l 201 406 q 213 273 201 332 q 251 172 225 214 q 318 108 278 131 q 417 85 358 85 m 288 1094 q 226 1113 244 1094 q 208 1158 208 1131 l 208 1178 q 226 1224 208 1206 q 288 1242 244 1242 q 349 1224 331 1242 q 367 1178 367 1206 l 367 1158 q 349 1113 367 1131 q 288 1094 331 1094 m 546 1094 q 485 1113 503 1094 q 467 1158 467 1131 l 467 1178 q 485 1224 467 1206 q 546 1242 503 1242 q 607 1224 589 1242 q 625 1178 625 1206 l 625 1158 q 607 1113 625 1131 q 546 1094 589 1094 z "},"Ọ":{"ha":833,"x_min":78,"x_max":756,"o":"m 417 -17 q 264 17 328 -17 q 158 115 200 51 q 97 272 117 179 q 78 485 78 365 q 97 697 78 603 q 158 854 117 790 q 264 952 200 918 q 417 986 328 986 q 569 952 506 986 q 675 854 633 918 q 736 697 717 790 q 756 485 756 603 q 736 272 756 365 q 675 115 717 179 q 569 17 633 51 q 417 -17 506 -17 m 417 85 q 515 108 475 85 q 582 172 556 131 q 620 273 608 214 q 632 406 632 332 l 632 564 q 620 696 632 636 q 582 797 608 756 q 515 862 556 839 q 417 885 475 885 q 318 862 358 885 q 251 797 278 839 q 213 696 225 756 q 201 564 201 636 l 201 406 q 213 273 201 332 q 251 172 225 214 q 318 108 278 131 q 417 85 358 85 m 417 -239 q 356 -221 374 -239 q 338 -175 338 -203 l 338 -156 q 356 -110 338 -128 q 417 -92 374 -92 q 478 -110 460 -92 q 496 -156 496 -128 l 496 -175 q 478 -221 496 -203 q 417 -239 460 -239 z "},"Ò":{"ha":833,"x_min":78,"x_max":756,"o":"m 417 -17 q 264 17 328 -17 q 158 115 200 51 q 97 272 117 179 q 78 485 78 365 q 97 697 78 603 q 158 854 117 790 q 264 952 200 918 q 417 986 328 986 q 569 952 506 986 q 675 854 633 918 q 736 697 717 790 q 756 485 756 603 q 736 272 756 365 q 675 115 717 179 q 569 17 633 51 q 417 -17 506 -17 m 417 85 q 515 108 475 85 q 582 172 556 131 q 620 273 608 214 q 632 406 632 332 l 632 564 q 620 696 632 636 q 582 797 608 756 q 515 862 556 839 q 417 885 475 885 q 318 862 358 885 q 251 797 278 839 q 213 696 225 756 q 201 564 201 636 l 201 406 q 213 273 201 332 q 251 172 225 214 q 318 108 278 131 q 417 85 358 85 m 260 1269 l 361 1318 l 479 1082 l 407 1049 l 260 1269 z "},"Ỏ":{"ha":833,"x_min":78,"x_max":756,"o":"m 417 -17 q 264 17 328 -17 q 158 115 200 51 q 97 272 117 179 q 78 485 78 365 q 97 697 78 603 q 158 854 117 790 q 264 952 200 918 q 417 986 328 986 q 569 952 506 986 q 675 854 633 918 q 736 697 717 790 q 756 485 756 603 q 736 272 756 365 q 675 115 717 179 q 569 17 633 51 q 417 -17 506 -17 m 417 85 q 515 108 475 85 q 582 172 556 131 q 620 273 608 214 q 632 406 632 332 l 632 564 q 620 696 632 636 q 582 797 608 756 q 515 862 556 839 q 417 885 475 885 q 318 862 358 885 q 251 797 278 839 q 213 696 225 756 q 201 564 201 636 l 201 406 q 213 273 201 332 q 251 172 225 214 q 318 108 278 131 q 417 85 358 85 m 300 1299 l 451 1299 q 526 1276 504 1299 q 549 1222 549 1254 q 531 1156 549 1192 q 481 1079 513 1119 l 447 1038 l 383 1069 l 464 1214 l 300 1214 l 300 1299 z "},"Ő":{"ha":833,"x_min":78,"x_max":756,"o":"m 417 -17 q 264 17 328 -17 q 158 115 200 51 q 97 272 117 179 q 78 485 78 365 q 97 697 78 603 q 158 854 117 790 q 264 952 200 918 q 417 986 328 986 q 569 952 506 986 q 675 854 633 918 q 736 697 717 790 q 756 485 756 603 q 736 272 756 365 q 675 115 717 179 q 569 17 633 51 q 417 -17 506 -17 m 417 85 q 515 108 475 85 q 582 172 556 131 q 620 273 608 214 q 632 406 632 332 l 632 564 q 620 696 632 636 q 582 797 608 756 q 515 862 556 839 q 417 885 475 885 q 318 862 358 885 q 251 797 278 839 q 213 696 225 756 q 201 564 201 636 l 201 406 q 213 273 201 332 q 251 172 225 214 q 318 108 278 131 q 417 85 358 85 m 315 1050 l 249 1081 l 367 1317 l 463 1271 l 315 1050 m 538 1050 l 471 1081 l 589 1317 l 685 1271 l 538 1050 z "},"Ō":{"ha":833,"x_min":78,"x_max":756,"o":"m 417 -17 q 264 17 328 -17 q 158 115 200 51 q 97 272 117 179 q 78 485 78 365 q 97 697 78 603 q 158 854 117 790 q 264 952 200 918 q 417 986 328 986 q 569 952 506 986 q 675 854 633 918 q 736 697 717 790 q 756 485 756 603 q 736 272 756 365 q 675 115 717 179 q 569 17 633 51 q 417 -17 506 -17 m 417 85 q 515 108 475 85 q 582 172 556 131 q 620 273 608 214 q 632 406 632 332 l 632 564 q 620 696 632 636 q 582 797 608 756 q 515 862 556 839 q 417 885 475 885 q 318 862 358 885 q 251 797 278 839 q 213 696 225 756 q 201 564 201 636 l 201 406 q 213 273 201 332 q 251 172 225 214 q 318 108 278 131 q 417 85 358 85 m 222 1215 l 611 1215 l 611 1121 l 222 1121 l 222 1215 z "}}}
